<?xml version="1.0" standalone="no"?>
<!DOCTYPE svg PUBLIC "-//W3C//DTD SVG 1.1//EN" "http://www.w3.org/Graphics/SVG/1.1/DTD/svg11.dtd" >
<svg xmlns="http://www.w3.org/2000/svg">
<metadata></metadata>
<defs>
<font id="pf_agora_slab_promedium" horiz-adv-x="1818" >
<font-face units-per-em="1000" ascent="750" descent="-250" />
<missing-glyph horiz-adv-x="283" />
<glyph unicode="fj" horiz-adv-x="591" d="M29 75h68v338h-69v60q15 5 35.5 10t34.5 9v71q0 84 51 127t152 43q35 -1 80 -6t86 -15q-1 -7 -3 -17.5t-4 -22t-4.5 -22t-3.5 -16.5q-38 5 -72 9t-63 4q-59 0 -87.5 -21.5t-28.5 -82.5v-54h313v-414q0 -55 -5.5 -100t-26 -81t-60 -64.5t-107.5 -50.5q-2 6 -5.5 15 t-7.5 19t-7.5 19t-6.5 14q38 21 61.5 39t36 38t17 44.5t4.5 59.5v386h-206v-338h79v-75h-251v75z" />
<glyph unicode="ffj" horiz-adv-x="895" d="M767 723q-5 -19 -8 -38t-7 -39q-38 6 -70.5 9.5t-61.5 3.5q-59 0 -87 -21.5t-28 -83.5v-65h305v-450q-1 -51 -11 -91.5t-32.5 -72t-60 -55t-94.5 -40.5l-27 67q35 20 58 37t36 35t18.5 39t6.5 50v404h-199v-338h79v-74h-240v74h57v338h-200v-338h64v-74h-237v74h69v338 h-69v60q17 6 34.5 10t35.5 9v66q4 75 55 118t158 43q33 0 65.5 -4t70.5 -15q48 45 158 45q37 -1 80.5 -6t81.5 -15zM402 567q0 35 7 57q-25 6 -47 8.5t-40 2.5q-69 0 -95 -25.5t-26 -84.5v-36h201v78z" />
<glyph unicode="ff" horiz-adv-x="687" d="M647 412h-142v-338h81v-74h-240v74h55v338h-200v-338h59v-74h-232v74h69v338h-69v60q17 6 34.5 10t35.5 9v37q0 41 10.5 76t35 60.5t65 40t100.5 14.5q33 0 65 -4t68 -15q44 41 147 41q22 0 48 -3.5t49 -9.5l-15 -77q-21 5 -43.5 6.5t-38.5 1.5q-38 0 -61 -18.5 t-23 -59.5v-93h142v-76zM401 488q2 51 1.5 86.5t3.5 49.5q-23 6 -45 8.5t-39 2.5q-69 0 -95 -25.5t-26 -84.5v-37h200z" />
<glyph unicode="fi" horiz-adv-x="609" d="M504 77h73v-64q-23 -10 -50.5 -15t-47.5 -5q-42 0 -61 15t-19 57v348h-198v-338h66v-75h-238v75h68v338h-69v61l70 19v70q0 83 49 126.5t149 43.5q33 0 80.5 -5t91.5 -16l-15 -78q-38 6 -72.5 10t-63.5 4q-59 0 -87.5 -22t-28.5 -83v-54h303v-412z" />
<glyph unicode="fl" horiz-adv-x="618" d="M517 75h69v-75h-237v75h62v556q-24 5 -49 7t-45 2q-59 0 -87.5 -21t-28.5 -83v-47h139v-76h-139v-338h61v-75h-233v75h68v338h-69v61l70 19v63q0 82 49 126t149 44q28 0 64.5 -3.5t71.5 -9.5l85 11v-649z" />
<glyph unicode="ffi" horiz-adv-x="914" d="M402 572q0 16 1.5 28t6.5 24q-25 6 -47.5 8.5t-40.5 2.5q-69 0 -95 -25.5t-26 -84.5v-36h201v83zM505 412v-338h74v-74h-241v74h63v338h-200v-338h60v-74h-233v74h69v338h-69v60q17 6 34.5 10t35.5 9v65q3 76 54 119.5t157 43.5q33 0 66.5 -4.5t71.5 -15.5 q26 25 68.5 34.5t105.5 9.5q35 -1 76 -6.5t74 -14.5q-4 -19 -7.5 -38.5t-6.5 -39.5q-39 7 -73.5 10.5t-63.5 3.5q-59 0 -87 -21.5t-28 -82.5v-65h304q0 -104 -0.5 -206.5t-0.5 -206.5h72v-63q-21 -10 -49 -14.5t-48 -4.5q-25 0 -40.5 5.5t-24.5 16t-12 24.5t-3 32v340h-198z " />
<glyph unicode="ffl" horiz-adv-x="923" d="M506 554q0 -17 -0.5 -33t-0.5 -32h138v-77h-138v-338h71v-74h-239v74h64v338h-200v-338h59v-74h-232v74h69v338h-69v60q17 6 34.5 10t35.5 9v60q2 79 55.5 123.5t153.5 44.5q33 0 67 -4.5t73 -15.5q29 25 70 34.5t101 9.5q32 0 67.5 -4t73.5 -9l62 12v-668h68v-74h-235 v74h61v575q-25 4 -49.5 6.5t-44.5 2.5q-60 0 -87.5 -21.5t-27.5 -82.5zM402 489q0 16 -0.5 34t0 35.5t2.5 33t6 26.5v6q-25 6 -47.5 8.5t-40.5 2.5q-69 0 -95 -25.5t-26 -84.5v-36h201z" />
<glyph unicode="ft" horiz-adv-x="712" d="M29 75h68v338h-69v61l70 19v78q0 71 39.5 114t129.5 43q12 0 27.5 -1t33 -2.5t34.5 -4t31 -6.5l-15 -75q-19 3 -45 5t-42 2q-44 0 -67 -17t-23 -60v-79h215l31 119l68 9v-129h146v-76h-146v-258q0 -38 13.5 -58.5t53.5 -20.5q35 0 89 15l14 -70q-29 -13 -63.5 -20 t-65.5 -7q-80 0 -113.5 35.5t-33.5 94.5v289h-208v-338h82v-75h-254v75z" />
<glyph unicode=" "  horiz-adv-x="283" />
<glyph unicode="&#x09;" horiz-adv-x="283" />
<glyph unicode="&#xa0;" horiz-adv-x="283" />
<glyph unicode="!" horiz-adv-x="249" d="M176 700l-2 -284l-11 -236h-74l-11 236l-4 284h102zM125 109q27 0 44.5 -17.5t17.5 -42.5t-18 -43t-44 -18q-28 0 -45.5 18t-17.5 43t18 42.5t45 17.5z" />
<glyph unicode="&#x22;" horiz-adv-x="311" d="M196 467l-16 220h91l-15 -220h-60zM60 467l-16 220h92l-17 -220h-59z" />
<glyph unicode="#" horiz-adv-x="556" d="M430 404l-34 -153h77l-7 -55h-82l-43 -196h-63l43 196h-132l-44 -196h-63l44 196h-75l8 55h79l34 153h-81l8 54h86l40 174h62l-40 -174h133l40 174h62l-39 -174h71l-7 -54h-77zM201 251h133l33 153h-132z" />
<glyph unicode="$" horiz-adv-x="575" d="M300 735h40v-66q32 -2 65.5 -10.5t62.5 -25.5v-135h-69v81q-14 6 -28 9.5t-31 5.5v-221q32 -12 63.5 -25.5t56 -33.5t39.5 -49t15 -71q0 -82 -48.5 -127.5t-125.5 -57.5v-84h-40v810zM267 -75h-39v81q-41 4 -79 13.5t-77 32.5v137h69v-81q27 -12 46 -16.5t41 -7.5v237 q-32 10 -60 24t-49 33.5t-33.5 46t-12.5 63.5q0 75 42.5 120.5t112.5 58.5v68h39v-810zM426 192q0 38 -24 59.5t-62 35.5v-199q37 8 61.5 32.5t24.5 71.5zM159 497q0 -39 19.5 -57.5t49.5 -31.5v181q-29 -8 -49 -30t-20 -62z" />
<glyph unicode="%" horiz-adv-x="850" d="M356 464q0 -38 -8.5 -74t-28 -64.5t-51.5 -46t-80 -17.5q-52 0 -85 17t-52 45t-26 64t-7 75q0 36 7 73t26.5 66.5t52.5 48.5t86 19t85.5 -19.5t50.5 -49.5t24 -66.5t6 -70.5zM273 463q0 21 -2 46.5t-10.5 47.5t-25 36.5t-45.5 14.5q-30 0 -48 -14t-27 -35.5t-12 -47.5 t-3 -49q0 -29 3.5 -54.5t13 -44.5t27 -30t46.5 -11q26 0 42 12.5t25 32.5t12.5 45t3.5 51zM308 -21h-67l303 725h66zM830 199q0 -38 -8.5 -74t-28 -64.5t-51.5 -46t-80 -17.5q-52 0 -85 17t-52 45t-26 64t-7 75q0 36 7 73t26.5 66.5t52.5 48.5t86 19t85.5 -19.5t50.5 -49.5 t24 -66.5t6 -70.5zM747 198q0 21 -2 46.5t-10.5 47.5t-25 36.5t-45.5 14.5q-30 0 -48 -14t-27 -35.5t-12 -47.5t-3 -49q0 -29 3.5 -54.5t13 -44.5t27 -30t46.5 -11q26 0 42 12.5t25 32.5t12.5 45t3.5 51z" />
<glyph unicode="&#x26;" horiz-adv-x="753" d="M268 -13q-48 0 -89.5 12.5t-72 37t-48.5 61.5t-18 86q0 127 163 215q-29 39 -41 71t-12 64q0 26 8.5 52.5t27 47.5t47.5 34t70 13q43 0 73 -13t48.5 -33t26.5 -44t8 -46q0 -29 -10.5 -52.5t-29.5 -44t-44 -38.5t-53 -35q22 -31 47.5 -64.5t53.5 -67.5q18 -21 35.5 -41.5 t36.5 -40.5q35 35 61 78.5t34 97.5h-80v71h233v-71h-68q-8 -66 -40.5 -124t-81.5 -106q35 -32 73 -58t74 -41l-38 -67q-18 7 -40 19.5t-45.5 28t-47 33t-42.5 35.5q-48 -34 -105 -52t-114 -18zM345 209q-26 32 -51 64t-47 61q-48 -26 -80 -60.5t-32 -84.5q0 -32 11 -56 t29.5 -40t44 -24t54.5 -8q38 0 77.5 13t76.5 38q-23 24 -43 48.5t-40 48.5zM239 539q0 -23 11.5 -48t31.5 -54q19 10 36.5 20.5t30.5 23.5t21 28.5t8 35.5q0 31 -19.5 49.5t-54.5 18.5q-18 0 -30.5 -7.5t-20 -18.5t-11 -24t-3.5 -24z" />
<glyph unicode="'" horiz-adv-x="213" d="M76 467l-16 220h93l-17 -220h-60z" />
<glyph unicode="(" horiz-adv-x="305" d="M61 283q0 78 16 145.5t39.5 122t50.5 95.5t50 67l46 -29q-12 -18 -30.5 -52t-35.5 -84.5t-29.5 -116t-12.5 -146.5q0 -90 12.5 -160.5t29.5 -122.5t36 -87t31 -53l-47 -32q-22 25 -49 66.5t-51 98.5t-40 129t-16 159z" />
<glyph unicode=")" horiz-adv-x="307" d="M237 283q0 -87 -16 -158.5t-40 -128.5t-51.5 -98.5t-49.5 -67.5l-45 32q12 18 30.5 53t36 87t30 122.5t12.5 160.5q0 81 -12.5 147t-30 116t-36 84.5t-30.5 51.5l46 29q22 -26 49.5 -67t51 -95.5t39.5 -122t16 -145.5z" />
<glyph unicode="*" horiz-adv-x="403" d="M227 578q25 13 51 27l52 28q15 -21 20.5 -42.5t8.5 -45.5q-30 -4 -59.5 -8t-59.5 -7l85 -80q-30 -34 -73 -55l-51 108l-49 -107q-22 10 -40 22.5t-35 31.5l85 81l-115 15q4 26 10.5 47.5t18.5 42.5q25 -15 50.5 -29.5t51.5 -28.5l-23 114q12 3 24 3.5t25 0.5 q12 0 23.5 -0.5t22.5 -3.5q-6 -28 -11.5 -57t-11.5 -57z" />
<glyph unicode="+" horiz-adv-x="575" d="M329 266v-169h-71v169h-164v69h164v163h71v-163h163v-69h-163z" />
<glyph unicode="," horiz-adv-x="232" d="M49 56q0 24 18 42.5t47 18.5q32 0 50 -22t18 -53q0 -46 -29 -94.5t-80 -81.5l-28 33q24 24 36.5 48.5t15.5 51.5q-27 2 -37.5 19t-10.5 38z" />
<glyph unicode="-" horiz-adv-x="377" d="M56 225v82h265v-82h-265z" />
<glyph unicode="." horiz-adv-x="231" d="M179 55q0 -27 -19 -46t-45 -19q-27 0 -46.5 19t-19.5 46t19.5 46t45.5 19q27 0 46 -19t19 -46z" />
<glyph unicode="/" horiz-adv-x="349" d="M85 -30h-73l257 733h73z" />
<glyph unicode="0" horiz-adv-x="575" d="M542 330q0 -63 -12.5 -123.5t-42 -108t-78 -76.5t-120.5 -29q-79 0 -129.5 28.5t-79 75t-39 107t-10.5 124.5q0 59 11 120.5t40 111.5t79 82t129 32q80 0 129.5 -33t76.5 -83.5t36.5 -111t9.5 -116.5zM435 328q0 39 -4 85.5t-18.5 86.5t-43.5 67t-79 27q-51 0 -81 -26 t-45.5 -66t-20.5 -87t-5 -89q0 -53 6 -99.5t22.5 -81t46 -54t77.5 -19.5q44 0 72.5 22.5t44.5 58.5t22 82t6 93z" />
<glyph unicode="1" horiz-adv-x="575" d="M98 75h143v493q-3 0 -26.5 -3.5t-51 -7.5t-51 -7.5t-25.5 -3.5l-13 60l177 59h95v-590h138v-75h-386v75z" />
<glyph unicode="2" horiz-adv-x="575" d="M477 486q0 -40 -15 -79t-39 -76.5t-55.5 -73t-64.5 -68t-65 -61.5t-58 -53l241 -1v85h84v-159h-465v68q30 27 66.5 59t73 66.5t70.5 71t60.5 73.5t42.5 72.5t16 68.5q0 57 -33.5 83.5t-93.5 26.5q-25 0 -68 -9.5t-100 -43.5l-35 65q62 44 119.5 58.5t100.5 14.5 q48 0 88.5 -12t69 -35.5t44.5 -58.5t16 -82z" />
<glyph unicode="3" horiz-adv-x="575" d="M481 665l15 -59l-205 -204q46 -2 86 -13t70 -33.5t47 -58t17 -85.5q0 -56 -20.5 -97.5t-55.5 -69t-81.5 -41t-97.5 -13.5q-52 0 -107 9.5t-102 32.5l25 73q55 -17 94 -23.5t71 -6.5q77 0 121.5 33t44.5 102q0 60 -43.5 91t-131.5 31q-13 0 -25 -1t-26 -3l-16 57 q22 23 48 49l53 53l53 53t49 48h-208v-88h-83v164h408z" />
<glyph unicode="4" horiz-adv-x="575" d="M447 665v-403h97v-74h-97v-113h70v-75h-239v75h68v113h-315v68q33 44 74 97t83.5 107.5t83.5 107.5t74 97h101zM341 534q-51 -68 -106.5 -136.5t-106.5 -135.5h219l-1 272h-5z" />
<glyph unicode="5" horiz-adv-x="575" d="M255 346q-26 0 -54.5 -7t-55.5 -19l-57 34l22 311h372v-149h-83v74h-203l-13 -185q17 7 40 12.5t63 5.5q45 0 86 -12.5t72.5 -38t50.5 -65t19 -93.5q0 -56 -20.5 -98t-55 -70t-80 -41.5t-95.5 -13.5q-51 0 -108.5 9t-105.5 34l25 74q56 -17 95.5 -23.5t71.5 -6.5 q75 0 120.5 32t45.5 104q0 33 -12 58t-33 41.5t-48.5 24.5t-58.5 8z" />
<glyph unicode="6" horiz-adv-x="575" d="M159 371q38 20 77 33t86 13q40 0 76.5 -12t64.5 -37t45 -64t17 -93q0 -52 -17.5 -92.5t-48.5 -68.5t-74 -42.5t-94 -14.5q-70 0 -116.5 24t-74.5 66t-39.5 98t-11.5 121q0 80 16 148t49.5 118t86 78t125.5 28q53 0 90.5 -8.5t57.5 -17.5l-20 -74q-37 14 -68.5 17.5 t-54.5 3.5q-51 0 -84.5 -24t-53.5 -58.5t-28.5 -72.5t-10.5 -65zM299 341q-33 0 -58.5 -7t-43.5 -15t-28.5 -16t-13.5 -9v-20q0 -30 4.5 -65.5t19 -65.5t41.5 -50.5t72 -20.5q64 0 97 38t33 98q0 29 -6 53.5t-20.5 42t-38 27.5t-58.5 10z" />
<glyph unicode="7" horiz-adv-x="575" d="M79 491v174h421v-71l-269 -594h-101q66 149 132.5 295t133.5 295h-232v-99h-85z" />
<glyph unicode="8" horiz-adv-x="575" d="M181 504q0 -23 11 -39t30.5 -29.5t45.5 -25t56 -25.5q46 33 64 60t18 55q0 16 -6.5 33t-20 31t-36 23.5t-53.5 9.5q-30 0 -51 -10t-33.5 -24t-18.5 -30.5t-6 -28.5zM284 71q32 0 57 9t42.5 25t26.5 36.5t9 44.5q0 25 -12 44.5t-34.5 36t-55.5 31.5t-76 33 q-26 -17 -43.5 -36t-27.5 -38.5t-14 -38.5t-4 -37q0 -45 33 -77.5t99 -32.5zM505 510q0 -18 -4 -37t-14.5 -39.5t-29 -41.5t-47.5 -43q24 -12 44.5 -28.5t36 -37.5t24.5 -47t9 -57q0 -40 -17 -74t-48.5 -59t-76.5 -39.5t-100 -14.5q-115 0 -176.5 49t-61.5 129q0 24 6 51 t19.5 53t36.5 50.5t58 44.5q-45 27 -66.5 57.5t-21.5 78.5q0 37 16 68.5t45 54.5t68.5 36t87.5 13q36 0 74 -9t68.5 -29t50 -52t19.5 -77z" />
<glyph unicode="9" horiz-adv-x="575" d="M408 295q-37 -22 -77 -34.5t-86 -12.5q-41 0 -78 12t-64.5 37t-44 64t-16.5 93q0 52 17.5 93t48.5 69t74 43t94 15q69 0 115.5 -24.5t74.5 -66.5t39.5 -98.5t11.5 -120.5q0 -80 -16 -147.5t-50 -117t-86 -77.5t-125 -28q-54 0 -92 8t-64 16l20 72q41 -11 74.5 -15 t56.5 -4q51 0 84.5 24.5t54 59t29 72.5t10.5 65zM268 324q32 0 57.5 7t43.5 15t28.5 15.5t13.5 9.5v21q0 29 -4.5 63.5t-18.5 64.5t-41.5 50.5t-72.5 20.5q-64 0 -97 -36.5t-33 -96.5q0 -29 6 -53.5t20.5 -42.5t38.5 -28t59 -10z" />
<glyph unicode=":" horiz-adv-x="228" d="M179 55q0 -27 -19 -46t-45 -19q-27 0 -46.5 19t-19.5 46t19.5 46t45.5 19q27 0 46 -19t19 -46zM179 360q0 -28 -19 -47t-45 -19q-27 0 -46.5 19t-19.5 47q0 26 19.5 45t45.5 19q27 0 46 -19t19 -45z" />
<glyph unicode=";" horiz-adv-x="228" d="M179 360q0 -28 -19 -47t-45 -19q-27 0 -46.5 19t-19.5 47q0 26 19.5 45t45.5 19q27 0 46 -19t19 -45zM50 56q0 24 17.5 42.5t46.5 18.5q33 0 51 -22t18 -53q0 -46 -29 -94.5t-81 -81.5l-27 33q24 24 36.5 48.5t15.5 51.5q-27 2 -37.5 19t-10.5 38z" />
<glyph unicode="&#x3c;" horiz-adv-x="575" d="M500 61l-418 208v57l418 208v-80l-328 -156l328 -158v-79z" />
<glyph unicode="=" horiz-adv-x="575" d="M81 343v68h412v-68h-412zM81 191v67h412v-67h-412z" />
<glyph unicode="&#x3e;" horiz-adv-x="575" d="M82 140l328 158l-328 156v80l418 -208v-57l-418 -208v79z" />
<glyph unicode="?" horiz-adv-x="464" d="M235 706q92 0 145.5 -37t53.5 -102q0 -34 -15.5 -63.5t-38.5 -56t-50 -51t-50 -49.5t-38.5 -50.5t-15.5 -54.5q0 -14 1.5 -29t3.5 -34l-84 -7q-5 26 -7.5 47.5t-2.5 36.5q0 31 10 57t27 49.5t40.5 46.5t50.5 49q26 25 41.5 45.5t15.5 48.5q0 38 -28.5 54.5t-72.5 16.5 q-23 0 -48 -3.5t-51 -11.5v-87h-80v151q52 18 103 26t90 8zM267 47q0 -24 -18 -40.5t-43 -16.5q-26 0 -44 16.5t-18 40.5q0 25 17.5 42.5t43.5 17.5t44 -17.5t18 -42.5z" />
<glyph unicode="@" horiz-adv-x="897" d="M465 694q82 0 147.5 -23.5t111.5 -67t70 -104.5t24 -135q-1 -50 -16 -88.5t-40.5 -64.5t-58 -39t-67.5 -13q-16 0 -33 3t-32.5 10.5t-28 19t-18.5 28.5q-23 -24 -58.5 -39.5t-72.5 -15.5q-33 0 -54 11t-32.5 26.5t-16 34t-4.5 33.5q0 40 20.5 62t53.5 33t73 14.5t79 6.5 v22q0 42 -14.5 57.5t-56.5 15.5q-53 0 -110 -18l-15 51q32 14 69 21.5t74 7.5q57 0 92 -27t35 -94v-151q0 -25 15.5 -40.5t47.5 -15.5q16 0 35 8t35 25.5t26.5 45.5t10.5 67q0 64 -20.5 115.5t-58 87.5t-91.5 55t-121 19q-68 0 -128 -23t-104.5 -63.5t-70.5 -96t-26 -119.5 q0 -66 23 -121.5t63.5 -96.5t96 -64t120.5 -23q27 0 58 4.5t69 16.5q5 -12 9 -24t9 -25q-30 -13 -68.5 -20t-75.5 -7q-83 0 -150.5 27t-115 74.5t-73.5 113t-26 142.5q0 78 30.5 144.5t83.5 114.5t124 75t152 27zM512 343q-24 -3 -50 -4.5t-47 -7t-34.5 -17.5t-13.5 -35 q0 -28 13.5 -43.5t45.5 -15.5q42 0 86 38v85z" />
<glyph unicode="A" horiz-adv-x="697" d="M510 76q-8 26 -18 57.5t-18 55.5h-257q-7 -21 -17 -53t-18 -60h68v-76h-230v76h56l207 610h137q49 -149 101 -305t101 -305h56v-76h-234v76h66zM451 265q-20 68 -41 134.5t-43 134.5q-4 15 -8.5 30t-9.5 30h-2l-19 -61q-9 -27 -20 -61.5t-23 -71t-23 -72t-19 -63.5h208z " />
<glyph unicode="B" horiz-adv-x="648" d="M44 608v77h314q115 0 171 -46.5t56 -131.5q0 -15 -3 -34.5t-13 -40t-28 -40t-48 -33.5v-1q33 -10 54.5 -28.5t34.5 -41.5t18.5 -48.5t5.5 -49.5q0 -44 -16 -79t-44 -59.5t-65 -38t-80 -13.5h-361v76h70v532h-66zM493 196q0 24 -8 45.5t-23.5 38t-39.5 26.5t-56 10h-145 v-240h145q34 0 58 9.5t39.5 26t22.5 38.5t7 46zM474 499q0 48 -29 78.5t-94 30.5h-130v-216h130q60 0 91.5 29.5t31.5 77.5z" />
<glyph unicode="C" horiz-adv-x="593" d="M165 341q0 -60 10 -108t34.5 -82t66 -52t104.5 -18q13 0 32.5 1t41.5 4t45 7t43 10l18 -78q-20 -8 -44.5 -14t-51.5 -10.5t-54.5 -7t-52.5 -2.5q-87 0 -146 26.5t-94.5 73t-51 110.5t-15.5 139q0 57 13.5 120.5t48.5 116t96 87t156 34.5q56 0 100 -8t78 -20v-174h-80v105 q-23 6 -48 8.5t-47 2.5q-54 0 -92 -19.5t-62.5 -55t-36 -85.5t-11.5 -111z" />
<glyph unicode="D" horiz-adv-x="692" d="M42 0v77h70v530h-66v79h304q87 0 143.5 -27.5t89.5 -74.5t46 -108.5t13 -130.5q0 -70 -14.5 -132.5t-49 -110t-92 -75t-143.5 -27.5h-301zM224 607v-530h106q25 0 59 7.5t64.5 34.5t52 79t21.5 141q0 90 -19.5 143.5t-48.5 81t-63 35.5t-62 8h-110z" />
<glyph unicode="E" horiz-adv-x="607" d="M42 0v78h68v530h-66v77h519v-179h-81v102h-262v-215l243 5v-79l-243 4v-245h275v105h82v-183h-535z" />
<glyph unicode="F" horiz-adv-x="587" d="M42 0v77h68v531h-66v77h520v-179h-82v102h-262v-215l243 5v-79l-243 4v-246h95v-77h-273z" />
<glyph unicode="G" horiz-adv-x="657" d="M377 698q56 0 103 -8t81 -20v-171h-80v100q-20 5 -47 8.5t-53 3.5q-57 0 -97.5 -19.5t-67 -54.5t-39 -85t-12.5 -111q0 -57 9.5 -105t32 -82.5t60.5 -54t96 -19.5q24 0 56 3.5t54 10.5v192h-99v75h250v-75h-50v-261q-54 -17 -110 -25.5t-108 -8.5q-86 0 -144.5 26.5 t-94.5 73t-51.5 110.5t-15.5 139q0 57 13.5 120t50 116t100 87.5t163.5 34.5z" />
<glyph unicode="H" horiz-adv-x="739" d="M457 0v77h62v244h-301v-244h63v-77h-240v77h67v531h-67v77h240v-77h-63v-213h301v213h-62v77h240v-77h-67v-531h67v-77h-240z" />
<glyph unicode="I" horiz-adv-x="381" d="M70 0v77h65v531h-65v78h241v-78h-66v-531h66v-77h-241z" />
<glyph unicode="J" horiz-adv-x="393" d="M65 686h275v-78h-77l-1 -463q0 -67 -16.5 -119t-49 -91t-80.5 -67t-111 -46l-29 71q54 29 88.5 55.5t54 56t26.5 64t7 79.5v460h-87v78z" />
<glyph unicode="K" horiz-adv-x="678" d="M375 416l228 -339h58v-77h-245l-1 77h63l-182 272l-80 -76v-197h63v-76h-237v76h66v535h-66v74h238v-74h-64v-239l250 238h-63v75h237v-75h-58z" />
<glyph unicode="L" horiz-adv-x="591" d="M42 0v77h68v531h-66v77h249v-77h-72v-531h279v122h82v-199h-540z" />
<glyph unicode="M" horiz-adv-x="910" d="M458 200q12 26 23.5 54t22.5 54l107 246l57 131h206v-77h-62v-532h62v-76h-234v76h61v453h-2l-40 -94q-16 -37 -31.5 -74t-32.5 -74q-23 -50 -44.5 -99.5t-43.5 -100.5h-104q-23 51 -46.5 101.5t-46.5 101.5l-67 151l-38 88h-3q0 -114 -0.5 -226.5t-0.5 -226.5h65v-76 h-235v76h66v532h-66v77h209q14 -29 30.5 -65.5t34.5 -78.5q23 -51 47 -106.5t47 -108.5q16 -35 29.5 -67.5t24.5 -58.5h5z" />
<glyph unicode="N" horiz-adv-x="770" d="M558 169v439h-69v77h238v-77h-66v-608h-106l-160 246q-30 46 -60.5 92.5t-60.5 94.5q-15 24 -30 48.5t-31 48.5q-1 0 -1 -0.5t-1 -0.5v-453h68q0 -19 0.5 -38t0.5 -38h-240q0 19 -0.5 38t-0.5 38h69q0 134 0.5 266t0.5 266h-69v77h186q48 -75 83.5 -131.5t64.5 -100.5 l111 -175l34 -54t34 -55h5z" />
<glyph unicode="O" horiz-adv-x="705" d="M655 342q0 -75 -19 -139t-56.5 -111.5t-93.5 -74t-130 -26.5q-81 0 -139 25t-95 70.5t-54.5 109.5t-17.5 143q0 72 16.5 137t53.5 114t95 78t141 29q84 0 141.5 -29t92.5 -77.5t50 -113t15 -135.5zM539 339q0 49 -7 98.5t-27 88.5t-56 63.5t-93 24.5t-94 -23t-58.5 -61.5 t-30 -88.5t-8.5 -103q0 -129 44.5 -196.5t146.5 -67.5q48 0 82.5 20.5t57 56t33 84t10.5 104.5z" />
<glyph unicode="P" horiz-adv-x="598" d="M569 483q0 -34 -11 -70.5t-35.5 -67t-65 -50.5t-99.5 -20h-141v-198h87v-77h-262v77h65v531h-65v78h305q104 0 163 -52.5t59 -150.5zM217 608v-257h116q24 0 46 6.5t39 21.5t27 39.5t10 60.5q0 67 -33 98t-92 31h-113z" />
<glyph unicode="Q" horiz-adv-x="706" d="M653 340q0 -108 -38 -191t-114 -123l156 -38l-35 -89l-267 87q-26 2 -49.5 6.5t-43.5 9.5q-112 29 -162 114.5t-50 222.5q0 72 16.5 137t53 114t94.5 78t141 29q84 0 141 -29t92 -78t50 -114t15 -136zM538 339q0 49 -7 98t-27 88.5t-55.5 64t-93.5 24.5q-57 0 -94 -23.5 t-58.5 -62t-30 -88.5t-8.5 -103q0 -129 44.5 -196t146.5 -67q48 0 82.5 20t57 55.5t33 84t10.5 105.5z" />
<glyph unicode="R" horiz-adv-x="648" d="M460 491q0 32 -10 54.5t-26.5 36.5t-39 20t-46.5 6h-121v-239h121q20 0 41.5 5t39.5 18.5t29.5 37t11.5 61.5zM217 294v-216h77v-78h-251v78h64v530h-64v78h313q105 0 162 -50t57 -144q0 -24 -6 -51t-20.5 -52.5t-38.5 -46t-59 -31.5l108 -236l74 -10v-60 q-20 -8 -46.5 -12t-43.5 -4q-36 0 -53 16t-31 46l-107 243h-135z" />
<glyph unicode="S" horiz-adv-x="575" d="M117 187l1 -82q37 -17 75 -23.5t71 -6.5q39 0 68 10t48 25.5t28.5 36t9.5 41.5q0 31 -11.5 50t-32 31t-48 20.5t-60.5 17.5q-46 10 -86 25t-70 36.5t-47.5 52.5t-17.5 74q1 49 20 86.5t51.5 62.5t76 38t94.5 13q22 0 48 -2t52.5 -6.5t52.5 -13t48 -20.5l1 -143h-81l-1 83 q-23 10 -57.5 14t-61.5 4q-26 0 -49.5 -6.5t-41 -19.5t-28 -32.5t-10.5 -44.5q0 -24 12.5 -41.5t33.5 -30.5t48.5 -22.5t57.5 -16.5q42 -10 82.5 -23.5t72.5 -36t51.5 -57t19.5 -87.5t-19.5 -91t-54.5 -63t-84 -36.5t-108 -11.5q-58 0 -119 11t-114 39q0 36 -0.5 72.5 t-0.5 73.5h80z" />
<glyph unicode="T" horiz-adv-x="587" d="M158 0v77h82v531h-145v-109h-80v187h558v-187h-81v109h-143v-531h82v-77h-273z" />
<glyph unicode="U" horiz-adv-x="728" d="M635 249q0 -118 -66.5 -187.5t-205.5 -69.5q-72 0 -123.5 17.5t-84.5 50.5t-48.5 81t-15.5 108v359h-59v78h235v-78h-68v-358q0 -88 42.5 -131t122.5 -43q78 0 121 42t43 132v358h-67v78h235v-78h-61v-359z" />
<glyph unicode="V" horiz-adv-x="672" d="M435 685h228v-78h-60q-50 -152 -99 -304t-100 -303h-134q-51 151 -101 303t-101 304h-59v78h234q0 -20 -0.5 -39t-0.5 -39h-59q31 -102 61 -198.5t62 -197.5q8 -27 16 -54.5t16 -55.5h4l33 112q31 98 60 196.5t59 197.5h-59v78z" />
<glyph unicode="W" horiz-adv-x="980" d="M491 436l-30 -103l-99 -333h-134l-159 607h-59v79h240v-79h-65l89 -366l31 -133h2l36 133l97 333l-12 33h-66l-1 79h247l1 -79h-69l113 -372l35 -119h2l29 130l83 361h-64v79h236v-79h-62q-9 -36 -21.5 -85.5t-27 -105t-30 -114t-30 -114t-27 -104t-21.5 -84.5h-133 l-100 337l-29 99h-2z" />
<glyph unicode="X" horiz-adv-x="667" d="M408 686h228v-79h-63l-172 -255l177 -274h66l1 -78h-259v78h63l-131 210l-134 -210h66v-78h-232v78h61l183 278l-157 251h-72l1 79h254v-79h-58l117 -190l121 190h-60v79z" />
<glyph unicode="Y" horiz-adv-x="621" d="M445 607h-59v79h224v-79h-56l-189 -320v-210h80v-77h-273v77h80v207l-185 323h-55v79h227v-79h-58l128 -241h4z" />
<glyph unicode="Z" horiz-adv-x="565" d="M156 78h305v121h83v-199h-521v76l367 532h-261v-107h-82v185h477v-76z" />
<glyph unicode="[" horiz-adv-x="282" d="M58 -160v858h189v-65h-96v-729h96v-64h-189z" />
<glyph unicode="\" horiz-adv-x="349" d="M12 703h72l258 -733h-73z" />
<glyph unicode="]" horiz-adv-x="282" d="M35 -160v64h97v729h-97v65h189v-858h-189z" />
<glyph unicode="^" horiz-adv-x="461" d="M358 370q-33 58 -65.5 115.5t-65.5 114.5q-30 -55 -64.5 -113.5t-66.5 -116.5h-76l180 310h56l178 -310h-76z" />
<glyph unicode="_" horiz-adv-x="500" d="M0 -138v57h500v-57h-500z" />
<glyph unicode="`" horiz-adv-x="500" d="M140 673l63 63l134 -165l-39 -37z" />
<glyph unicode="a" horiz-adv-x="537" d="M230 220q-42 -3 -64 -24.5t-22 -52.5q0 -39 19 -57.5t62 -18.5q27 0 58.5 14t55.5 37v110zM442 75h76l6 -60q-10 -6 -25 -10t-31 -6.5t-31 -3.5t-25 -1q-29 0 -47.5 11t-19.5 50q-1 0 -1 0.5t-1 0.5q-27 -24 -52 -37t-46.5 -19.5t-38.5 -7.5t-28 -1q-44 0 -72 14 t-44.5 35t-22.5 46t-6 46q0 30 10.5 55t33.5 44t59 31.5t87 15.5l118 8v29q0 55 -21 78t-77 23q-36 0 -75.5 -7t-74.5 -19l-10 34l-10 34q42 19 94.5 29t100.5 10q82 0 128 -36.5t46 -128.5v-257z" />
<glyph unicode="b" horiz-adv-x="568" d="M299 -8q-48 0 -108 11t-114 36v598h-75v76h182v-255q42 23 78.5 33t65.5 10q56 0 93.5 -19.5t59.5 -54t31 -81.5t9 -103q0 -51 -10.5 -96.5t-36 -80t-68.5 -54.5t-107 -20zM306 419q-32 0 -64 -12t-58 -26v-288q29 -12 57 -16.5t51 -4.5q28 0 50 8t38 27.5t24.5 52 t8.5 81.5q0 55 -8 89.5t-22.5 54t-34 27t-42.5 7.5z" />
<glyph unicode="c" horiz-adv-x="471" d="M272 500q41 0 79 -6.5t70 -19.5v-137h-76v71q-9 2 -21.5 3.5t-21.5 1.5q-82 0 -118.5 -40.5t-36.5 -131.5q0 -86 33.5 -127t98.5 -41q37 0 71 7t69 21l23 -70q-34 -19 -80.5 -29t-95.5 -10q-66 0 -109.5 19t-69.5 52.5t-36.5 78.5t-10.5 97q0 40 9 86t34.5 85t71 64.5 t117.5 25.5z" />
<glyph unicode="d" horiz-adv-x="572" d="M381 45q-31 -25 -72.5 -39t-77.5 -14q-54 0 -91 19.5t-59 52.5t-31.5 77t-9.5 94q0 57 11 105.5t35 84t62.5 56t94.5 20.5q27 0 63.5 -6.5t70.5 -24.5v167h-78v76h185v-638h73v-75h-174v44zM264 419q-23 0 -44 -8t-37 -28.5t-25.5 -56t-9.5 -90.5q0 -48 8.5 -79.5 t23.5 -50t35.5 -26t44.5 -7.5q32 0 65.5 14.5t51.5 30.5v269q-8 6 -21 11.5t-28.5 10t-32 7.5t-31.5 3z" />
<glyph unicode="e" horiz-adv-x="505" d="M264 422q-29 0 -50 -11.5t-34.5 -30t-21 -42t-8.5 -47.5h218q-1 27 -6 50.5t-17 41.5t-31.5 28.5t-49.5 10.5zM265 500q71 0 111.5 -26.5t61 -64t25.5 -77.5t5 -67v-48h-320q0 -33 6 -60t21 -46t40.5 -29.5t63.5 -10.5q42 0 77 8t75 25l27 -67q-46 -24 -94.5 -35 t-97.5 -11q-69 0 -112.5 21t-69 56t-35 80.5t-9.5 94.5q0 36 9 80.5t34 84t69 66t113 26.5z" />
<glyph unicode="f" horiz-adv-x="383" d="M29 75h68v338h-69v60l70 19v73q0 71 39.5 114t129.5 43q23 0 55 -3t61 -11l-15 -75q-20 3 -40.5 5t-36.5 2q-44 0 -67 -17t-23 -60v-74h143v-76h-143v-338h82v-75h-254v75z" />
<glyph unicode="g" horiz-adv-x="540" d="M441 428q16 -18 24.5 -46t8.5 -56q0 -41 -16.5 -72t-45 -52.5t-67.5 -33t-85 -11.5h-55q-35 0 -53 -7t-18 -27q0 -31 46 -31h132q91 0 142 -36.5t51 -109.5q0 -35 -15.5 -64.5t-48 -51.5t-81 -34.5t-114.5 -12.5q-63 0 -104.5 11.5t-66.5 30t-35 43.5t-10 52 q0 42 20.5 72t43.5 43q-29 6 -44 26t-15 49q0 21 8 35.5t20 24.5t26.5 16t28.5 9q-27 12 -48 42.5t-21 84.5q0 48 18 82t47.5 55.5t67 31.5t75.5 10q26 0 51.5 -3.5t45.5 -8.5h165v-59h-75zM187 21q-9 -3 -18.5 -11t-17 -18.5t-12 -23t-4.5 -24.5q0 -15 5.5 -30t19.5 -26 t38.5 -18t63.5 -7q66 0 99.5 22.5t33.5 58.5q0 14 -5 27.5t-17 24.5t-31.5 18t-48.5 7h-106zM366 327q0 15 -5 32t-17 31.5t-32.5 24t-51.5 9.5q-51 0 -77 -26.5t-26 -71.5q0 -44 25 -69t70 -25q49 0 81.5 23.5t32.5 71.5z" />
<glyph unicode="h" horiz-adv-x="608" d="M90 0v637h-70v76h176v-268q42 26 86 40.5t82 14.5q53 0 83 -17.5t44.5 -42.5t18 -53.5t3.5 -49.5v-261h74v-63q-21 -10 -50 -14.5t-49 -4.5q-30 0 -46 11t-24 26t-9.5 29.5t-1.5 22.5v234q0 25 -3 43t-11 30t-24 18t-41 6q-31 0 -67.5 -14t-64.5 -31v-369h-106z" />
<glyph unicode="i" horiz-adv-x="315" d="M53 412v76h157v-411h72v-64q-21 -10 -48.5 -15t-47.5 -5q-43 0 -62 17.5t-20 61.5v340h-51zM220 625q0 -27 -19.5 -46.5t-47.5 -19.5q-27 0 -46 19.5t-19 46.5q0 28 19 47t46 19q28 0 47.5 -19t19.5 -47z" />
<glyph unicode="j" horiz-adv-x="300" d="M37 488h172v-447q0 -55 -10 -97t-33 -74t-61 -56.5t-94 -43.5l-32 68q40 24 64.5 45t37.5 43.5t17.5 48.5t4.5 59v378h-66v76zM219 625q0 -27 -20 -46.5t-46 -19.5q-28 0 -47 19.5t-19 46.5q0 28 19 47t47 19q26 0 46 -19t20 -47z" />
<glyph unicode="k" horiz-adv-x="558" d="M303 488h212v-72h-45l-131 -112l142 -232l64 -9v-57q-19 -7 -41.5 -10t-38.5 -3q-20 0 -38.5 6t-33.5 31l-129 217q-17 -14 -32.5 -28t-32.5 -28v-120h62v-71h-236v71h68v569h-75v71h181v-422l148 127h-44v72z" />
<glyph unicode="l" horiz-adv-x="320" d="M218 75h69v-75h-243v75h68v562h-75v76h181v-638z" />
<glyph unicode="m" horiz-adv-x="905" d="M365 498q84 0 119 -61q18 13 40 24.5t45 19.5t46 13t44 5q50 0 80 -14.5t46 -38.5t21 -53.5t5 -59.5v-257h68v-63q-22 -10 -48 -14.5t-46 -4.5q-45 0 -61.5 17t-18.5 53v249q0 49 -15.5 72.5t-65.5 23.5q-14 0 -30.5 -3t-33.5 -8t-33 -12t-28 -15q4 -16 4.5 -32.5 t0.5 -28.5v-310h-106v326q0 48 -21 65.5t-55 17.5q-29 0 -63 -12.5t-60 -29.5v-367h-107v412h-72v77h176v-43l4 -3q41 27 84.5 41t80.5 14z" />
<glyph unicode="n" horiz-adv-x="611" d="M365 500q53 0 83 -17.5t44.5 -42.5t18 -53.5t3.5 -49.5v-261h74v-63q-21 -10 -50 -14.5t-49 -4.5q-30 0 -46 9.5t-24 22.5t-9.5 26t-1.5 21v244q0 25 -3 43t-11 30t-24 18t-41 6q-31 0 -67.5 -14t-64.5 -31v-369h-106v413h-70v76h176v-43l5 -1q42 27 84 41t79 14z" />
<glyph unicode="o" horiz-adv-x="538" d="M498 244q0 -49 -12 -94.5t-39.5 -80.5t-72 -56t-110.5 -21q-62 0 -104.5 20t-69 54.5t-38.5 79.5t-12 96q0 50 13 96.5t41 82t72 57t106 21.5q63 0 106.5 -21.5t70 -56.5t38 -81.5t11.5 -95.5zM389 242q0 31 -4.5 62.5t-17 57t-35 41.5t-58.5 16q-37 0 -61 -15.5 t-38 -40.5t-19.5 -56.5t-5.5 -64.5q0 -34 4.5 -65t17.5 -54.5t36.5 -37.5t62.5 -14q36 0 59 15t36 39t18 54.5t5 62.5z" />
<glyph unicode="p" horiz-adv-x="568" d="M16 -134h73v546h-73v76h173v-45l2 -1q30 25 72 39.5t78 14.5q55 0 91.5 -19.5t59 -52.5t32 -77.5t9.5 -93.5q0 -57 -11 -105t-35 -83t-63 -55t-95 -20q-26 0 -62.5 7t-71.5 25v-156h78v-76h-257v76zM309 74q22 0 43 7.5t37 27t25.5 54.5t9.5 89q0 48 -8.5 78.5t-23 48.5 t-35 24.5t-44.5 6.5q-16 0 -33 -4t-33 -10.5t-29.5 -14.5t-22.5 -16v-258q9 -6 22 -12t28.5 -10.5t32 -7.5t31.5 -3z" />
<glyph unicode="q" horiz-adv-x="566" d="M304 -134h81v165q-42 -23 -78.5 -32.5t-65.5 -9.5q-54 0 -91.5 18t-60 51t-32.5 78.5t-9 100.5q1 52 12.5 99t38 83t70.5 57t110 21q48 0 104.5 -10.5t107.5 -33.5v-587h74v-76h-261v76zM263 76q32 0 64 11t58 25v283q-26 11 -52.5 15t-50.5 4q-56 0 -90.5 -38 t-35.5 -133q-1 -52 7 -84.5t22.5 -51t34.5 -25t43 -6.5z" />
<glyph unicode="r" horiz-adv-x="416" d="M208 419q15 13 36 27.5t45 26.5t49 20t48 8q14 0 21 -7.5t7 -26.5q0 -20 -8 -48t-25 -46l-174 -1v-297h73v-75h-248v75h68v338h-66v76h171v-69z" />
<glyph unicode="s" horiz-adv-x="464" d="M107 149l3 -62q20 -11 48 -15.5t51 -4.5q45 0 76.5 14.5t31.5 50.5q0 18 -7.5 30t-20.5 20.5t-30.5 14.5t-36.5 12q-34 10 -67 20t-59 26t-42 39.5t-16 60.5q0 38 14.5 65t40 44.5t61 26t77.5 8.5q43 0 85.5 -8.5t75.5 -28.5q0 -29 0.5 -58.5t1.5 -59.5h-79l-2 65 q-34 14 -75 14q-38 0 -64.5 -14.5t-26.5 -49.5q0 -15 9.5 -25.5t24 -18t30.5 -12.5t30 -9q30 -9 63 -18.5t60.5 -26.5t45 -44.5t17.5 -72.5q0 -36 -15 -62.5t-42.5 -43.5t-66.5 -25.5t-86 -8.5q-43 0 -94 7.5t-91 30.5l-2 119h77z" />
<glyph unicode="t" horiz-adv-x="391" d="M194 618v-129h145v-76h-146v-255q0 -19 2.5 -33.5t9.5 -24.5t20 -15.5t35 -5.5q17 0 39.5 3t50.5 11l16 -72q-29 -13 -64.5 -20t-66.5 -7q-42 0 -70.5 9t-45.5 26t-24 41t-7 54v289h-70v60l75 23l30 113z" />
<glyph unicode="u" horiz-adv-x="601" d="M238 -11q-47 0 -75.5 13t-44 35t-21 50t-5.5 58v267h-70v77h177v-326q0 -21 2 -37t9.5 -27t21.5 -16.5t38 -5.5t60.5 12t69.5 43v280h-63v77h170v-413h69v-63q-28 -11 -54 -15t-43 -4q-37 0 -54.5 13.5t-21.5 49.5q-45 -41 -89 -54.5t-76 -13.5z" />
<glyph unicode="v" horiz-adv-x="553" d="M282 86q11 38 26.5 83t26.5 82q13 38 27 80.5t26 80.5h-43v77h192v-77h-47q-15 -45 -34.5 -98t-39.5 -108t-39.5 -108t-35.5 -98h-129q-15 44 -34 97t-38.5 107.5t-38 107t-33.5 97.5h-53v80h132l70 -216q6 -21 14 -44.5t16.5 -48.5t16.5 -49t14 -45h4z" />
<glyph unicode="w" horiz-adv-x="860" d="M610 79l36 137l56 197h-60v76h205v-76l-47 -1l-122 -412h-142l-56 151l-46 129h-5l-43 -129l-53 -151h-146l-120 409h-53v80h134l73 -260l41 -152h5l44 130l64 183l-9 22h-73v77h248v-77h-55l72 -202l48 -131h4z" />
<glyph unicode="x" horiz-adv-x="548" d="M254 190l-87 -115h56v-75h-211l1 75h45l145 192l-96 146h-82v75h147l107 -162l64 87h-49v75h217v-75h-58l-125 -161l118 -177h71v-75h-226v75h39z" />
<glyph unicode="y" horiz-adv-x="561" d="M277 70q2 7 10.5 32.5t19.5 60t24 74t24.5 75t20.5 63t13 37.5h-59v77h208v-77h-49l-178 -518q-10 -26 -21.5 -46t-27.5 -33.5t-38.5 -21t-55.5 -7.5q-11 0 -42 2.5t-72 15.5l16 84q22 -5 42 -7.5t37 -2.5q24 0 37.5 6t22.5 20.5t18 39t24 62.5h-53q-33 101 -65.5 201.5 t-65.5 202.5h-50v79h129q4 -12 14 -45.5t23.5 -78t28.5 -93.5t27.5 -91.5t21.5 -73t11 -37.5h5v0z" />
<glyph unicode="z" horiz-adv-x="475" d="M157 73h212v75h77v-148h-420v67l280 348h-185v-77h-76v151h392v-66z" />
<glyph unicode="{" horiz-adv-x="291" d="M203 -168q-35 0 -55.5 10t-32 27.5t-15 41t-3.5 50.5v201q0 38 -15 66.5t-53 33.5v57q38 7 53 35t15 71v133q0 23 2.5 48.5t12.5 46.5t30 35t55 14h72v-64h-25q-30 0 -41.5 -19t-11.5 -47v-154q0 -22 -2 -42.5t-9 -37t-19.5 -28.5t-33.5 -17v-1q22 -11 35 -24.5t19.5 -31 t8 -40.5t1.5 -51v-184q0 -26 9 -45.5t41 -19.5h28v-64h-66z" />
<glyph unicode="|" horiz-adv-x="272" d="M97 -142v845h73v-845h-73z" />
<glyph unicode="}" horiz-adv-x="291" d="M23 -168v64h28q32 0 41 19.5t9 45.5v184q0 28 1.5 51t8 40.5t19.5 31t35 24.5v1q-21 5 -33.5 17t-19.5 28.5t-9 37t-2 42.5v154q0 28 -11.5 47t-41.5 19h-25v64h72q35 0 55 -14t30 -35t12.5 -46.5t2.5 -48.5v-133q0 -43 15 -71t53 -35v-57q-38 -5 -53 -33.5t-15 -66.5 v-201q0 -27 -3.5 -50.5t-15 -41t-32.5 -27.5t-55 -10h-66z" />
<glyph unicode="~" horiz-adv-x="575" d="M397 240q-30 0 -59.5 7.5t-56.5 16t-51 16t-45 7.5l-72 -47l-41 32q20 46 51 70t70 24q25 0 53.5 -7t57.5 -16t56.5 -16t48.5 -7l68 48l39 -31q-17 -45 -47 -71t-72 -26z" />
<glyph unicode="&#xa1;" horiz-adv-x="249" d="M74 -213l4 284l11 236h74l11 -236l2 -284h-102zM125 378q-27 0 -45 17.5t-18 42.5t17.5 43t45.5 18q26 0 44 -18t18 -43t-17.5 -42.5t-44.5 -17.5z" />
<glyph unicode="&#xa2;" horiz-adv-x="575" d="M285 -6q-57 4 -95 24.5t-60.5 53.5t-31.5 75.5t-9 91.5q0 38 8 80.5t29.5 80t60 64.5t98.5 34v92h51v-90q36 -2 70.5 -8.5t63.5 -17.5v-137h-76v71q-9 2 -21.5 3.5t-21.5 1.5q-4 0 -7.5 -0.5t-7.5 -0.5v-339q35 1 67 8t65 20l23 -70q-30 -17 -70.5 -26.5t-84.5 -11.5v-78 h-51v79zM196 241q0 -139 89 -163v326q-47 -14 -68 -53.5t-21 -109.5z" />
<glyph unicode="&#xa3;" horiz-adv-x="575" d="M142 368l5 101q3 45 16 83t37.5 65.5t62 43t89.5 15.5q53 0 96.5 -10.5t74.5 -24.5v-140h-81v80q-19 5 -39 8.5t-46 3.5q-32 0 -52.5 -9t-33 -26t-18.5 -41t-8 -54l-5 -95h173v-61h-177l-4 -72q-1 -23 -4 -46.5t-9 -45t-15 -39t-22 -29.5h335v-75h-459l1 74 q22 11 36 29.5t22.5 40.5t12 46.5t4.5 48.5l4 68h-65v61h69z" />
<glyph unicode="&#xa4;" horiz-adv-x="575" d="M160 306q0 -26 10 -49t27 -40t40 -27t49 -10t49 10t40 27t27 40t10 49t-10 49t-27 40t-40 27t-49 10t-49 -10t-40 -27t-27 -40t-10 -49zM64 482l46 47l64 -64q50 36 113 36q61 0 113 -37l63 65l48 -48l-66 -62q19 -26 27.5 -54t8.5 -58q0 -31 -9.5 -59.5t-26.5 -53.5 l66 -61l-48 -48l-64 63q-26 -20 -54.5 -28t-57.5 -8t-57 8t-55 28l-65 -64l-47 48l65 62q-21 28 -29 56.5t-8 54.5q0 29 8.5 58.5t28.5 54.5z" />
<glyph unicode="&#xa5;" horiz-adv-x="575" d="M68 294v44h124q-32 64 -63.5 125.5t-62.5 124.5h-51v77h214v-77h-59q29 -62 57.5 -121.5t57.5 -120.5h4l115 242h-61v77h211v-77h-49q-32 -63 -64.5 -124.5t-64.5 -125.5h127v-44h-435zM503 247v-47h-168v-125h79v-75h-261v75h78v125h-163v47h435z" />
<glyph unicode="&#xa6;" horiz-adv-x="272" d="M97 359v344h73v-344h-73zM170 229v-371h-73v371h73z" />
<glyph unicode="&#xa7;" horiz-adv-x="495" d="M436 286q0 -36 -16 -67.5t-52 -63.5q44 -28 60 -61t16 -61q0 -40 -16 -70t-44 -50.5t-67.5 -30.5t-85.5 -10q-51 0 -89.5 9t-69.5 19v129h75q0 -18 -0.5 -36t-0.5 -37q21 -5 42.5 -9t44.5 -4q55 0 84.5 24t29.5 57q0 36 -29.5 58.5t-80.5 43.5q-32 13 -64 27t-57.5 32.5 t-41 43.5t-15.5 60q0 38 17.5 71.5t55.5 59.5q-32 22 -47.5 46.5t-15.5 59.5q0 39 15.5 68.5t42 49t62.5 29.5t78 10q52 0 89.5 -8.5t65.5 -18.5v-132h-76v77q-20 5 -37.5 8.5t-43.5 3.5q-18 0 -36.5 -5t-33.5 -15t-24 -25t-9 -35q0 -18 12.5 -33t32 -27t43 -22t44.5 -19 q27 -11 52.5 -24t45.5 -30t32 -39.5t12 -52.5zM351 268q0 25 -14.5 42t-37 30t-50 24.5t-54.5 24.5q-47 -38 -47 -81q0 -28 14 -44.5t36.5 -28.5t51 -22.5t57.5 -26.5q21 20 32.5 42.5t11.5 39.5z" />
<glyph unicode="&#xa8;" horiz-adv-x="463" d="M383 605q0 -21 -15.5 -35.5t-38.5 -14.5q-21 0 -35 14.5t-14 35.5t14.5 35.5t34.5 14.5q23 0 38.5 -14t15.5 -36zM190 605q0 -21 -14.5 -35.5t-37.5 -14.5q-22 0 -36.5 14.5t-14.5 35.5t15 35.5t35 14.5q23 0 38 -14t15 -36z" />
<glyph unicode="&#xa9;" horiz-adv-x="845" d="M795 332q0 -77 -29.5 -144t-80.5 -117.5t-119 -79.5t-144 -29q-77 0 -145 29t-118.5 79.5t-80 117.5t-29.5 144q0 76 29.5 143t80 117.5t118.5 79.5t145 29q76 0 144 -29t119 -79.5t80.5 -117.5t29.5 -143zM744 332q0 66 -25 124t-68.5 101.5t-102.5 68.5t-126 25 q-66 0 -125 -25t-103 -68.5t-69.5 -101.5t-25.5 -124t25.5 -124t69.5 -101.5t103 -68.5t125 -25q67 0 126 25t102.5 68.5t68.5 101.5t25 124zM293 325q0 -42 7.5 -76t25 -58t46.5 -37t73 -13q10 0 24 1t30 3t32 4.5t29 6.5l12 -55q-26 -11 -67 -17t-76 -6q-61 0 -102.5 18.5 t-67 51t-36.5 77.5t-11 99q0 40 10 85t35 82.5t68.5 62t111.5 24.5q41 0 71.5 -6t53.5 -14v-122h-57v72q-32 7 -65 7q-76 0 -111.5 -51t-35.5 -139z" />
<glyph unicode="&#xaa;" horiz-adv-x="364" d="M307 325h43l5 -48q-15 -6 -35.5 -10t-35.5 -4q-19 0 -33.5 8t-17.5 30q-17 -14 -33 -22t-30 -12t-25.5 -4.5t-18.5 -0.5q-32 0 -52.5 9.5t-32.5 23.5t-16.5 30.5t-4.5 31.5q0 35 17.5 55t46.5 30t67 13t79 5v15q0 34 -13 48t-50 14q-23 0 -50.5 -5t-53.5 -13 q-4 12 -7.5 24.5t-8.5 25.5q31 13 67.5 20t70.5 7q57 0 89.5 -24.5t32.5 -86.5v-160zM230 415q-26 -1 -49 -2t-40.5 -6.5t-27.5 -16t-10 -29.5q0 -45 52 -45q17 0 37.5 8.5t37.5 21.5v69z" />
<glyph unicode="&#xab;" horiz-adv-x="459" d="M55 211l155 168l43 -32l-102 -155l102 -154l-43 -32l-155 167v38zM218 211l156 168l43 -32l-102 -155l102 -154l-43 -32l-156 167v38z" />
<glyph unicode="&#xac;" horiz-adv-x="575" d="M492 97h-72v169h-326v69h398v-238z" />
<glyph unicode="&#xad;" horiz-adv-x="377" d="M56 225v82h265v-82h-265z" />
<glyph unicode="&#xae;" horiz-adv-x="593" d="M541 469q0 -51 -19 -96t-52.5 -78t-79 -52.5t-97.5 -19.5q-53 0 -98.5 19.5t-79 52.5t-53 78t-19.5 96t19 96t53 78.5t79.5 52.5t98.5 19q52 0 97.5 -19t79 -52.5t52.5 -78.5t19 -96zM501 469q0 43 -16 80.5t-44 66t-66 45t-82 16.5t-82.5 -16.5t-66.5 -45t-44 -66 t-16 -80.5q0 -42 16 -80t44 -66t66 -44.5t83 -16.5t83.5 16.5t66 44.5t43 66t15.5 80zM256 450v-85h31v-37h-111v37h27v216h-27v38h134q46 0 70 -22t24 -62q0 -19 -12 -42t-40 -35l46 -93l31 -4v-32q-9 -2 -21.5 -3.5t-21.5 -1.5q-15 0 -23.5 8t-13.5 19l-47 99h-46z M351 535q0 26 -14 36.5t-34 10.5h-47v-95h46q20 0 34.5 9.5t14.5 38.5z" />
<glyph unicode="&#xaf;" horiz-adv-x="526" d="M89 664h344v-76h-344v76z" />
<glyph unicode="&#xb0;" horiz-adv-x="358" d="M322 538q0 -29 -11 -54.5t-29.5 -44.5t-44 -30t-54.5 -11q-64 0 -102.5 39.5t-38.5 100.5q0 28 11 54t30.5 45t45 30.5t54.5 11.5t54.5 -9.5t44 -28t29.5 -44.5t11 -59zM264 535q0 36 -21.5 62.5t-61.5 26.5q-35 0 -58.5 -26.5t-23.5 -62.5q0 -35 23.5 -58.5t58.5 -23.5 t59 23.5t24 58.5z" />
<glyph unicode="&#xb1;" horiz-adv-x="575" d="M329 272v-158h-72v158h-163v69h163v154h72v-154h162v-69h-162zM491 64v-64h-397v64h397z" />
<glyph unicode="&#xb2;" horiz-adv-x="376" d="M314 647q0 -32 -18 -64.5t-45 -62t-58 -56t-58 -46.5h129v46h68v-109h-309v54q35 26 71.5 57t66.5 62.5t49 60.5t19 52q0 29 -19.5 41.5t-52.5 12.5q-16 0 -43 -5.5t-66 -27.5l-30 52q42 29 81 38.5t68 9.5q67 0 107 -29t40 -86z" />
<glyph unicode="&#xb3;" horiz-adv-x="376" d="M208 602q27 -3 50 -11t40 -22.5t27 -34.5t10 -47q0 -33 -14 -58.5t-37 -42.5t-54 -26t-65 -9q-39 0 -75.5 5.5t-68.5 21.5l21 58q42 -13 70 -15.5t46 -2.5q42 0 67.5 18.5t25.5 50.5q0 28 -23.5 45t-71.5 17q-13 0 -24 -1t-24 -3l-13 40q30 28 61.5 55.5t60.5 53.5h-111 v-49h-66v111h275q3 -11 5.5 -22t6.5 -22z" />
<glyph unicode="&#xb4;" horiz-adv-x="505" d="M233 534l-40 37l133 165l64 -63z" />
<glyph unicode="&#xb6;" horiz-adv-x="564" d="M233 312q-41 0 -75.5 14t-60 39.5t-40 60.5t-14.5 76q0 40 14 75.5t39 62t60 42t77 15.5h300v-73h-67v-823h-74v823h-65l1 -823h-159v70h83v441h-19z" />
<glyph unicode="&#xb7;" horiz-adv-x="228" d="M179 284q0 -26 -18.5 -44.5t-44.5 -18.5t-44.5 18.5t-18.5 44.5t18.5 44.5t44.5 18.5t44.5 -18.5t18.5 -44.5z" />
<glyph unicode="&#xb8;" horiz-adv-x="460" d="M299 17q-14 -18 -30 -38t-30 -40q49 -2 78.5 -22.5t29.5 -61.5q-1 -21 -12 -39.5t-33.5 -32.5t-57 -22t-81.5 -8v41q54 5 85 19t31 38q0 13 -9 21t-23 12t-31.5 5t-34.5 1l-14 21q25 32 49 64t49 63q8 -6 17 -10.5t17 -10.5z" />
<glyph unicode="&#xb9;" horiz-adv-x="376" d="M58 417h90v264q-20 -2 -47.5 -6t-47.5 -7l-11 53l119 35h72v-339h86v-62h-261v62z" />
<glyph unicode="&#xba;" horiz-adv-x="372" d="M346 429q0 -32 -8.5 -62t-28 -53t-50.5 -37t-77 -14q-43 0 -73 13.5t-48.5 36t-26.5 53t-8 63.5t9 63.5t28.5 53.5t50 37t74.5 14t74.5 -14t49 -37t26.5 -53.5t8 -63.5zM264 429q0 19 -3 39t-11 36t-23 26.5t-39 10.5t-39.5 -10t-24.5 -26.5t-12.5 -36.5t-3.5 -40 q0 -21 3 -40.5t11.5 -34t24 -23.5t41.5 -9q24 0 38.5 9.5t23 25t11.5 34.5t3 39z" />
<glyph unicode="&#xbb;" horiz-adv-x="459" d="M410 173l-155 -167l-43 32l101 154l-101 155l44 32l154 -168v-38zM246 173l-155 -167l-43 32l102 154l-102 155l43 32l155 -168v-38z" />
<glyph unicode="&#xbc;" horiz-adv-x="850" d="M84 327h90v264q-20 -2 -47.5 -6t-47.5 -7l-11 53l119 35h72v-339h86v-62h-261v62zM324 -21h-67l303 725h66zM718 401v-232h62v-57h-62v-55h45v-57h-166v57h41v55h-199v49q42 51 74.5 90.5t57 68.5t41 48.5l27.5 32.5h79zM639 314q-31 -40 -61.5 -75t-56.5 -70h118v145z " />
<glyph unicode="&#xbd;" horiz-adv-x="850" d="M72 327h90v264q-20 -2 -47.5 -6t-47.5 -7l-11 53l119 35h72v-339h86v-62h-261v62zM303 -21h-67l303 725h66zM773 292q0 -32 -18 -64.5t-45 -62t-58 -56t-58 -46.5h129v46h68v-109h-309v54q35 26 71.5 57t66.5 62.5t49 60.5t19 52q0 29 -19.5 41.5t-52.5 12.5 q-16 0 -43 -5.5t-66 -27.5l-30 52q42 29 81 38.5t68 9.5q67 0 107 -29t40 -86z" />
<glyph unicode="&#xbe;" horiz-adv-x="850" d="M735 401v-232h62v-57h-62v-55h45v-57h-166v57h41v55h-199v49q42 51 74.5 90.5t57 68.5t41 48.5l27.5 32.5h79zM241 512q27 -3 50 -11t40 -22.5t27 -34.5t10 -47q0 -33 -14 -58.5t-37 -42.5t-54 -26t-65 -9q-39 0 -75.5 5.5t-68.5 21.5l21 58q42 -13 70 -15.5t46 -2.5 q42 0 67.5 18.5t25.5 50.5q0 28 -23.5 45t-71.5 17q-13 0 -24 -1t-24 -3l-13 40q30 28 61.5 55.5t60.5 53.5h-111v-49h-66v111h275q3 -11 5.5 -22t6.5 -22zM327 -21h-67l303 725h66zM656 314q-31 -40 -61.5 -75t-56.5 -70h118v145z" />
<glyph unicode="&#xbf;" horiz-adv-x="464" d="M125 74q31 25 54.5 46.5t40 41t25 39t8.5 41.5q0 14 -2.5 28.5t-4.5 34.5q22 2 42.5 3.5t43.5 3.5q5 -27 7.5 -47.5t2.5 -35.5q0 -32 -9.5 -58.5t-27 -50t-41 -46.5t-50.5 -48q-26 -23 -41.5 -43t-15.5 -48q0 -38 27.5 -55t72.5 -17q23 0 48.5 3t51.5 11v87h80v-149 q-53 -20 -104 -27.5t-90 -7.5q-95 0 -146.5 37t-51.5 102q0 53 21 88t59 67zM211 436q0 26 18 43.5t43 17.5q26 0 44.5 -18t18.5 -43q0 -23 -18 -41t-44 -18t-44 17t-18 42z" />
<glyph unicode="&#xc0;" horiz-adv-x="697" d="M510 76q-8 26 -18 57.5t-18 55.5h-257q-7 -21 -17 -53t-18 -60h68v-76h-230v76h56l207 610h137q49 -149 101 -305t101 -305h56v-76h-234v76h66zM451 265q-20 68 -41 134.5t-43 134.5q-4 15 -8.5 30t-9.5 30h-2l-19 -61q-9 -27 -20 -61.5t-23 -71t-23 -72t-19 -63.5h208z M186 871l62 63l134 -165l-40 -37z" />
<glyph unicode="&#xc1;" horiz-adv-x="697" d="M510 76q-8 26 -18 57.5t-18 55.5h-257q-7 -21 -17 -53t-18 -60h68v-76h-230v76h56l207 610h137q49 -149 101 -305t101 -305h56v-76h-234v76h66zM451 265q-20 68 -41 134.5t-43 134.5q-4 15 -8.5 30t-9.5 30h-2l-19 -61q-9 -27 -20 -61.5t-23 -71t-23 -72t-19 -63.5h208z M360 732l-40 38l134 164l64 -63z" />
<glyph unicode="&#xc2;" horiz-adv-x="697" d="M510 76q-8 26 -18 57.5t-18 55.5h-257q-7 -21 -17 -53t-18 -60h68v-76h-230v76h56l207 610h137q49 -149 101 -305t101 -305h56v-76h-234v76h66zM451 265q-20 68 -41 134.5t-43 134.5q-4 15 -8.5 30t-9.5 30h-2l-19 -61q-9 -27 -20 -61.5t-23 -71t-23 -72t-19 -63.5h208z M505 733l-159 99l-158 -100l-27 33l151 142h69l154 -140z" />
<glyph unicode="&#xc3;" horiz-adv-x="697" d="M510 76q-8 26 -18 57.5t-18 55.5h-257q-7 -21 -17 -53t-18 -60h68v-76h-230v76h56l207 610h137q49 -149 101 -305t101 -305h56v-76h-234v76h66zM451 265q-20 68 -41 134.5t-43 134.5q-4 15 -8.5 30t-9.5 30h-2l-19 -61q-9 -27 -20 -61.5t-23 -71t-23 -72t-19 -63.5h208z M424 760q-24 0 -46 6t-41.5 13.5t-37 13.5t-32.5 6l-57 -39l-33 26q14 40 38.5 61t55.5 21q19 0 40 -6t41.5 -13t40 -13t34.5 -6l56 40l33 -26q-13 -38 -36.5 -61t-55.5 -23z" />
<glyph unicode="&#xc4;" horiz-adv-x="697" d="M510 76q-8 26 -18 57.5t-18 55.5h-257q-7 -21 -17 -53t-18 -60h68v-76h-230v76h56l207 610h137q49 -149 101 -305t101 -305h56v-76h-234v76h66zM451 265q-20 68 -41 134.5t-43 134.5q-4 15 -8.5 30t-9.5 30h-2l-19 -61q-9 -27 -20 -61.5t-23 -71t-23 -72t-19 -63.5h208z M310 781q0 -23 -15.5 -37t-37.5 -14q-23 0 -38 14t-15 37q0 22 15.5 37t35.5 15q23 0 39 -14.5t16 -37.5zM501 781q0 -23 -16 -37t-40 -14q-21 0 -35 14t-14 37q0 22 14.5 37t34.5 15q24 0 40 -14.5t16 -37.5z" />
<glyph unicode="&#xc5;" horiz-adv-x="697" d="M510 76q-8 26 -18 57.5t-18 55.5h-257q-7 -21 -17 -53t-18 -60h68v-76h-230v76h56l207 610h137q49 -149 101 -305t101 -305h56v-76h-234v76h66zM344 742q-24 0 -45.5 9t-37 24t-24.5 35t-9 43q0 22 9 42t24.5 35.5t37 24.5t45.5 9t44.5 -9t35.5 -24t23.5 -35.5t8.5 -42.5 q0 -24 -9 -44t-24 -35t-35.5 -23.5t-43.5 -8.5zM451 265q-20 68 -41 134.5t-43 134.5q-4 15 -8.5 30t-9.5 30h-2l-19 -61q-9 -27 -20 -61.5t-23 -71t-23 -72t-19 -63.5h208zM344 909q-25 0 -42 -17.5t-17 -41.5q0 -22 16.5 -39t42.5 -17q23 0 39 17t16 39q0 23 -15.5 41 t-39.5 18z" />
<glyph unicode="&#xc6;" horiz-adv-x="985" d="M509 205h-250l-80 -130h68v-75h-241v75h59l334 534h-55v76h587v-173h-81v99h-231v-218l217 5v-79l-217 4v-248h244v102h82v-177h-505v75h69v130zM302 280h207v325h-5z" />
<glyph unicode="&#xc7;" horiz-adv-x="593" d="M165 341q0 -60 10 -108t34.5 -82t66 -52t104.5 -18q13 0 32.5 1t41.5 4t45 7t43 10l18 -78q-34 -13 -81.5 -22t-93.5 -11q-13 -17 -26.5 -34.5t-26.5 -35.5q49 -2 78.5 -22.5t29.5 -61.5q-1 -21 -12 -39.5t-33.5 -32.5t-57 -22t-81.5 -8v41q54 5 85 19t31 38q0 13 -9 21 t-23 12t-31.5 5t-34.5 1l-14 21q19 25 37 49.5t37 48.5q-80 3 -134.5 30.5t-87.5 73.5t-47.5 108.5t-14.5 135.5q0 57 13.5 120.5t48.5 116t96 87t156 34.5q56 0 100 -8t78 -20v-174h-80v105q-23 6 -48 8.5t-47 2.5q-54 0 -92 -19.5t-62.5 -55t-36 -85.5t-11.5 -111z" />
<glyph unicode="&#xc8;" horiz-adv-x="607" d="M42 0v78h68v530h-66v77h519v-179h-81v102h-262v-215l243 5v-79l-243 4v-245h275v105h82v-183h-535zM186 871l62 63l134 -165l-40 -37z" />
<glyph unicode="&#xc9;" horiz-adv-x="607" d="M42 0v78h68v530h-66v77h519v-179h-81v102h-262v-215l243 5v-79l-243 4v-245h275v105h82v-183h-535zM314 732l-40 38l134 164l64 -63z" />
<glyph unicode="&#xca;" horiz-adv-x="607" d="M42 0v78h68v530h-66v77h519v-179h-81v102h-262v-215l243 5v-79l-243 4v-245h275v105h82v-183h-535zM483 733l-159 99l-158 -100l-27 33l151 142h69l154 -140z" />
<glyph unicode="&#xcb;" horiz-adv-x="607" d="M42 0v78h68v530h-66v77h519v-179h-81v102h-262v-215l243 5v-79l-243 4v-245h275v105h82v-183h-535zM474 781q0 -23 -16 -37t-40 -14q-21 0 -35 14t-14 37q0 22 14.5 37t34.5 15q24 0 40 -14.5t16 -37.5zM283 781q0 -23 -15.5 -37t-37.5 -14q-23 0 -38 14t-15 37 q0 22 15.5 37t35.5 15q23 0 39 -14.5t16 -37.5z" />
<glyph unicode="&#xcc;" horiz-adv-x="381" d="M70 0v77h65v531h-65v78h241v-78h-66v-531h66v-77h-241zM37 871l62 63l134 -165l-40 -37z" />
<glyph unicode="&#xcd;" horiz-adv-x="381" d="M70 0v77h65v531h-65v78h241v-78h-66v-531h66v-77h-241zM196 732l-40 38l134 164l64 -63z" />
<glyph unicode="&#xce;" horiz-adv-x="381" d="M70 0v77h65v531h-65v78h241v-78h-66v-531h66v-77h-241zM349 733l-159 99l-158 -100l-27 33l151 142h69l154 -140z" />
<glyph unicode="&#xcf;" horiz-adv-x="381" d="M70 0v77h65v531h-65v78h241v-78h-66v-531h66v-77h-241zM339 781q0 -23 -16 -37t-40 -14q-21 0 -35 14t-14 37q0 22 14.5 37t34.5 15q24 0 40 -14.5t16 -37.5zM148 781q0 -23 -15.5 -37t-37.5 -14q-23 0 -38 14t-15 37q0 22 15.5 37t35.5 15q23 0 39 -14.5t16 -37.5z" />
<glyph unicode="&#xd0;" horiz-adv-x="692" d="M42 0v75h70v262h-66v55h66v219h-66v75h304q87 0 143.5 -27.5t89.5 -74.5t46 -108.5t13 -130.5q0 -70 -14.5 -132.5t-49 -110t-92 -75t-143.5 -27.5h-301zM224 611v-219h133v-55h-133v-261h106q25 0 59 8t64.5 35t52 79t21.5 141q0 90 -19.5 144t-48.5 82.5t-63 37 t-62 8.5h-110z" />
<glyph unicode="&#xd1;" horiz-adv-x="770" d="M558 169v439h-69v77h238v-77h-66v-608h-106l-160 246q-30 46 -60.5 92.5t-60.5 94.5q-15 24 -30 48.5t-31 48.5q-1 0 -1 -0.5t-1 -0.5v-453h68q0 -19 0.5 -38t0.5 -38h-240q0 19 -0.5 38t-0.5 38h69q0 134 0.5 266t0.5 266h-69v77h186q48 -75 83.5 -131.5t64.5 -100.5 l111 -175l34 -54t34 -55h5zM469 763q-24 0 -46 6t-41.5 13.5t-37 13.5t-32.5 6l-57 -39l-33 26q14 40 38.5 61t55.5 21q19 0 40 -6t41.5 -13t40 -13t34.5 -6l56 40l33 -26q-13 -38 -36.5 -61t-55.5 -23z" />
<glyph unicode="&#xd2;" horiz-adv-x="705" d="M655 342q0 -75 -19 -139t-56.5 -111.5t-93.5 -74t-130 -26.5q-81 0 -139 25t-95 70.5t-54.5 109.5t-17.5 143q0 72 16.5 137t53.5 114t95 78t141 29q84 0 141.5 -29t92.5 -77.5t50 -113t15 -135.5zM539 339q0 49 -7 98.5t-27 88.5t-56 63.5t-93 24.5t-94 -23t-58.5 -61.5 t-30 -88.5t-8.5 -103q0 -129 44.5 -196.5t146.5 -67.5q48 0 82.5 20.5t57 56t33 84t10.5 104.5zM196 871l62 63l134 -165l-40 -37z" />
<glyph unicode="&#xd3;" horiz-adv-x="705" d="M655 342q0 -75 -19 -139t-56.5 -111.5t-93.5 -74t-130 -26.5q-81 0 -139 25t-95 70.5t-54.5 109.5t-17.5 143q0 72 16.5 137t53.5 114t95 78t141 29q84 0 141.5 -29t92.5 -77.5t50 -113t15 -135.5zM539 339q0 49 -7 98.5t-27 88.5t-56 63.5t-93 24.5t-94 -23t-58.5 -61.5 t-30 -88.5t-8.5 -103q0 -129 44.5 -196.5t146.5 -67.5q48 0 82.5 20.5t57 56t33 84t10.5 104.5zM354 732l-40 38l134 164l64 -63z" />
<glyph unicode="&#xd4;" horiz-adv-x="705" d="M655 342q0 -75 -19 -139t-56.5 -111.5t-93.5 -74t-130 -26.5q-81 0 -139 25t-95 70.5t-54.5 109.5t-17.5 143q0 72 16.5 137t53.5 114t95 78t141 29q84 0 141.5 -29t92.5 -77.5t50 -113t15 -135.5zM539 339q0 49 -7 98.5t-27 88.5t-56 63.5t-93 24.5t-94 -23t-58.5 -61.5 t-30 -88.5t-8.5 -103q0 -129 44.5 -196.5t146.5 -67.5q48 0 82.5 20.5t57 56t33 84t10.5 104.5zM514 733l-159 99l-158 -100l-27 33l151 142h69l154 -140z" />
<glyph unicode="&#xd5;" horiz-adv-x="705" d="M655 342q0 -75 -19 -139t-56.5 -111.5t-93.5 -74t-130 -26.5q-81 0 -139 25t-95 70.5t-54.5 109.5t-17.5 143q0 72 16.5 137t53.5 114t95 78t141 29q84 0 141.5 -29t92.5 -77.5t50 -113t15 -135.5zM539 339q0 49 -7 98.5t-27 88.5t-56 63.5t-93 24.5t-94 -23t-58.5 -61.5 t-30 -88.5t-8.5 -103q0 -129 44.5 -196.5t146.5 -67.5q48 0 82.5 20.5t57 56t33 84t10.5 104.5zM443 765q-24 0 -46 6t-41.5 13.5t-37 13.5t-32.5 6l-57 -39l-33 26q14 40 38.5 61t55.5 21q19 0 40 -6t41.5 -13t40 -13t34.5 -6l56 40l33 -26q-13 -38 -36.5 -61t-55.5 -23z " />
<glyph unicode="&#xd6;" horiz-adv-x="705" d="M655 342q0 -75 -19 -139t-56.5 -111.5t-93.5 -74t-130 -26.5q-81 0 -139 25t-95 70.5t-54.5 109.5t-17.5 143q0 72 16.5 137t53.5 114t95 78t141 29q84 0 141.5 -29t92.5 -77.5t50 -113t15 -135.5zM539 339q0 49 -7 98.5t-27 88.5t-56 63.5t-93 24.5t-94 -23t-58.5 -61.5 t-30 -88.5t-8.5 -103q0 -129 44.5 -196.5t146.5 -67.5q48 0 82.5 20.5t57 56t33 84t10.5 104.5zM501 781q0 -23 -16 -37t-40 -14q-21 0 -35 14t-14 37q0 22 14.5 37t34.5 15q24 0 40 -14.5t16 -37.5zM310 781q0 -23 -15.5 -37t-37.5 -14q-23 0 -38 14t-15 37q0 22 15.5 37 t35.5 15q23 0 39 -14.5t16 -37.5z" />
<glyph unicode="&#xd7;" horiz-adv-x="575" d="M292 243l-130 -130l-50 51l130 129l-128 128l49 49l127 -129l125 127l51 -51l-125 -126l127 -126l-49 -50z" />
<glyph unicode="&#xd8;" horiz-adv-x="705" d="M655 342q0 -75 -19 -139t-56.5 -111.5t-93.5 -74t-130 -26.5q-68 0 -118.5 17t-86.5 49l-50 -64h-54l74 94q-37 46 -54 109.5t-17 142.5q0 72 16.5 137t53.5 114t95 78t141 29q64 0 111.5 -16.5t82.5 -47.5l50 66h58l-77 -96q40 -51 57 -118.5t17 -142.5zM539 339 q0 45 -7 91t-25 84l-293 -381q24 -31 58.5 -46t83.5 -15q48 0 82.5 20.5t57 56.5t33 85t10.5 105zM165 338q0 -104 29 -162l292 380q-21 28 -52.5 44.5t-77.5 16.5q-57 0 -94 -23.5t-58.5 -62.5t-30 -89.5t-8.5 -103.5z" />
<glyph unicode="&#xd9;" horiz-adv-x="728" d="M635 249q0 -118 -66.5 -187.5t-205.5 -69.5q-72 0 -123.5 17.5t-84.5 50.5t-48.5 81t-15.5 108v359h-59v78h235v-78h-68v-358q0 -88 42.5 -131t122.5 -43q78 0 121 42t43 132v358h-67v78h235v-78h-61v-359zM210 871l62 63l134 -165l-40 -37z" />
<glyph unicode="&#xda;" horiz-adv-x="728" d="M635 249q0 -118 -66.5 -187.5t-205.5 -69.5q-72 0 -123.5 17.5t-84.5 50.5t-48.5 81t-15.5 108v359h-59v78h235v-78h-68v-358q0 -88 42.5 -131t122.5 -43q78 0 121 42t43 132v358h-67v78h235v-78h-61v-359zM372 732l-40 38l134 164l64 -63z" />
<glyph unicode="&#xdb;" horiz-adv-x="728" d="M635 249q0 -118 -66.5 -187.5t-205.5 -69.5q-72 0 -123.5 17.5t-84.5 50.5t-48.5 81t-15.5 108v359h-59v78h235v-78h-68v-358q0 -88 42.5 -131t122.5 -43q78 0 121 42t43 132v358h-67v78h235v-78h-61v-359zM531 733l-165 97l-164 -98l-28 33l157 139h72l160 -137z" />
<glyph unicode="&#xdc;" horiz-adv-x="728" d="M635 249q0 -118 -66.5 -187.5t-205.5 -69.5q-72 0 -123.5 17.5t-84.5 50.5t-48.5 81t-15.5 108v359h-59v78h235v-78h-68v-358q0 -88 42.5 -131t122.5 -43q78 0 121 42t43 132v358h-67v78h235v-78h-61v-359zM515 781q0 -23 -16 -37t-40 -14q-21 0 -35 14t-14 37 q0 22 14.5 37t34.5 15q24 0 40 -14.5t16 -37.5zM324 781q0 -23 -15.5 -37t-37.5 -14q-23 0 -38 14t-15 37q0 22 15.5 37t35.5 15q23 0 39 -14.5t16 -37.5z" />
<glyph unicode="&#xdd;" horiz-adv-x="621" d="M445 607h-59v79h224v-79h-56l-189 -320v-210h80v-77h-273v77h80v207l-185 323h-55v79h227v-79h-58l128 -241h4zM317 731l-40 38l134 164l64 -63z" />
<glyph unicode="&#xde;" horiz-adv-x="598" d="M218 545h130q105 0 164 -47.5t59 -141.5q0 -33 -11 -68t-35.5 -63.5t-65.5 -47t-101 -17.5h-140v-89h78v-71h-256v71h68v541h-68v74h256v-74h-78v-67zM218 478v-251h118q24 0 46 6.5t38.5 21.5t26.5 39t10 59q0 65 -35.5 95t-89.5 30h-114z" />
<glyph unicode="&#xdf;" horiz-adv-x="619" d="M481 120q0 24 -8.5 42t-21.5 33t-29 28t-31 27q-18 17 -36.5 34.5t-33.5 36.5t-24.5 39t-9.5 42q0 29 16 51.5t35 42.5t35 39t16 42q0 7 -2.5 19t-11.5 23.5t-27 20t-49 8.5q-27 0 -45.5 -8.5t-30 -23.5t-17 -35t-5.5 -42v-539h-179v73h73v308h-69v64h69v74q0 12 1.5 32 t7.5 43t18.5 46.5t35.5 42.5t57.5 31t84.5 12q56 0 92.5 -14t57.5 -34.5t29.5 -43.5t8.5 -42q0 -37 -16.5 -63.5t-36 -47.5t-35.5 -38.5t-16 -36.5q0 -24 22.5 -48t56.5 -49q24 -18 46 -35t39 -38t27 -47t10 -61q0 -28 -10.5 -53.5t-32.5 -45t-55.5 -31t-79.5 -11.5 q-38 0 -77 6.5t-68 17.5v126h67v-66q26 -8 45 -10.5t32 -2.5q35 0 55 17.5t20 44.5z" />
<glyph unicode="&#xe0;" horiz-adv-x="537" d="M230 220q-42 -3 -64 -24.5t-22 -52.5q0 -39 19 -57.5t62 -18.5q27 0 58.5 14t55.5 37v110zM442 75h76l6 -60q-10 -6 -25 -10t-31 -6.5t-31 -3.5t-25 -1q-29 0 -47.5 11t-19.5 50q-1 0 -1 0.5t-1 0.5q-27 -24 -52 -37t-46.5 -19.5t-38.5 -7.5t-28 -1q-44 0 -72 14 t-44.5 35t-22.5 46t-6 46q0 30 10.5 55t33.5 44t59 31.5t87 15.5l118 8v29q0 55 -21 78t-77 23q-36 0 -75.5 -7t-74.5 -19l-10 34l-10 34q42 19 94.5 29t100.5 10q82 0 128 -36.5t46 -128.5v-257zM136 673l63 63l134 -165l-39 -37z" />
<glyph unicode="&#xe1;" horiz-adv-x="537" d="M230 220q-42 -3 -64 -24.5t-22 -52.5q0 -39 19 -57.5t62 -18.5q27 0 58.5 14t55.5 37v110zM442 75h76l6 -60q-10 -6 -25 -10t-31 -6.5t-31 -3.5t-25 -1q-29 0 -47.5 11t-19.5 50q-1 0 -1 0.5t-1 0.5q-27 -24 -52 -37t-46.5 -19.5t-38.5 -7.5t-28 -1q-44 0 -72 14 t-44.5 35t-22.5 46t-6 46q0 30 10.5 55t33.5 44t59 31.5t87 15.5l118 8v29q0 55 -21 78t-77 23q-36 0 -75.5 -7t-74.5 -19l-10 34l-10 34q42 19 94.5 29t100.5 10q82 0 128 -36.5t46 -128.5v-257zM240 534l-40 37l133 165l64 -63z" />
<glyph unicode="&#xe2;" horiz-adv-x="537" d="M230 220q-42 -3 -64 -24.5t-22 -52.5q0 -39 19 -57.5t62 -18.5q27 0 58.5 14t55.5 37v110zM442 75h76l6 -60q-10 -6 -25 -10t-31 -6.5t-31 -3.5t-25 -1q-29 0 -47.5 11t-19.5 50q-1 0 -1 0.5t-1 0.5q-27 -24 -52 -37t-46.5 -19.5t-38.5 -7.5t-28 -1q-44 0 -72 14 t-44.5 35t-22.5 46t-6 46q0 30 10.5 55t33.5 44t59 31.5t87 15.5l118 8v29q0 55 -21 78t-77 23q-36 0 -75.5 -7t-74.5 -19l-10 34l-10 34q42 19 94.5 29t100.5 10q82 0 128 -36.5t46 -128.5v-257zM421 531l-159 100l-158 -100l-28 33l152 146h69l153 -145z" />
<glyph unicode="&#xe3;" horiz-adv-x="537" d="M230 220q-42 -3 -64 -24.5t-22 -52.5q0 -39 19 -57.5t62 -18.5q27 0 58.5 14t55.5 37v110zM442 75h76l6 -60q-10 -6 -25 -10t-31 -6.5t-31 -3.5t-25 -1q-29 0 -47.5 11t-19.5 50q-1 0 -1 0.5t-1 0.5q-27 -24 -52 -37t-46.5 -19.5t-38.5 -7.5t-28 -1q-44 0 -72 14 t-44.5 35t-22.5 46t-6 46q0 30 10.5 55t33.5 44t59 31.5t87 15.5l118 8v29q0 55 -21 78t-77 23q-36 0 -75.5 -7t-74.5 -19l-10 34l-10 34q42 19 94.5 29t100.5 10q82 0 128 -36.5t46 -128.5v-257zM343 570q-24 0 -46 6t-41.5 13.5t-37 13.5t-32.5 6l-57 -39l-33 26 q14 40 38.5 61t55.5 21q19 0 40 -6t41.5 -13t40 -13t34.5 -6l56 40l33 -26q-13 -38 -36.5 -61t-55.5 -23z" />
<glyph unicode="&#xe4;" horiz-adv-x="537" d="M230 220q-42 -3 -64 -24.5t-22 -52.5q0 -39 19 -57.5t62 -18.5q27 0 58.5 14t55.5 37v110zM442 75h76l6 -60q-10 -6 -25 -10t-31 -6.5t-31 -3.5t-25 -1q-29 0 -47.5 11t-19.5 50q-1 0 -1 0.5t-1 0.5q-27 -24 -52 -37t-46.5 -19.5t-38.5 -7.5t-28 -1q-44 0 -72 14 t-44.5 35t-22.5 46t-6 46q0 30 10.5 55t33.5 44t59 31.5t87 15.5l118 8v29q0 55 -21 78t-77 23q-36 0 -75.5 -7t-74.5 -19l-10 34l-10 34q42 19 94.5 29t100.5 10q82 0 128 -36.5t46 -128.5v-257zM423 605q0 -21 -15.5 -35.5t-38.5 -14.5q-21 0 -35 14.5t-14 35.5t14.5 35.5 t34.5 14.5q23 0 38.5 -14t15.5 -36zM230 605q0 -21 -14.5 -35.5t-37.5 -14.5q-22 0 -36.5 14.5t-14.5 35.5t15 35.5t35 14.5q23 0 38 -14t15 -36z" />
<glyph unicode="&#xe5;" horiz-adv-x="537" d="M230 220q-42 -3 -64 -24.5t-22 -52.5q0 -39 19 -57.5t62 -18.5q27 0 58.5 14t55.5 37v110zM442 75h76l6 -60q-10 -6 -25 -10t-31 -6.5t-31 -3.5t-25 -1q-29 0 -47.5 11t-19.5 50q-1 0 -1 0.5t-1 0.5q-27 -24 -52 -37t-46.5 -19.5t-38.5 -7.5t-28 -1q-44 0 -72 14 t-44.5 35t-22.5 46t-6 46q0 30 10.5 55t33.5 44t59 31.5t87 15.5l118 8v29q0 55 -21 78t-77 23q-36 0 -75.5 -7t-74.5 -19l-10 34l-10 34q42 19 94.5 29t100.5 10q82 0 128 -36.5t46 -128.5v-257zM264 550q-24 0 -45.5 9t-37 24t-24.5 35t-9 43q0 22 9 42t24.5 35.5t37 24.5 t45.5 9t44.5 -9t35.5 -24t23.5 -35.5t8.5 -42.5q0 -24 -9 -44t-24 -35t-35.5 -23.5t-43.5 -8.5zM264 717q-25 0 -42 -17.5t-17 -41.5q0 -22 16.5 -39t42.5 -17q23 0 39 17t16 39q0 23 -15.5 41t-39.5 18z" />
<glyph unicode="&#xe6;" horiz-adv-x="809" d="M575 500q71 0 111 -26.5t60 -64t25 -77.5t5 -67v-39h-318q0 -33 6 -61t21 -48.5t40.5 -32.5t63.5 -12q41 0 76.5 8t75.5 24l22 -65q-45 -24 -92 -35t-95 -11q-71 0 -112.5 19.5t-66.5 55.5q-36 -28 -68 -43.5t-59.5 -23t-49.5 -9t-37 -1.5q-46 0 -75 14.5t-46 35.5 t-23.5 45.5t-6.5 45.5q0 29 10.5 56t32 47.5t55 32.5t79.5 12h144v36q0 57 -26 79t-83 22q-40 0 -79.5 -7t-74.5 -19l-20 68q42 19 95 29.5t101 10.5q49 0 90.5 -17t59.5 -57q24 33 62.5 54t96.5 21zM227 63q12 0 30 3.5t37.5 11t39.5 17.5t35 24q-8 24 -12 50.5t-5 55.5 h-112q-48 0 -72.5 -21.5t-24.5 -58.5q0 -82 84 -82zM575 423q-31 0 -52 -12t-34.5 -31.5t-20 -45.5t-8.5 -54h219q0 32 -5 58.5t-17 45t-32 29t-50 10.5z" />
<glyph unicode="&#xe7;" horiz-adv-x="471" d="M272 500q41 0 79 -6.5t70 -19.5v-137h-76v71q-9 2 -21.5 3.5t-21.5 1.5q-82 0 -118.5 -40.5t-36.5 -131.5q0 -86 33.5 -127t98.5 -41q37 0 71 7t69 21l23 -70q-32 -17 -74.5 -27t-87.5 -12l-20 -26t-19 -27q49 -2 78.5 -22.5t29.5 -61.5q-1 -21 -12 -39.5t-33.5 -32.5 t-57 -22t-81.5 -8v41q54 5 85 19t31 38q0 13 -9 21t-23 12t-31.5 5t-34.5 1l-14 21l63 83q-56 5 -93 25.5t-59 53.5t-31 75.5t-9 90.5q0 40 9 86t34.5 85t71 64.5t117.5 25.5z" />
<glyph unicode="&#xe8;" horiz-adv-x="505" d="M264 422q-29 0 -50 -11.5t-34.5 -30t-21 -42t-8.5 -47.5h218q-1 27 -6 50.5t-17 41.5t-31.5 28.5t-49.5 10.5zM265 500q71 0 111.5 -26.5t61 -64t25.5 -77.5t5 -67v-48h-320q0 -33 6 -60t21 -46t40.5 -29.5t63.5 -10.5q42 0 77 8t75 25l27 -67q-46 -24 -94.5 -35 t-97.5 -11q-69 0 -112.5 21t-69 56t-35 80.5t-9.5 94.5q0 36 9 80.5t34 84t69 66t113 26.5zM116 673l63 63l134 -165l-39 -37z" />
<glyph unicode="&#xe9;" horiz-adv-x="505" d="M264 422q-29 0 -50 -11.5t-34.5 -30t-21 -42t-8.5 -47.5h218q-1 27 -6 50.5t-17 41.5t-31.5 28.5t-49.5 10.5zM265 500q71 0 111.5 -26.5t61 -64t25.5 -77.5t5 -67v-48h-320q0 -33 6 -60t21 -46t40.5 -29.5t63.5 -10.5q42 0 77 8t75 25l27 -67q-46 -24 -94.5 -35 t-97.5 -11q-69 0 -112.5 21t-69 56t-35 80.5t-9.5 94.5q0 36 9 80.5t34 84t69 66t113 26.5zM247 534l-40 37l133 165l64 -63z" />
<glyph unicode="&#xea;" horiz-adv-x="505" d="M264 422q-29 0 -50 -11.5t-34.5 -30t-21 -42t-8.5 -47.5h218q-1 27 -6 50.5t-17 41.5t-31.5 28.5t-49.5 10.5zM265 500q71 0 111.5 -26.5t61 -64t25.5 -77.5t5 -67v-48h-320q0 -33 6 -60t21 -46t40.5 -29.5t63.5 -10.5q42 0 77 8t75 25l27 -67q-46 -24 -94.5 -35 t-97.5 -11q-69 0 -112.5 21t-69 56t-35 80.5t-9.5 94.5q0 36 9 80.5t34 84t69 66t113 26.5zM424 531l-159 100l-158 -100l-28 33l152 146h69l153 -145z" />
<glyph unicode="&#xeb;" horiz-adv-x="505" d="M264 422q-29 0 -50 -11.5t-34.5 -30t-21 -42t-8.5 -47.5h218q-1 27 -6 50.5t-17 41.5t-31.5 28.5t-49.5 10.5zM265 500q71 0 111.5 -26.5t61 -64t25.5 -77.5t5 -67v-48h-320q0 -33 6 -60t21 -46t40.5 -29.5t63.5 -10.5q42 0 77 8t75 25l27 -67q-46 -24 -94.5 -35 t-97.5 -11q-69 0 -112.5 21t-69 56t-35 80.5t-9.5 94.5q0 36 9 80.5t34 84t69 66t113 26.5zM412 605q0 -21 -15.5 -35.5t-38.5 -14.5q-21 0 -35 14.5t-14 35.5t14.5 35.5t34.5 14.5q23 0 38.5 -14t15.5 -36zM219 605q0 -21 -14.5 -35.5t-37.5 -14.5q-22 0 -36.5 14.5 t-14.5 35.5t15 35.5t35 14.5q23 0 38 -14t15 -36z" />
<glyph unicode="&#xec;" horiz-adv-x="315" d="M49 417v72h161v-412h72v-64q-21 -10 -48.5 -15t-47.5 -5q-43 0 -61.5 17.5t-19.5 61.5v345h-56zM2 673l63 63l134 -165l-39 -37z" />
<glyph unicode="&#xed;" horiz-adv-x="315" d="M49 417v72h161v-412h72v-64q-21 -10 -48.5 -15t-47.5 -5q-43 0 -61.5 17.5t-19.5 61.5v345h-56zM129 534l-40 37l133 165l64 -63z" />
<glyph unicode="&#xee;" horiz-adv-x="334" d="M59 417v72h161v-412h72v-64q-21 -10 -48.5 -15t-47.5 -5q-43 0 -61.5 17.5t-19.5 61.5v345h-56zM325 531l-159 100l-158 -100l-28 33l152 146h69l153 -145z" />
<glyph unicode="&#xef;" horiz-adv-x="315" d="M49 417v72h161v-412h72v-64q-21 -10 -48.5 -15t-47.5 -5q-43 0 -61.5 17.5t-19.5 61.5v345h-56zM301 605q0 -21 -15.5 -35.5t-38.5 -14.5q-21 0 -35 14.5t-14 35.5t14.5 35.5t34.5 14.5q23 0 38.5 -14t15.5 -36zM108 605q0 -21 -14.5 -35.5t-37.5 -14.5q-22 0 -36.5 14.5 t-14.5 35.5t15 35.5t35 14.5q23 0 38 -14t15 -36z" />
<glyph unicode="&#xf0;" horiz-adv-x="540" d="M426 702l26 -36l-81 -54q67 -69 99.5 -158t28.5 -194q-1 -44 -12 -91t-37 -86.5t-71.5 -65t-115.5 -25.5q-67 0 -110 21t-67.5 53.5t-34 72.5t-9.5 78q0 46 14 88.5t42 75.5t68 53t93 20q26 0 57 -5.5t60 -21.5q-27 81 -75 138l-90 -61l-26 36l85 57q-44 42 -98 78l31 56 q76 -36 134 -88zM270 379q-34 0 -57.5 -14.5t-38 -37t-21 -51t-6.5 -55.5q0 -25 4 -51.5t17 -49t37 -37t64 -14.5q39 0 63.5 18.5t38 45.5t18.5 59t5 59q0 25 -2.5 46.5t-7.5 47.5q-32 21 -61.5 27.5t-52.5 6.5z" />
<glyph unicode="&#xf1;" horiz-adv-x="611" d="M365 500q53 0 83 -17.5t44.5 -42.5t18 -53.5t3.5 -49.5v-261h74v-63q-21 -10 -50 -14.5t-49 -4.5q-30 0 -46 9.5t-24 22.5t-9.5 26t-1.5 21v244q0 25 -3 43t-11 30t-24 18t-41 6q-31 0 -67.5 -14t-64.5 -31v-369h-106v413h-70v76h176v-43l5 -1q42 27 84 41t79 14z M361 581q-24 0 -46 6t-41.5 13.5t-37 13.5t-32.5 6l-57 -39l-33 26q14 40 38.5 61t55.5 21q19 0 40 -6t41.5 -13t40 -13t34.5 -6l56 40l33 -26q-13 -38 -36.5 -61t-55.5 -23z" />
<glyph unicode="&#xf2;" horiz-adv-x="538" d="M498 244q0 -49 -12 -94.5t-39.5 -80.5t-72 -56t-110.5 -21q-62 0 -104.5 20t-69 54.5t-38.5 79.5t-12 96q0 50 13 96.5t41 82t72 57t106 21.5q63 0 106.5 -21.5t70 -56.5t38 -81.5t11.5 -95.5zM389 242q0 31 -4.5 62.5t-17 57t-35 41.5t-58.5 16q-37 0 -61 -15.5 t-38 -40.5t-19.5 -56.5t-5.5 -64.5q0 -34 4.5 -65t17.5 -54.5t36.5 -37.5t62.5 -14q36 0 59 15t36 39t18 54.5t5 62.5zM120 673l63 63l134 -165l-39 -37z" />
<glyph unicode="&#xf3;" horiz-adv-x="538" d="M498 244q0 -49 -12 -94.5t-39.5 -80.5t-72 -56t-110.5 -21q-62 0 -104.5 20t-69 54.5t-38.5 79.5t-12 96q0 50 13 96.5t41 82t72 57t106 21.5q63 0 106.5 -21.5t70 -56.5t38 -81.5t11.5 -95.5zM389 242q0 31 -4.5 62.5t-17 57t-35 41.5t-58.5 16q-37 0 -61 -15.5 t-38 -40.5t-19.5 -56.5t-5.5 -64.5q0 -34 4.5 -65t17.5 -54.5t36.5 -37.5t62.5 -14q36 0 59 15t36 39t18 54.5t5 62.5zM254 534l-40 37l133 165l64 -63z" />
<glyph unicode="&#xf4;" horiz-adv-x="538" d="M498 244q0 -49 -12 -94.5t-39.5 -80.5t-72 -56t-110.5 -21q-62 0 -104.5 20t-69 54.5t-38.5 79.5t-12 96q0 50 13 96.5t41 82t72 57t106 21.5q63 0 106.5 -21.5t70 -56.5t38 -81.5t11.5 -95.5zM389 242q0 31 -4.5 62.5t-17 57t-35 41.5t-58.5 16q-37 0 -61 -15.5 t-38 -40.5t-19.5 -56.5t-5.5 -64.5q0 -34 4.5 -65t17.5 -54.5t36.5 -37.5t62.5 -14q36 0 59 15t36 39t18 54.5t5 62.5zM430 531l-159 100l-158 -100l-28 33l152 146h69l153 -145z" />
<glyph unicode="&#xf5;" horiz-adv-x="538" d="M498 244q0 -49 -12 -94.5t-39.5 -80.5t-72 -56t-110.5 -21q-62 0 -104.5 20t-69 54.5t-38.5 79.5t-12 96q0 50 13 96.5t41 82t72 57t106 21.5q63 0 106.5 -21.5t70 -56.5t38 -81.5t11.5 -95.5zM389 242q0 31 -4.5 62.5t-17 57t-35 41.5t-58.5 16q-37 0 -61 -15.5 t-38 -40.5t-19.5 -56.5t-5.5 -64.5q0 -34 4.5 -65t17.5 -54.5t36.5 -37.5t62.5 -14q36 0 59 15t36 39t18 54.5t5 62.5zM357 568q-24 0 -46 6t-41.5 13.5t-37 13.5t-32.5 6l-57 -39l-33 26q14 40 38.5 61t55.5 21q19 0 40 -6t41.5 -13t40 -13t34.5 -6l56 40l33 -26 q-13 -38 -36.5 -61t-55.5 -23z" />
<glyph unicode="&#xf6;" horiz-adv-x="538" d="M498 244q0 -49 -12 -94.5t-39.5 -80.5t-72 -56t-110.5 -21q-62 0 -104.5 20t-69 54.5t-38.5 79.5t-12 96q0 50 13 96.5t41 82t72 57t106 21.5q63 0 106.5 -21.5t70 -56.5t38 -81.5t11.5 -95.5zM389 242q0 31 -4.5 62.5t-17 57t-35 41.5t-58.5 16q-37 0 -61 -15.5 t-38 -40.5t-19.5 -56.5t-5.5 -64.5q0 -34 4.5 -65t17.5 -54.5t36.5 -37.5t62.5 -14q36 0 59 15t36 39t18 54.5t5 62.5zM420 605q0 -21 -15.5 -35.5t-38.5 -14.5q-21 0 -35 14.5t-14 35.5t14.5 35.5t34.5 14.5q23 0 38.5 -14t15.5 -36zM227 605q0 -21 -14.5 -35.5 t-37.5 -14.5q-22 0 -36.5 14.5t-14.5 35.5t15 35.5t35 14.5q23 0 38 -14t15 -36z" />
<glyph unicode="&#xf7;" horiz-adv-x="575" d="M345 464q0 -23 -16.5 -40t-39.5 -17q-24 0 -41 17t-17 40q0 24 16.5 40.5t40.5 16.5t40.5 -16.5t16.5 -40.5zM87 266v69h401v-69h-401zM345 136q0 -23 -16.5 -40t-39.5 -17q-24 0 -41 17t-17 40q0 24 16.5 40t40.5 16t40.5 -16t16.5 -40z" />
<glyph unicode="&#xf8;" horiz-adv-x="538" d="M271 499q48 0 83.5 -12.5t61.5 -34.5q9 12 18.5 23t18.5 23q11 0 23 0.5t24 0.5l-58 -71q30 -36 43 -84t13 -101q0 -49 -12 -94t-39.5 -79.5t-72.5 -55.5t-111 -21q-93 0 -144 42l-34 -41q-13 0 -25 -0.5t-24 -0.5l56 67q-29 35 -40.5 82t-11.5 100q0 50 13 96.5t40.5 82 t71.5 57t106 21.5zM387 242q0 26 -3.5 54t-14.5 51q-48 -61 -93.5 -121.5t-93.5 -121.5q14 -16 35.5 -25.5t53.5 -9.5q36 0 59 15t35.5 39.5t17 55.5t4.5 63zM271 420q-35 0 -58.5 -15t-37.5 -39.5t-20 -55.5t-6 -62q0 -27 3 -55t14 -51q47 60 93 120t94 120 q-14 17 -33.5 27.5t-48.5 10.5z" />
<glyph unicode="&#xf9;" horiz-adv-x="601" d="M238 -11q-47 0 -75.5 13t-44 35t-21 50t-5.5 58v267h-70v77h177v-326q0 -21 2 -37t9.5 -27t21.5 -16.5t38 -5.5t60.5 12t69.5 43v280h-63v77h170v-413h69v-63q-28 -11 -54 -15t-43 -4q-37 0 -54.5 13.5t-21.5 49.5q-45 -41 -89 -54.5t-76 -13.5zM143 673l63 63l134 -165 l-39 -37z" />
<glyph unicode="&#xfa;" horiz-adv-x="601" d="M238 -11q-47 0 -75.5 13t-44 35t-21 50t-5.5 58v267h-70v77h177v-326q0 -21 2 -37t9.5 -27t21.5 -16.5t38 -5.5t60.5 12t69.5 43v280h-63v77h170v-413h69v-63q-28 -11 -54 -15t-43 -4q-37 0 -54.5 13.5t-21.5 49.5q-45 -41 -89 -54.5t-76 -13.5zM263 534l-40 37l133 165 l64 -63z" />
<glyph unicode="&#xfb;" horiz-adv-x="601" d="M238 -11q-47 0 -75.5 13t-44 35t-21 50t-5.5 58v267h-70v77h177v-326q0 -21 2 -37t9.5 -27t21.5 -16.5t38 -5.5t60.5 12t69.5 43v280h-63v77h170v-413h69v-63q-28 -11 -54 -15t-43 -4q-37 0 -54.5 13.5t-21.5 49.5q-45 -41 -89 -54.5t-76 -13.5zM449 531l-159 100 l-158 -100l-28 33l152 146h69l153 -145z" />
<glyph unicode="&#xfc;" horiz-adv-x="601" d="M238 -11q-47 0 -75.5 13t-44 35t-21 50t-5.5 58v267h-70v77h177v-326q0 -21 2 -37t9.5 -27t21.5 -16.5t38 -5.5t60.5 12t69.5 43v280h-63v77h170v-413h69v-63q-28 -11 -54 -15t-43 -4q-37 0 -54.5 13.5t-21.5 49.5q-45 -41 -89 -54.5t-76 -13.5zM437 605 q0 -21 -15.5 -35.5t-38.5 -14.5q-21 0 -35 14.5t-14 35.5t14.5 35.5t34.5 14.5q23 0 38.5 -14t15.5 -36zM244 605q0 -21 -14.5 -35.5t-37.5 -14.5q-22 0 -36.5 14.5t-14.5 35.5t15 35.5t35 14.5q23 0 38 -14t15 -36z" />
<glyph unicode="&#xfd;" horiz-adv-x="561" d="M277 70q2 7 10.5 32.5t19.5 60t24 74t24.5 75t20.5 63t13 37.5h-59v77h208v-77h-49l-178 -518q-10 -26 -21.5 -46t-27.5 -33.5t-38.5 -21t-55.5 -7.5q-11 0 -42 2.5t-72 15.5l16 84q22 -5 42 -7.5t37 -2.5q24 0 37.5 6t22.5 20.5t18 39t24 62.5h-53q-33 101 -65.5 201.5 t-65.5 202.5h-50v79h129q4 -12 14 -45.5t23.5 -78t28.5 -93.5t27.5 -91.5t21.5 -73t11 -37.5h5zM266 534l-40 37l133 165l64 -63z" />
<glyph unicode="&#xfe;" horiz-adv-x="568" d="M11 -137h73v750h-75v73h180v-242l1 -1q30 24 70.5 38t76.5 14q54 0 91 -19.5t59 -52.5t31.5 -77t9.5 -93q0 -57 -11 -105t-35 -83t-62.5 -55t-94.5 -20q-14 0 -31 2t-35 6t-35.5 10t-32.5 15v-160h78v-71h-258v71zM191 101q8 -6 21 -11.5t28.5 -10t32 -7.5t31.5 -3 q23 0 44 8.5t37 30t25.5 57t9.5 89.5q0 48 -8.5 79t-23.5 49.5t-35.5 26t-44.5 7.5q-14 0 -30.5 -4t-33 -10.5t-30.5 -14.5t-23 -16v-270z" />
<glyph unicode="&#xff;" horiz-adv-x="561" d="M277 70q2 7 10.5 32.5t19.5 60t24 74t24.5 75t20.5 63t13 37.5h-59v77h208v-77h-49l-178 -518q-10 -26 -21.5 -46t-27.5 -33.5t-38.5 -21t-55.5 -7.5q-11 0 -42 2.5t-72 15.5l16 84q22 -5 42 -7.5t37 -2.5q24 0 37.5 6t22.5 20.5t18 39t24 62.5h-53q-33 101 -65.5 201.5 t-65.5 202.5h-50v79h129q4 -12 14 -45.5t23.5 -78t28.5 -93.5t27.5 -91.5t21.5 -73t11 -37.5h5zM419 605q0 -21 -15.5 -35.5t-38.5 -14.5q-21 0 -35 14.5t-14 35.5t14.5 35.5t34.5 14.5q23 0 38.5 -14t15.5 -36zM226 605q0 -21 -14.5 -35.5t-37.5 -14.5q-22 0 -36.5 14.5 t-14.5 35.5t15 35.5t35 14.5q23 0 38 -14t15 -36z" />
<glyph unicode="&#x100;" horiz-adv-x="697" d="M510 76q-8 26 -18 57.5t-18 55.5h-257q-7 -21 -17 -53t-18 -60h68v-76h-230v76h56l207 610h137q49 -149 101 -305t101 -305h56v-76h-234v76h66zM451 265q-20 68 -41 134.5t-43 134.5q-4 15 -8.5 30t-9.5 30h-2l-19 -61q-9 -27 -20 -61.5t-23 -71t-23 -72t-19 -63.5h208z M186 823h338v-76h-338v76z" />
<glyph unicode="&#x101;" horiz-adv-x="537" d="M230 220q-42 -3 -64 -24.5t-22 -52.5q0 -39 19 -57.5t62 -18.5q27 0 58.5 14t55.5 37v110zM442 75h76l6 -60q-10 -6 -25 -10t-31 -6.5t-31 -3.5t-25 -1q-29 0 -47.5 11t-19.5 50q-1 0 -1 0.5t-1 0.5q-27 -24 -52 -37t-46.5 -19.5t-38.5 -7.5t-28 -1q-44 0 -72 14 t-44.5 35t-22.5 46t-6 46q0 30 10.5 55t33.5 44t59 31.5t87 15.5l118 8v29q0 55 -21 78t-77 23q-36 0 -75.5 -7t-74.5 -19l-10 34l-10 34q42 19 94.5 29t100.5 10q82 0 128 -36.5t46 -128.5v-257zM84 664h344v-76h-344v76z" />
<glyph unicode="&#x102;" horiz-adv-x="697" d="M510 76q-8 26 -18 57.5t-18 55.5h-257q-7 -21 -17 -53t-18 -60h68v-76h-230v76h56l207 610h137q49 -149 101 -305t101 -305h56v-76h-234v76h66zM451 265q-20 68 -41 134.5t-43 134.5q-4 15 -8.5 30t-9.5 30h-2l-19 -61q-9 -27 -20 -61.5t-23 -71t-23 -72t-19 -63.5h208z M347 733q-28 0 -52 10t-45 26.5t-39.5 38t-34.5 44.5l52 38q29 -39 61.5 -62t61.5 -23q9 0 22 2t31 9.5t41 23.5t52 44l32 -31q-45 -67 -92.5 -93.5t-89.5 -26.5z" />
<glyph unicode="&#x103;" horiz-adv-x="537" d="M230 220q-42 -3 -64 -24.5t-22 -52.5q0 -39 19 -57.5t62 -18.5q27 0 58.5 14t55.5 37v110zM442 75h76l6 -60q-10 -6 -25 -10t-31 -6.5t-31 -3.5t-25 -1q-29 0 -47.5 11t-19.5 50q-1 0 -1 0.5t-1 0.5q-27 -24 -52 -37t-46.5 -19.5t-38.5 -7.5t-28 -1q-44 0 -72 14 t-44.5 35t-22.5 46t-6 46q0 30 10.5 55t33.5 44t59 31.5t87 15.5l118 8v29q0 55 -21 78t-77 23q-36 0 -75.5 -7t-74.5 -19l-10 34l-10 34q42 19 94.5 29t100.5 10q82 0 128 -36.5t46 -128.5v-257zM261 551q-27 0 -51.5 10t-45.5 26.5t-39.5 38t-34.5 44.5l52 39 q29 -41 61.5 -63t60.5 -22q9 0 22.5 1.5t31.5 9t41 23t52 44.5l32 -31q-45 -68 -92.5 -94t-89.5 -26z" />
<glyph unicode="&#x104;" horiz-adv-x="697" d="M510 76q-8 26 -18 57.5t-18 55.5h-257q-7 -21 -17 -53t-18 -60h68v-76h-230v76h56l207 610h137q49 -149 101 -305t101 -305h56v-76h-69q-21 -27 -34 -58t-13 -54q0 -29 15.5 -39.5t41.5 -10.5q20 0 40 4t34 8l8 -37q-26 -14 -55 -21t-58 -7q-49 0 -74.5 20.5t-25.5 55.5 q0 13 3 29t11 34t21.5 37t35.5 39h-115v76h66zM451 265q-20 68 -41 134.5t-43 134.5q-4 15 -8.5 30t-9.5 30h-2l-19 -61q-9 -27 -20 -61.5t-23 -71t-23 -72t-19 -63.5h208z" />
<glyph unicode="&#x105;" horiz-adv-x="537" d="M442 75h76l6 -60q-15 -8 -38.5 -12.5t-45.5 -6.5q-18 -26 -29 -54.5t-11 -49.5q0 -29 15.5 -39.5t41.5 -10.5q20 0 40 4t34 8l8 -37q-26 -14 -55 -21t-58 -7q-49 0 -74.5 20.5t-25.5 55.5q0 24 12 59t50 72q-20 3 -31 15.5t-12 43.5q-1 0 -1 0.5t-1 0.5q-27 -24 -52 -37 t-46.5 -19.5t-38.5 -7.5t-28 -1q-44 0 -72 14t-44.5 35t-22.5 46t-6 46q0 30 10.5 55t33.5 44t59 31.5t87 15.5l118 8v29q0 55 -21 78t-77 23q-36 0 -75.5 -7t-74.5 -19l-10 34l-10 34q42 19 94.5 29t100.5 10q82 0 128 -36.5t46 -128.5v-257zM230 220q-42 -3 -64 -24.5 t-22 -52.5q0 -39 19 -57.5t62 -18.5q27 0 58.5 14t55.5 37v110z" />
<glyph unicode="&#x106;" horiz-adv-x="593" d="M165 341q0 -60 10 -108t34.5 -82t66 -52t104.5 -18q13 0 32.5 1t41.5 4t45 7t43 10l18 -78q-20 -8 -44.5 -14t-51.5 -10.5t-54.5 -7t-52.5 -2.5q-87 0 -146 26.5t-94.5 73t-51 110.5t-15.5 139q0 57 13.5 120.5t48.5 116t96 87t156 34.5q56 0 100 -8t78 -20v-174h-80v105 q-23 6 -48 8.5t-47 2.5q-54 0 -92 -19.5t-62.5 -55t-36 -85.5t-11.5 -111zM351 732l-40 38l134 164l64 -63z" />
<glyph unicode="&#x107;" horiz-adv-x="471" d="M272 500q41 0 79 -6.5t70 -19.5v-137h-76v71q-9 2 -21.5 3.5t-21.5 1.5q-82 0 -118.5 -40.5t-36.5 -131.5q0 -86 33.5 -127t98.5 -41q37 0 71 7t69 21l23 -70q-34 -19 -80.5 -29t-95.5 -10q-66 0 -109.5 19t-69.5 52.5t-36.5 78.5t-10.5 97q0 40 9 86t34.5 85t71 64.5 t117.5 25.5zM233 534l-40 37l133 165l64 -63z" />
<glyph unicode="&#x108;" horiz-adv-x="593" d="M165 341q0 -60 10 -108t34.5 -82t66 -52t104.5 -18q13 0 32.5 1t41.5 4t45 7t43 10l18 -78q-20 -8 -44.5 -14t-51.5 -10.5t-54.5 -7t-52.5 -2.5q-87 0 -146 26.5t-94.5 73t-51 110.5t-15.5 139q0 57 13.5 120.5t48.5 116t96 87t156 34.5q56 0 100 -8t78 -20v-174h-80v105 q-23 6 -48 8.5t-47 2.5q-54 0 -92 -19.5t-62.5 -55t-36 -85.5t-11.5 -111zM505 733l-159 99l-158 -100l-27 33l151 142h69l154 -140z" />
<glyph unicode="&#x109;" horiz-adv-x="471" d="M272 500q41 0 79 -6.5t70 -19.5v-137h-76v71q-9 2 -21.5 3.5t-21.5 1.5q-82 0 -118.5 -40.5t-36.5 -131.5q0 -86 33.5 -127t98.5 -41q37 0 71 7t69 21l23 -70q-34 -19 -80.5 -29t-95.5 -10q-66 0 -109.5 19t-69.5 52.5t-36.5 78.5t-10.5 97q0 40 9 86t34.5 85t71 64.5 t117.5 25.5zM420 531l-159 100l-158 -100l-28 33l152 146h69l153 -145z" />
<glyph unicode="&#x10a;" horiz-adv-x="593" d="M165 341q0 -60 10 -108t34.5 -82t66 -52t104.5 -18q13 0 32.5 1t41.5 4t45 7t43 10l18 -78q-20 -8 -44.5 -14t-51.5 -10.5t-54.5 -7t-52.5 -2.5q-87 0 -146 26.5t-94.5 73t-51 110.5t-15.5 139q0 57 13.5 120.5t48.5 116t96 87t156 34.5q56 0 100 -8t78 -20v-174h-80v105 q-23 6 -48 8.5t-47 2.5q-54 0 -92 -19.5t-62.5 -55t-36 -85.5t-11.5 -111zM417 827q0 -29 -20.5 -48.5t-48.5 -19.5q-29 0 -48.5 19.5t-19.5 48.5t19.5 49t48.5 20q28 0 48.5 -20t20.5 -49z" />
<glyph unicode="&#x10b;" horiz-adv-x="471" d="M272 500q41 0 79 -6.5t70 -19.5v-137h-76v71q-9 2 -21.5 3.5t-21.5 1.5q-82 0 -118.5 -40.5t-36.5 -131.5q0 -86 33.5 -127t98.5 -41q37 0 71 7t69 21l23 -70q-34 -19 -80.5 -29t-95.5 -10q-66 0 -109.5 19t-69.5 52.5t-36.5 78.5t-10.5 97q0 40 9 86t34.5 85t71 64.5 t117.5 25.5zM331 628q0 -28 -18 -47t-43 -19q-26 0 -43.5 19t-17.5 47t17.5 47t43.5 19q25 0 43 -19t18 -47z" />
<glyph unicode="&#x10c;" horiz-adv-x="593" d="M165 341q0 -60 10 -108t34.5 -82t66 -52t104.5 -18q13 0 32.5 1t41.5 4t45 7t43 10l18 -78q-20 -8 -44.5 -14t-51.5 -10.5t-54.5 -7t-52.5 -2.5q-87 0 -146 26.5t-94.5 73t-51 110.5t-15.5 139q0 57 13.5 120.5t48.5 116t96 87t156 34.5q56 0 100 -8t78 -20v-174h-80v105 q-23 6 -48 8.5t-47 2.5q-54 0 -92 -19.5t-62.5 -55t-36 -85.5t-11.5 -111zM535 877l-154 -139h-68l-152 141l27 32l159 -100l159 101z" />
<glyph unicode="&#x10d;" horiz-adv-x="471" d="M272 500q41 0 79 -6.5t70 -19.5v-137h-76v71q-9 2 -21.5 3.5t-21.5 1.5q-82 0 -118.5 -40.5t-36.5 -131.5q0 -86 33.5 -127t98.5 -41q37 0 71 7t69 21l23 -70q-34 -19 -80.5 -29t-95.5 -10q-66 0 -109.5 19t-69.5 52.5t-36.5 78.5t-10.5 97q0 40 9 86t34.5 85t71 64.5 t117.5 25.5zM459 689l-153 -144h-69l-152 146l28 33l158 -100l160 99z" />
<glyph unicode="&#x10e;" horiz-adv-x="692" d="M42 0v77h70v530h-66v79h304q87 0 143.5 -27.5t89.5 -74.5t46 -108.5t13 -130.5q0 -70 -14.5 -132.5t-49 -110t-92 -75t-143.5 -27.5h-301zM224 607v-530h106q25 0 59 7.5t64.5 34.5t52 79t21.5 141q0 90 -19.5 143.5t-48.5 81t-63 35.5t-62 8h-110zM492 877l-154 -139 h-68l-152 141l27 32l159 -100l159 101z" />
<glyph unicode="&#x10f;" horiz-adv-x="697" d="M558 686q0 23 17.5 39.5t43.5 16.5q30 0 46.5 -20t15.5 -48q-1 -42 -26.5 -78t-67.5 -56l-25 31q35 30 36 64q-20 5 -30 18t-10 33zM381 45q-31 -25 -72.5 -39t-77.5 -14q-54 0 -91 19.5t-59 52.5t-31.5 77t-9.5 94q0 57 11 105.5t35 84t62.5 56t94.5 20.5 q27 0 63.5 -6.5t70.5 -24.5v167h-78v76h185v-638h73v-75h-174v44zM264 419q-23 0 -44 -8t-37 -28.5t-25.5 -56t-9.5 -90.5q0 -48 8.5 -79.5t23.5 -50t35.5 -26t44.5 -7.5q32 0 65.5 14.5t51.5 30.5v269q-8 6 -21 11.5t-28.5 10t-32 7.5t-31.5 3z" />
<glyph unicode="&#x110;" horiz-adv-x="692" d="M42 0v75h70v262h-66v55h66v219h-66v75h304q87 0 143.5 -27.5t89.5 -74.5t46 -108.5t13 -130.5q0 -70 -14.5 -132.5t-49 -110t-92 -75t-143.5 -27.5h-301zM224 611v-219h133v-55h-133v-261h106q25 0 59 8t64.5 35t52 79t21.5 141q0 90 -19.5 144t-48.5 82.5t-63 37 t-62 8.5h-110z" />
<glyph unicode="&#x111;" horiz-adv-x="572" d="M379 46q-30 -25 -71 -39.5t-77 -14.5q-54 0 -91 19t-59 51.5t-31.5 76t-9.5 93.5q0 55 11 101.5t35 80t62.5 52.5t94.5 19q13 0 30.5 -2t35.5 -6.5t35.5 -11t32.5 -15.5v80h-141v49h141v65h-78v69h185v-134h71v-49h-71v-458h73v-72h-176v43zM264 406q-23 0 -44 -7.5 t-37 -27t-25.5 -53t-9.5 -85.5q0 -48 8.5 -79.5t23.5 -49.5t35.5 -25t44.5 -7q13 0 30 4t33 10t30.5 14t23.5 16v257q-8 6 -21 12t-28.5 10.5t-32 7.5t-31.5 3z" />
<glyph unicode="&#x112;" horiz-adv-x="607" d="M42 0v78h68v530h-66v77h519v-179h-81v102h-262v-215l243 5v-79l-243 4v-245h275v105h82v-183h-535zM164 823h338v-76h-338v76z" />
<glyph unicode="&#x113;" horiz-adv-x="505" d="M264 422q-29 0 -50 -11.5t-34.5 -30t-21 -42t-8.5 -47.5h218q-1 27 -6 50.5t-17 41.5t-31.5 28.5t-49.5 10.5zM265 500q71 0 111.5 -26.5t61 -64t25.5 -77.5t5 -67v-48h-320q0 -33 6 -60t21 -46t40.5 -29.5t63.5 -10.5q42 0 77 8t75 25l27 -67q-46 -24 -94.5 -35 t-97.5 -11q-69 0 -112.5 21t-69 56t-35 80.5t-9.5 94.5q0 36 9 80.5t34 84t69 66t113 26.5zM96 664h344v-76h-344v76z" />
<glyph unicode="&#x114;" horiz-adv-x="607" d="M42 0v78h68v530h-66v77h519v-179h-81v102h-262v-215l243 5v-79l-243 4v-245h275v105h82v-183h-535zM325 733q-28 0 -52 10t-45 26.5t-39.5 38t-34.5 44.5l52 38q29 -39 61.5 -62t61.5 -23q9 0 22 2t31 9.5t41 23.5t52 44l32 -31q-45 -67 -92.5 -93.5t-89.5 -26.5z" />
<glyph unicode="&#x115;" horiz-adv-x="505" d="M264 422q-29 0 -50 -11.5t-34.5 -30t-21 -42t-8.5 -47.5h218q-1 27 -6 50.5t-17 41.5t-31.5 28.5t-49.5 10.5zM265 500q71 0 111.5 -26.5t61 -64t25.5 -77.5t5 -67v-48h-320q0 -33 6 -60t21 -46t40.5 -29.5t63.5 -10.5q42 0 77 8t75 25l27 -67q-46 -24 -94.5 -35 t-97.5 -11q-69 0 -112.5 21t-69 56t-35 80.5t-9.5 94.5q0 36 9 80.5t34 84t69 66t113 26.5zM261 551q-27 0 -51.5 10t-45.5 26.5t-39.5 38t-34.5 44.5l52 39q29 -41 61.5 -63t60.5 -22q9 0 22.5 1.5t31.5 9t41 23t52 44.5l32 -31q-45 -68 -92.5 -94t-89.5 -26z" />
<glyph unicode="&#x116;" horiz-adv-x="607" d="M42 0v78h68v530h-66v77h519v-179h-81v102h-262v-215l243 5v-79l-243 4v-245h275v105h82v-183h-535zM393 821q0 -29 -20.5 -48.5t-48.5 -19.5q-29 0 -48.5 19.5t-19.5 48.5t19.5 49t48.5 20q28 0 48.5 -20t20.5 -49z" />
<glyph unicode="&#x117;" horiz-adv-x="505" d="M264 422q-29 0 -50 -11.5t-34.5 -30t-21 -42t-8.5 -47.5h218q-1 27 -6 50.5t-17 41.5t-31.5 28.5t-49.5 10.5zM265 500q71 0 111.5 -26.5t61 -64t25.5 -77.5t5 -67v-48h-320q0 -33 6 -60t21 -46t40.5 -29.5t63.5 -10.5q42 0 77 8t75 25l27 -67q-46 -24 -94.5 -35 t-97.5 -11q-69 0 -112.5 21t-69 56t-35 80.5t-9.5 94.5q0 36 9 80.5t34 84t69 66t113 26.5zM337 627q0 -29 -20.5 -48.5t-48.5 -19.5q-29 0 -48.5 19.5t-19.5 48.5t19.5 49t48.5 20q28 0 48.5 -20t20.5 -49z" />
<glyph unicode="&#x118;" horiz-adv-x="607" d="M521 0q-20 -27 -32.5 -57t-12.5 -53q0 -29 15.5 -39.5t41.5 -10.5q20 0 40 4t34 8l8 -37q-26 -14 -55 -21t-58 -7q-49 0 -74.5 20.5t-25.5 55.5q0 26 13.5 62.5t55.5 74.5h-429v78h68v530h-66v77h519v-179h-81v102h-262v-215l243 5v-79l-243 4v-245h275v105h82v-183h-56z " />
<glyph unicode="&#x119;" horiz-adv-x="505" d="M265 500q71 0 111.5 -26.5t61 -64t25.5 -77.5t5 -67v-48h-320q0 -33 6 -60t21 -46t40.5 -29.5t63.5 -10.5q42 0 77 8t75 25l27 -67q-14 -7 -26.5 -12.5t-26.5 -10.5q-16 -24 -25.5 -49.5t-9.5 -45.5q0 -29 15.5 -39.5t41.5 -10.5q20 0 40 4t34 8l8 -37q-26 -14 -55 -21 t-58 -7q-49 0 -74.5 20.5t-25.5 55.5q0 20 8 47.5t31 57.5q-35 -6 -69 -6q-69 0 -112.5 21t-69 56t-35 80.5t-9.5 94.5q0 36 9 80.5t34 84t69 66t113 26.5zM264 422q-29 0 -50 -11.5t-34.5 -30t-21 -42t-8.5 -47.5h218q-1 27 -6 50.5t-17 41.5t-31.5 28.5t-49.5 10.5z" />
<glyph unicode="&#x11a;" horiz-adv-x="607" d="M42 0v78h68v530h-66v77h519v-179h-81v102h-262v-215l243 5v-79l-243 4v-245h275v105h82v-183h-535zM523 877l-154 -139h-68l-152 141l27 32l159 -100l159 101z" />
<glyph unicode="&#x11b;" horiz-adv-x="505" d="M264 422q-29 0 -50 -11.5t-34.5 -30t-21 -42t-8.5 -47.5h218q-1 27 -6 50.5t-17 41.5t-31.5 28.5t-49.5 10.5zM265 500q71 0 111.5 -26.5t61 -64t25.5 -77.5t5 -67v-48h-320q0 -33 6 -60t21 -46t40.5 -29.5t63.5 -10.5q42 0 77 8t75 25l27 -67q-46 -24 -94.5 -35 t-97.5 -11q-69 0 -112.5 21t-69 56t-35 80.5t-9.5 94.5q0 36 9 80.5t34 84t69 66t113 26.5zM447 689l-153 -144h-69l-152 146l28 33l158 -100l160 99z" />
<glyph unicode="&#x11c;" horiz-adv-x="657" d="M377 698q56 0 103 -8t81 -20v-171h-80v100q-20 5 -47 8.5t-53 3.5q-57 0 -97.5 -19.5t-67 -54.5t-39 -85t-12.5 -111q0 -57 9.5 -105t32 -82.5t60.5 -54t96 -19.5q24 0 56 3.5t54 10.5v192h-99v75h250v-75h-50v-261q-54 -17 -110 -25.5t-108 -8.5q-86 0 -144.5 26.5 t-94.5 73t-51.5 110.5t-15.5 139q0 57 13.5 120t50 116t100 87.5t163.5 34.5zM525 733l-159 99l-158 -100l-27 33l151 142h69l154 -140z" />
<glyph unicode="&#x11d;" horiz-adv-x="540" d="M441 428q16 -18 24.5 -46t8.5 -56q0 -41 -16.5 -72t-45 -52.5t-67.5 -33t-85 -11.5h-55q-35 0 -53 -7t-18 -27q0 -31 46 -31h132q91 0 142 -36.5t51 -109.5q0 -35 -15.5 -64.5t-48 -51.5t-81 -34.5t-114.5 -12.5q-63 0 -104.5 11.5t-66.5 30t-35 43.5t-10 52 q0 42 20.5 72t43.5 43q-29 6 -44 26t-15 49q0 21 8 35.5t20 24.5t26.5 16t28.5 9q-27 12 -48 42.5t-21 84.5q0 48 18 82t47.5 55.5t67 31.5t75.5 10q26 0 51.5 -3.5t45.5 -8.5h165v-59h-75zM187 21q-9 -3 -18.5 -11t-17 -18.5t-12 -23t-4.5 -24.5q0 -15 5.5 -30t19.5 -26 t38.5 -18t63.5 -7q66 0 99.5 22.5t33.5 58.5q0 14 -5 27.5t-17 24.5t-31.5 18t-48.5 7h-106zM366 327q0 15 -5 32t-17 31.5t-32.5 24t-51.5 9.5q-51 0 -77 -26.5t-26 -71.5q0 -44 25 -69t70 -25q49 0 81.5 23.5t32.5 71.5zM420 531l-159 100l-158 -100l-28 33l152 146h69 l153 -145z" />
<glyph unicode="&#x11e;" horiz-adv-x="657" d="M377 698q56 0 103 -8t81 -20v-171h-80v100q-20 5 -47 8.5t-53 3.5q-57 0 -97.5 -19.5t-67 -54.5t-39 -85t-12.5 -111q0 -57 9.5 -105t32 -82.5t60.5 -54t96 -19.5q24 0 56 3.5t54 10.5v192h-99v75h250v-75h-50v-261q-54 -17 -110 -25.5t-108 -8.5q-86 0 -144.5 26.5 t-94.5 73t-51.5 110.5t-15.5 139q0 57 13.5 120t50 116t100 87.5t163.5 34.5zM356 733q-28 0 -52 10t-45 26.5t-39.5 38t-34.5 44.5l52 38q29 -39 61.5 -62t61.5 -23q9 0 22 2t31 9.5t41 23.5t52 44l32 -31q-45 -67 -92.5 -93.5t-89.5 -26.5z" />
<glyph unicode="&#x11f;" horiz-adv-x="540" d="M441 428q16 -18 24.5 -46t8.5 -56q0 -41 -16.5 -72t-45 -52.5t-67.5 -33t-85 -11.5h-55q-35 0 -53 -7t-18 -27q0 -31 46 -31h132q91 0 142 -36.5t51 -109.5q0 -35 -15.5 -64.5t-48 -51.5t-81 -34.5t-114.5 -12.5q-63 0 -104.5 11.5t-66.5 30t-35 43.5t-10 52 q0 42 20.5 72t43.5 43q-29 6 -44 26t-15 49q0 21 8 35.5t20 24.5t26.5 16t28.5 9q-27 12 -48 42.5t-21 84.5q0 48 18 82t47.5 55.5t67 31.5t75.5 10q26 0 51.5 -3.5t45.5 -8.5h165v-59h-75zM187 21q-9 -3 -18.5 -11t-17 -18.5t-12 -23t-4.5 -24.5q0 -15 5.5 -30t19.5 -26 t38.5 -18t63.5 -7q66 0 99.5 22.5t33.5 58.5q0 14 -5 27.5t-17 24.5t-31.5 18t-48.5 7h-106zM366 327q0 15 -5 32t-17 31.5t-32.5 24t-51.5 9.5q-51 0 -77 -26.5t-26 -71.5q0 -44 25 -69t70 -25q49 0 81.5 23.5t32.5 71.5zM255 551q-27 0 -51.5 10t-45.5 26.5t-39.5 38 t-34.5 44.5l52 39q29 -41 61.5 -63t60.5 -22q9 0 22.5 1.5t31.5 9t41 23t52 44.5l32 -31q-45 -68 -92.5 -94t-89.5 -26z" />
<glyph unicode="&#x120;" horiz-adv-x="657" d="M377 698q56 0 103 -8t81 -20v-171h-80v100q-20 5 -47 8.5t-53 3.5q-57 0 -97.5 -19.5t-67 -54.5t-39 -85t-12.5 -111q0 -57 9.5 -105t32 -82.5t60.5 -54t96 -19.5q24 0 56 3.5t54 10.5v192h-99v75h250v-75h-50v-261q-54 -17 -110 -25.5t-108 -8.5q-86 0 -144.5 26.5 t-94.5 73t-51.5 110.5t-15.5 139q0 57 13.5 120t50 116t100 87.5t163.5 34.5zM449 821q0 -29 -20.5 -48.5t-48.5 -19.5q-29 0 -48.5 19.5t-19.5 48.5t19.5 49t48.5 20q28 0 48.5 -20t20.5 -49z" />
<glyph unicode="&#x121;" horiz-adv-x="540" d="M441 428q16 -18 24.5 -46t8.5 -56q0 -41 -16.5 -72t-45 -52.5t-67.5 -33t-85 -11.5h-55q-35 0 -53 -7t-18 -27q0 -31 46 -31h132q91 0 142 -36.5t51 -109.5q0 -35 -15.5 -64.5t-48 -51.5t-81 -34.5t-114.5 -12.5q-63 0 -104.5 11.5t-66.5 30t-35 43.5t-10 52 q0 42 20.5 72t43.5 43q-29 6 -44 26t-15 49q0 21 8 35.5t20 24.5t26.5 16t28.5 9q-27 12 -48 42.5t-21 84.5q0 48 18 82t47.5 55.5t67 31.5t75.5 10q26 0 51.5 -3.5t45.5 -8.5h165v-59h-75zM187 21q-9 -3 -18.5 -11t-17 -18.5t-12 -23t-4.5 -24.5q0 -15 5.5 -30t19.5 -26 t38.5 -18t63.5 -7q66 0 99.5 22.5t33.5 58.5q0 14 -5 27.5t-17 24.5t-31.5 18t-48.5 7h-106zM366 327q0 15 -5 32t-17 31.5t-32.5 24t-51.5 9.5q-51 0 -77 -26.5t-26 -71.5q0 -44 25 -69t70 -25q49 0 81.5 23.5t32.5 71.5zM344 627q0 -29 -20.5 -48.5t-48.5 -19.5 q-29 0 -48.5 19.5t-19.5 48.5t19.5 49t48.5 20q28 0 48.5 -20t20.5 -49z" />
<glyph unicode="&#x122;" horiz-adv-x="657" d="M377 698q56 0 103 -8t81 -20v-171h-80v100q-20 5 -47 8.5t-53 3.5q-57 0 -97.5 -19.5t-67 -54.5t-39 -85t-12.5 -111q0 -57 9.5 -105t32 -82.5t60.5 -54t96 -19.5q24 0 56 3.5t54 10.5v192h-99v75h250v-75h-50v-261q-54 -17 -110 -25.5t-108 -8.5q-86 0 -144.5 26.5 t-94.5 73t-51.5 110.5t-15.5 139q0 57 13.5 120t50 116t100 87.5t163.5 34.5zM300 -96q0 23 17.5 39.5t43.5 16.5q30 0 46.5 -20t15.5 -48q-1 -42 -26.5 -78t-67.5 -56l-25 31q35 30 36 64q-20 5 -30 18t-10 33z" />
<glyph unicode="&#x123;" horiz-adv-x="540" d="M340 602q0 -23 -18 -39.5t-46 -16.5q-31 0 -48 19.5t-17 47.5v2q2 43 29 78.5t69 56.5q7 -8 13 -16t13 -16q-17 -16 -26 -30.5t-10 -31.5q20 -5 30.5 -19t10.5 -35zM441 428q16 -18 24.5 -46t8.5 -56q0 -41 -16.5 -72t-45 -52.5t-67.5 -33t-85 -11.5h-55q-35 0 -53 -7 t-18 -27q0 -31 46 -31h132q91 0 142 -36.5t51 -109.5q0 -35 -15.5 -64.5t-48 -51.5t-81 -34.5t-114.5 -12.5q-63 0 -104.5 11.5t-66.5 30t-35 43.5t-10 52q0 42 20.5 72t43.5 43q-29 6 -44 26t-15 49q0 21 8 35.5t20 24.5t26.5 16t28.5 9q-27 12 -48 42.5t-21 84.5 q0 48 18 82t47.5 55.5t67 31.5t75.5 10q26 0 51.5 -3.5t45.5 -8.5h165v-59h-75zM187 21q-9 -3 -18.5 -11t-17 -18.5t-12 -23t-4.5 -24.5q0 -15 5.5 -30t19.5 -26t38.5 -18t63.5 -7q66 0 99.5 22.5t33.5 58.5q0 14 -5 27.5t-17 24.5t-31.5 18t-48.5 7h-106zM366 327 q0 15 -5 32t-17 31.5t-32.5 24t-51.5 9.5q-51 0 -77 -26.5t-26 -71.5q0 -44 25 -69t70 -25q49 0 81.5 23.5t32.5 71.5z" />
<glyph unicode="&#x124;" horiz-adv-x="739" d="M457 0v77h62v244h-301v-244h63v-77h-240v77h67v531h-67v77h240v-77h-63v-213h301v213h-62v77h240v-77h-67v-531h67v-77h-240zM519 733l-159 99l-158 -100l-27 33l151 142h69l154 -140z" />
<glyph unicode="&#x125;" horiz-adv-x="608" d="M90 0v637h-70v76h176v-268q42 26 86 40.5t82 14.5q53 0 83 -17.5t44.5 -42.5t18 -53.5t3.5 -49.5v-261h74v-63q-21 -10 -50 -14.5t-49 -4.5q-30 0 -46 11t-24 26t-9.5 29.5t-1.5 22.5v234q0 25 -3 43t-11 30t-24 18t-41 6q-31 0 -67.5 -14t-64.5 -31v-369h-106zM293 764 l-159 99l-158 -100l-27 33l151 142h69l154 -140z" />
<glyph unicode="&#x126;" horiz-adv-x="739" d="M457 0v76h62v242h-301v-242h63v-76h-240v76h67v393h-68v51h68v91h-67v74h240v-74h-63v-91h301v91h-62v74h240v-74h-67v-91h67v-51h-67v-393h67v-76h-240zM519 384v85h-301v-85h301z" />
<glyph unicode="&#x127;" horiz-adv-x="608" d="M22 513v52h68v81h-70v67h177v-148h175v-52h-175v-105q41 27 86 41.5t82 14.5q49 0 78.5 -14t45.5 -37t21 -52t5 -59v-225h69v-64q-23 -10 -49 -15t-46 -5q-42 0 -61 17.5t-19 61.5v206q0 24 -2.5 42.5t-11 31t-24.5 19.5t-42 7q-30 0 -67 -13t-65 -30v-335h-107v513h-68z " />
<glyph unicode="&#x128;" horiz-adv-x="381" d="M70 0v77h65v531h-65v78h241v-78h-66v-531h66v-77h-241zM271 752q-24 0 -46 6t-41.5 13.5t-37 13.5t-32.5 6l-57 -39l-33 26q14 40 38.5 61t55.5 21q19 0 40 -6t41.5 -13t40 -13t34.5 -6l56 40l33 -26q-13 -38 -36.5 -61t-55.5 -23z" />
<glyph unicode="&#x129;" horiz-adv-x="315" d="M49 417v72h161v-412h72v-64q-21 -10 -48.5 -15t-47.5 -5q-43 0 -61.5 17.5t-19.5 61.5v345h-56zM219 574q-24 0 -46 6t-41.5 13.5t-37 13.5t-32.5 6l-57 -39l-33 26q14 40 38.5 61t55.5 21q19 0 40 -6t41.5 -13t40 -13t34.5 -6l56 40l33 -26q-13 -38 -36.5 -61t-55.5 -23 z" />
<glyph unicode="&#x12a;" horiz-adv-x="381" d="M70 0v77h65v531h-65v78h241v-78h-66v-531h66v-77h-241zM23 823h338v-76h-338v76z" />
<glyph unicode="&#x12b;" horiz-adv-x="326" d="M49 417v72h161v-412h72v-64q-21 -10 -48.5 -15t-47.5 -5q-43 0 -61.5 17.5t-19.5 61.5v345h-56zM-28 664h344v-76h-344v76z" />
<glyph unicode="&#x12c;" horiz-adv-x="381" d="M188 736q-28 0 -52 10t-45 26.5t-39.5 38t-34.5 44.5l52 38q29 -39 61.5 -62t61.5 -23q9 0 22 2t31 9.5t41 23.5t52 44l32 -31q-45 -67 -92.5 -93.5t-89.5 -26.5zM70 0v77h65v531h-65v78h241v-78h-66v-531h66v-77h-241z" />
<glyph unicode="&#x12d;" horiz-adv-x="325" d="M49 417v72h161v-412h72v-64q-21 -10 -48.5 -15t-47.5 -5q-43 0 -61.5 17.5t-19.5 61.5v345h-56zM143 551q-27 0 -51.5 10t-45.5 26.5t-39.5 38t-34.5 44.5l52 39q29 -41 61.5 -63t60.5 -22q9 0 22.5 1.5t31.5 9t41 23t52 44.5l32 -31q-45 -68 -92.5 -94t-89.5 -26z" />
<glyph unicode="&#x12e;" horiz-adv-x="381" d="M213 0q-20 -27 -32 -56.5t-12 -52.5q0 -29 15.5 -39.5t41.5 -10.5q20 0 40 4t34 8l8 -37q-26 -14 -55 -21t-58 -7q-49 0 -74.5 20.5t-25.5 55.5q0 25 13.5 61.5t54.5 74.5h-93v77h65v531h-65v78h241v-78h-66v-531h66v-77h-98z" />
<glyph unicode="&#x12f;" horiz-adv-x="315" d="M53 412v76h157v-411h72v-64q-12 -6 -27 -10t-30 -6q-17 -26 -27.5 -53t-10.5 -47q0 -29 15.5 -39.5t41.5 -10.5q20 0 40 4t34 8l8 -37q-26 -14 -55 -21t-58 -7q-49 0 -74.5 20.5t-25.5 55.5q0 23 11 56t44 68q-33 3 -48 21t-16 57v340h-51zM220 625q0 -27 -19.5 -46.5 t-47.5 -19.5q-27 0 -46 19.5t-19 46.5q0 28 19 47t46 19q28 0 47.5 -19t19.5 -47z" />
<glyph unicode="&#x130;" horiz-adv-x="381" d="M70 0v77h65v531h-65v78h241v-78h-66v-531h66v-77h-241zM271 819q0 -29 -20.5 -48.5t-48.5 -19.5q-29 0 -48.5 19.5t-19.5 48.5t19.5 49t48.5 20q28 0 48.5 -20t20.5 -49z" />
<glyph unicode="&#x131;" horiz-adv-x="315" d="M49 417v72h161v-412h72v-64q-21 -10 -48.5 -15t-47.5 -5q-43 0 -61.5 17.5t-19.5 61.5v345h-56z" />
<glyph unicode="&#x132;" horiz-adv-x="762" d="M70 0v77h65v531h-65v78h241v-78h-66v-531h66v-77h-241zM434 686h275v-78h-77l-1 -463q0 -67 -16.5 -119t-49 -91t-80.5 -67t-111 -46l-29 71q54 29 88.5 55.5t54 56t26.5 64t7 79.5v460h-87v78z" />
<glyph unicode="&#x133;" horiz-adv-x="606" d="M53 412v76h157v-411h72v-64q-21 -10 -48.5 -15t-47.5 -5q-43 0 -62 17.5t-20 61.5v340h-51zM220 625q0 -27 -19.5 -46.5t-47.5 -19.5q-27 0 -46 19.5t-19 46.5q0 28 19 47t46 19q28 0 47.5 -19t19.5 -47zM343 488h172v-447q0 -55 -10 -97t-33 -74t-61 -56.5t-94 -43.5 l-32 68q40 24 64.5 45t37.5 43.5t17.5 48.5t4.5 59v378h-66v76zM525 625q0 -27 -20 -46.5t-46 -19.5q-28 0 -47 19.5t-19 46.5q0 28 19 47t47 19q26 0 46 -19t20 -47z" />
<glyph unicode="&#x134;" horiz-adv-x="393" d="M65 687h275v-78h-77l-1 -463q0 -67 -16.5 -119t-49 -91t-80.5 -67t-111 -46l-29 71q54 29 88.5 55.5t54 56t26.5 64t7 79.5v460h-87v78zM365 733l-159 99l-158 -100l-27 33l151 142h69l154 -140z" />
<glyph unicode="&#x135;" horiz-adv-x="300" d="M37 489h172v-453q0 -55 -10 -95.5t-33 -70.5t-61 -51.5t-94 -39.5l-27 66q38 21 61.5 39t36 38.5t17 45t4.5 59.5v390h-66v72zM292 533l-160 101l-158 -100l-28 33l152 145h69l153 -144z" />
<glyph unicode="&#x136;" horiz-adv-x="681" d="M375 416l228 -339h58v-77h-245l-1 77h63l-182 272l-80 -76v-197h63v-76h-237v76h66v535h-66v74h238v-74h-64v-239l250 238h-63v75h237v-75h-58zM285 -96q0 23 17.5 39.5t43.5 16.5q30 0 46.5 -20t15.5 -48q-1 -42 -26.5 -78t-67.5 -56l-25 31q35 30 36 64q-20 5 -30 18 t-10 33z" />
<glyph unicode="&#x137;" horiz-adv-x="555" d="M303 488h212v-72h-45l-131 -112l142 -232l64 -9v-57q-19 -7 -41.5 -10t-38.5 -3q-20 0 -38.5 6t-33.5 31l-129 217q-17 -14 -32.5 -28t-32.5 -28v-120h62v-71h-236v71h68v569h-75v71h181v-422l148 127h-44v72zM255 -96q0 23 17.5 39.5t43.5 16.5q30 0 46.5 -20t15.5 -48 q-1 -42 -26.5 -78t-67.5 -56l-25 31q35 30 36 64q-20 5 -30 18t-10 33z" />
<glyph unicode="&#x138;" horiz-adv-x="555" d="M303 488h212v-72h-45l-131 -112l142 -232l64 -9v-57q-19 -7 -41.5 -10t-38.5 -3q-20 0 -38.5 6t-33.5 31l-129 217q-17 -14 -32.5 -28t-32.5 -28v-120h62v-71h-236v71h68v345h-75v71h181v-198l148 127h-44v72z" />
<glyph unicode="&#x139;" horiz-adv-x="591" d="M42 0v77h68v531h-66v77h249v-77h-72v-531h279v122h82v-199h-540zM175 732l-40 38l134 164l64 -63z" />
<glyph unicode="&#x13a;" horiz-adv-x="320" d="M218 75h69v-75h-243v75h68v562h-75v76h181v-638zM156 742l-40 38l134 164l64 -63z" />
<glyph unicode="&#x13b;" horiz-adv-x="591" d="M42 0v77h68v531h-66v77h249v-77h-72v-531h279v122h82v-199h-540zM239 -96q0 23 17.5 39.5t43.5 16.5q30 0 46.5 -20t15.5 -48q-1 -42 -26.5 -78t-67.5 -56l-25 31q35 30 36 64q-20 5 -30 18t-10 33z" />
<glyph unicode="&#x13c;" horiz-adv-x="320" d="M218 75h69v-75h-243v75h68v562h-75v76h181v-638zM109 -96q0 23 17.5 39.5t43.5 16.5q30 0 46.5 -20t15.5 -48q-1 -42 -26.5 -78t-67.5 -56l-25 31q35 30 36 64q-20 5 -30 18t-10 33z" />
<glyph unicode="&#x13d;" horiz-adv-x="591" d="M42 0v77h68v531h-66v77h249v-77h-72v-531h279v122h82v-199h-540zM410 625q0 23 17.5 39.5t43.5 16.5q30 0 46.5 -20t15.5 -48q-1 -42 -26.5 -78t-67.5 -56l-25 31q35 30 36 64q-20 5 -30 18t-10 33z" />
<glyph unicode="&#x13e;" horiz-adv-x="437" d="M295 662q0 23 17.5 39.5t43.5 16.5q30 0 46.5 -20t15.5 -48q-1 -42 -26.5 -78t-67.5 -56l-25 31q35 30 36 64q-20 5 -30 18t-10 33zM218 75h69v-75h-243v75h68v562h-75v76h181v-638z" />
<glyph unicode="&#x13f;" horiz-adv-x="591" d="M42 0v77h68v531h-66v77h249v-77h-72v-531h279v122h82v-199h-540zM504 398q0 -29 -20.5 -48.5t-48.5 -19.5q-29 0 -48.5 19.5t-19.5 48.5t19.5 49t48.5 20q28 0 48.5 -20t20.5 -49z" />
<glyph unicode="&#x140;" horiz-adv-x="437" d="M426 359q0 -29 -20.5 -48.5t-48.5 -19.5q-29 0 -48.5 19.5t-19.5 48.5t19.5 49t48.5 20q28 0 48.5 -20t20.5 -49zM218 75h69v-75h-243v75h68v562h-75v76h181v-638z" />
<glyph unicode="&#x141;" horiz-adv-x="584" d="M42 0v75h68v158l-65 -38l-31 48l96 56v312h-66v74h249v-74h-72v-249l115 66l30 -47l-145 -83v-223h268v124h82v-199h-529z" />
<glyph unicode="&#x142;" horiz-adv-x="320" d="M217 71h69v-71h-242v71h68v215l-83 -48l-29 48q28 16 55.5 32t56.5 32v290h-77v73h182v-301l88 50q8 -12 14.5 -24t14.5 -23q-29 -17 -58.5 -34t-58.5 -34v-276z" />
<glyph unicode="&#x143;" horiz-adv-x="770" d="M558 169v439h-69v77h238v-77h-66v-608h-106l-160 246q-30 46 -60.5 92.5t-60.5 94.5q-15 24 -30 48.5t-31 48.5q-1 0 -1 -0.5t-1 -0.5v-453h68q0 -19 0.5 -38t0.5 -38h-240q0 19 -0.5 38t-0.5 38h69q0 134 0.5 266t0.5 266h-69v77h186q48 -75 83.5 -131.5t64.5 -100.5 l111 -175l34 -54t34 -55h5zM383 732l-40 38l134 164l64 -63z" />
<glyph unicode="&#x144;" horiz-adv-x="611" d="M365 500q53 0 83 -17.5t44.5 -42.5t18 -53.5t3.5 -49.5v-261h74v-63q-21 -10 -50 -14.5t-49 -4.5q-30 0 -46 9.5t-24 22.5t-9.5 26t-1.5 21v244q0 25 -3 43t-11 30t-24 18t-41 6q-31 0 -67.5 -14t-64.5 -31v-369h-106v413h-70v76h176v-43l5 -1q42 27 84 41t79 14z M250 534l-40 37l133 165l64 -63z" />
<glyph unicode="&#x145;" horiz-adv-x="770" d="M558 169v439h-69v77h238v-77h-66v-608h-106l-160 246q-30 46 -60.5 92.5t-60.5 94.5q-15 24 -30 48.5t-31 48.5q-1 0 -1 -0.5t-1 -0.5v-453h68q0 -19 0.5 -38t0.5 -38h-240q0 19 -0.5 38t-0.5 38h69q0 134 0.5 266t0.5 266h-69v77h186q48 -75 83.5 -131.5t64.5 -100.5 l111 -175l34 -54t34 -55h5zM329 -96q0 23 17.5 39.5t43.5 16.5q30 0 46.5 -20t15.5 -48q-1 -42 -26.5 -78t-67.5 -56l-25 31q35 30 36 64q-20 5 -30 18t-10 33z" />
<glyph unicode="&#x146;" horiz-adv-x="611" d="M365 500q53 0 83 -17.5t44.5 -42.5t18 -53.5t3.5 -49.5v-261h74v-63q-21 -10 -50 -14.5t-49 -4.5q-30 0 -46 9.5t-24 22.5t-9.5 26t-1.5 21v244q0 25 -3 43t-11 30t-24 18t-41 6q-31 0 -67.5 -14t-64.5 -31v-369h-106v413h-70v76h176v-43l5 -1q42 27 84 41t79 14z M256 -96q0 23 17.5 39.5t43.5 16.5q30 0 46.5 -20t15.5 -48q-1 -42 -26.5 -78t-67.5 -56l-25 31q35 30 36 64q-20 5 -30 18t-10 33z" />
<glyph unicode="&#x147;" horiz-adv-x="770" d="M558 169v439h-69v77h238v-77h-66v-608h-106l-160 246q-30 46 -60.5 92.5t-60.5 94.5q-15 24 -30 48.5t-31 48.5q-1 0 -1 -0.5t-1 -0.5v-453h68q0 -19 0.5 -38t0.5 -38h-240q0 19 -0.5 38t-0.5 38h69q0 134 0.5 266t0.5 266h-69v77h186q48 -75 83.5 -131.5t64.5 -100.5 l111 -175l34 -54t34 -55h5zM562 877l-154 -139h-68l-152 141l27 32l159 -100l159 101z" />
<glyph unicode="&#x148;" horiz-adv-x="611" d="M365 500q53 0 83 -17.5t44.5 -42.5t18 -53.5t3.5 -49.5v-261h74v-63q-21 -10 -50 -14.5t-49 -4.5q-30 0 -46 9.5t-24 22.5t-9.5 26t-1.5 21v244q0 25 -3 43t-11 30t-24 18t-41 6q-31 0 -67.5 -14t-64.5 -31v-369h-106v413h-70v76h176v-43l5 -1q42 27 84 41t79 14z M462 689l-153 -144h-69l-152 146l28 33l158 -100l160 99z" />
<glyph unicode="&#x149;" horiz-adv-x="749" d="M503 500q53 0 83 -17.5t44.5 -42.5t18 -53.5t3.5 -49.5v-261h74v-63q-21 -10 -50 -14.5t-49 -4.5q-30 0 -46 9.5t-24 22.5t-9.5 26t-1.5 21v244q0 25 -3 43t-11 30t-24 18t-41 6q-31 0 -67.5 -14t-64.5 -31v-369h-106v413h-70v76h176v-43l5 -1q42 27 84 41t79 14zM10 619 q0 23 17.5 39.5t43.5 16.5q30 0 46.5 -20t15.5 -48q-1 -42 -26.5 -78t-67.5 -56l-25 31q35 30 36 64q-20 5 -30 18t-10 33z" />
<glyph unicode="&#x14a;" horiz-adv-x="770" d="M403 -111q17 -2 35 -3.5t34 -1.5q17 0 33 3.5t28.5 12.5t20 23t7.5 35v42q-13 21 -36 56.5t-52 80.5t-62 96.5t-67 104t-68 104t-63 95.5h-2v-462h69v-75h-240v75h69v535h-69v75h182q13 -20 39.5 -60.5t60 -92t70 -108t69 -107.5t57.5 -90.5t35 -57.5h5v441h-69v75h238 v-75h-66v-549v-57t-2 -57q-3 -70 -46 -107.5t-125 -37.5q-21 0 -47.5 3t-48.5 8l11 76v0z" />
<glyph unicode="&#x14b;" horiz-adv-x="577" d="M366 500q49 0 79 -14t46 -36.5t21 -52t5 -59.5v-284q0 -51 -5 -92t-22.5 -69.5t-52.5 -44t-95 -15.5q-20 0 -47.5 2.5t-49.5 7.5l11 79q16 -1 32.5 -2.5t33.5 -1.5q18 0 34 3t28.5 12t19.5 24.5t7 40.5v316q0 50 -16 76t-64 26q-31 0 -67.5 -13.5t-64.5 -30.5v-372h-107 v417h-70v72h176v-42l3 -2q41 26 85.5 40.5t79.5 14.5z" />
<glyph unicode="&#x14c;" horiz-adv-x="705" d="M655 342q0 -75 -19 -139t-56.5 -111.5t-93.5 -74t-130 -26.5q-81 0 -139 25t-95 70.5t-54.5 109.5t-17.5 143q0 72 16.5 137t53.5 114t95 78t141 29q84 0 141.5 -29t92.5 -77.5t50 -113t15 -135.5zM539 339q0 49 -7 98.5t-27 88.5t-56 63.5t-93 24.5t-94 -23t-58.5 -61.5 t-30 -88.5t-8.5 -103q0 -129 44.5 -196.5t146.5 -67.5q48 0 82.5 20.5t57 56t33 84t10.5 104.5zM192 823h338v-76h-338v76z" />
<glyph unicode="&#x14d;" horiz-adv-x="538" d="M498 244q0 -49 -12 -94.5t-39.5 -80.5t-72 -56t-110.5 -21q-62 0 -104.5 20t-69 54.5t-38.5 79.5t-12 96q0 50 13 96.5t41 82t72 57t106 21.5q63 0 106.5 -21.5t70 -56.5t38 -81.5t11.5 -95.5zM389 242q0 31 -4.5 62.5t-17 57t-35 41.5t-58.5 16q-37 0 -61 -15.5 t-38 -40.5t-19.5 -56.5t-5.5 -64.5q0 -34 4.5 -65t17.5 -54.5t36.5 -37.5t62.5 -14q36 0 59 15t36 39t18 54.5t5 62.5zM97 664h344v-76h-344v76z" />
<glyph unicode="&#x14e;" horiz-adv-x="705" d="M655 342q0 -75 -19 -139t-56.5 -111.5t-93.5 -74t-130 -26.5q-81 0 -139 25t-95 70.5t-54.5 109.5t-17.5 143q0 72 16.5 137t53.5 114t95 78t141 29q84 0 141.5 -29t92.5 -77.5t50 -113t15 -135.5zM539 339q0 49 -7 98.5t-27 88.5t-56 63.5t-93 24.5t-94 -23t-58.5 -61.5 t-30 -88.5t-8.5 -103q0 -129 44.5 -196.5t146.5 -67.5q48 0 82.5 20.5t57 56t33 84t10.5 104.5zM346 733q-28 0 -52 10t-45 26.5t-39.5 38t-34.5 44.5l52 38q29 -39 61.5 -62t61.5 -23q9 0 22 2t31 9.5t41 23.5t52 44l32 -31q-45 -67 -92.5 -93.5t-89.5 -26.5z" />
<glyph unicode="&#x14f;" horiz-adv-x="538" d="M498 244q0 -49 -12 -94.5t-39.5 -80.5t-72 -56t-110.5 -21q-62 0 -104.5 20t-69 54.5t-38.5 79.5t-12 96q0 50 13 96.5t41 82t72 57t106 21.5q63 0 106.5 -21.5t70 -56.5t38 -81.5t11.5 -95.5zM389 242q0 31 -4.5 62.5t-17 57t-35 41.5t-58.5 16q-37 0 -61 -15.5 t-38 -40.5t-19.5 -56.5t-5.5 -64.5q0 -34 4.5 -65t17.5 -54.5t36.5 -37.5t62.5 -14q36 0 59 15t36 39t18 54.5t5 62.5zM267 551q-27 0 -51.5 10t-45.5 26.5t-39.5 38t-34.5 44.5l52 39q29 -41 61.5 -63t60.5 -22q9 0 22.5 1.5t31.5 9t41 23t52 44.5l32 -31 q-45 -68 -92.5 -94t-89.5 -26z" />
<glyph unicode="&#x150;" horiz-adv-x="705" d="M655 342q0 -75 -19 -139t-56.5 -111.5t-93.5 -74t-130 -26.5q-81 0 -139 25t-95 70.5t-54.5 109.5t-17.5 143q0 72 16.5 137t53.5 114t95 78t141 29q84 0 141.5 -29t92.5 -77.5t50 -113t15 -135.5zM539 339q0 49 -7 98.5t-27 88.5t-56 63.5t-93 24.5t-94 -23t-58.5 -61.5 t-30 -88.5t-8.5 -103q0 -129 44.5 -196.5t146.5 -67.5q48 0 82.5 20.5t57 56t33 84t10.5 104.5zM301 734l-44 34l123 174l69 -56zM438 734l-43 34l122 174l70 -56z" />
<glyph unicode="&#x151;" horiz-adv-x="538" d="M498 244q0 -49 -12 -94.5t-39.5 -80.5t-72 -56t-110.5 -21q-62 0 -104.5 20t-69 54.5t-38.5 79.5t-12 96q0 50 13 96.5t41 82t72 57t106 21.5q63 0 106.5 -21.5t70 -56.5t38 -81.5t11.5 -95.5zM389 242q0 31 -4.5 62.5t-17 57t-35 41.5t-58.5 16q-37 0 -61 -15.5 t-38 -40.5t-19.5 -56.5t-5.5 -64.5q0 -34 4.5 -65t17.5 -54.5t36.5 -37.5t62.5 -14q36 0 59 15t36 39t18 54.5t5 62.5zM187 533l-43 33l123 175l70 -57zM328 533l-43 33l122 175l70 -57z" />
<glyph unicode="&#x152;" horiz-adv-x="846" d="M353 697q27 0 51.5 -3.5t46.5 -9.5h350v-173h-80v97h-234v-215q54 1 108.5 1.5t108.5 2.5v-78q-54 1 -108.5 1.5t-108.5 0.5v-245h247v101h82v-177h-386q-18 -3 -37.5 -5t-39.5 -2q-82 0 -140 24.5t-95 69.5t-54.5 109t-17.5 143q0 72 16.5 137t53.5 114t95.5 78 t141.5 29zM353 71h11t12 1v543q-5 0 -11 0.5t-14 0.5q-57 0 -94 -24t-58 -63t-29.5 -89t-8.5 -103q0 -130 44.5 -198t147.5 -68z" />
<glyph unicode="&#x153;" horiz-adv-x="853" d="M806 41q-45 -24 -92.5 -35t-96.5 -11q-69 0 -111 22t-65 60q-26 -38 -69 -61.5t-109 -23.5q-62 0 -105 20t-69.5 54.5t-38.5 79.5t-12 96q0 50 13 96.5t41 82t72 57t106 21.5q65 0 106 -24.5t65 -64.5q23 38 64.5 64.5t109.5 26.5q71 0 112 -26.5t61.5 -64t25.5 -77 t5 -66.5v-38h-321q0 -32 6.5 -60.5t21.5 -49.5t40.5 -33.5t63.5 -12.5q41 0 76.5 8t75.5 25zM387 242q0 31 -4.5 63t-17.5 57.5t-35.5 42t-59.5 16.5t-60.5 -16t-37 -41.5t-19 -57.5t-5.5 -64q0 -34 4.5 -65.5t18 -55.5t37 -38t62.5 -14q36 0 59 15t36 40t17.5 55.5 t4.5 62.5zM721 281q0 32 -5.5 58.5t-17.5 45.5t-32 29.5t-50 10.5q-31 0 -52.5 -12t-35 -31.5t-20 -46t-8.5 -54.5h221z" />
<glyph unicode="&#x154;" horiz-adv-x="648" d="M460 491q0 32 -10 54.5t-26.5 36.5t-39 20t-46.5 6h-121v-239h121q20 0 41.5 5t39.5 18.5t29.5 37t11.5 61.5zM217 294v-216h77v-78h-251v78h64v530h-64v78h313q105 0 162 -50t57 -144q0 -24 -6 -51t-20.5 -52.5t-38.5 -46t-59 -31.5l108 -236l74 -10v-60 q-20 -8 -46.5 -12t-43.5 -4q-36 0 -53 16t-31 46l-107 243h-135zM278 732l-40 38l134 164l64 -63z" />
<glyph unicode="&#x155;" horiz-adv-x="416" d="M208 419q15 13 36 27.5t45 26.5t49 20t48 8q14 0 21 -7.5t7 -26.5q0 -20 -8 -48t-25 -46l-174 -1v-297h73v-75h-248v75h68v338h-66v76h171v-69zM188 534l-40 37l133 165l64 -63z" />
<glyph unicode="&#x156;" horiz-adv-x="648" d="M460 491q0 32 -10 54.5t-26.5 36.5t-39 20t-46.5 6h-121v-239h121q20 0 41.5 5t39.5 18.5t29.5 37t11.5 61.5zM217 294v-216h77v-78h-251v78h64v530h-64v78h313q105 0 162 -50t57 -144q0 -24 -6 -51t-20.5 -52.5t-38.5 -46t-59 -31.5l108 -236l74 -10v-60 q-20 -8 -46.5 -12t-43.5 -4q-36 0 -53 16t-31 46l-107 243h-135zM264 -96q0 23 17.5 39.5t43.5 16.5q30 0 46.5 -20t15.5 -48q-1 -42 -26.5 -78t-67.5 -56l-25 31q35 30 36 64q-20 5 -30 18t-10 33z" />
<glyph unicode="&#x157;" horiz-adv-x="416" d="M208 419q15 13 36 27.5t45 26.5t49 20t48 8q14 0 21 -7.5t7 -26.5q0 -20 -8 -48t-25 -46l-174 -1v-297h73v-75h-248v75h68v338h-66v76h171v-69zM99 -96q0 23 17.5 39.5t43.5 16.5q30 0 46.5 -20t15.5 -48q-1 -42 -26.5 -78t-67.5 -56l-25 31q35 30 36 64q-20 5 -30 18 t-10 33z" />
<glyph unicode="&#x158;" horiz-adv-x="648" d="M460 491q0 32 -10 54.5t-26.5 36.5t-39 20t-46.5 6h-121v-239h121q20 0 41.5 5t39.5 18.5t29.5 37t11.5 61.5zM217 294v-216h77v-78h-251v78h64v530h-64v78h313q105 0 162 -50t57 -144q0 -24 -6 -51t-20.5 -52.5t-38.5 -46t-59 -31.5l108 -236l74 -10v-60 q-20 -8 -46.5 -12t-43.5 -4q-36 0 -53 16t-31 46l-107 243h-135zM496 877l-154 -139h-68l-152 141l27 32l159 -100l159 101z" />
<glyph unicode="&#x159;" horiz-adv-x="416" d="M208 419q15 13 36 27.5t45 26.5t49 20t48 8q14 0 21 -7.5t7 -26.5q0 -20 -8 -48t-25 -46l-174 -1v-297h73v-75h-248v75h68v338h-66v76h171v-69zM384 689l-153 -144h-69l-152 146l28 33l158 -100l160 99z" />
<glyph unicode="&#x15a;" horiz-adv-x="575" d="M117 187l1 -82q37 -17 75 -23.5t71 -6.5q39 0 68 10t48 25.5t28.5 36t9.5 41.5q0 31 -11.5 50t-32 31t-48 20.5t-60.5 17.5q-46 10 -86 25t-70 36.5t-47.5 52.5t-17.5 74q1 49 20 86.5t51.5 62.5t76 38t94.5 13q22 0 48 -2t52.5 -6.5t52.5 -13t48 -20.5l1 -143h-81l-1 83 q-23 10 -57.5 14t-61.5 4q-26 0 -49.5 -6.5t-41 -19.5t-28 -32.5t-10.5 -44.5q0 -24 12.5 -41.5t33.5 -30.5t48.5 -22.5t57.5 -16.5q42 -10 82.5 -23.5t72.5 -36t51.5 -57t19.5 -87.5t-19.5 -91t-54.5 -63t-84 -36.5t-108 -11.5q-58 0 -119 11t-114 39q0 36 -0.5 72.5 t-0.5 73.5h80zM282 730l-40 38l134 164l64 -63z" />
<glyph unicode="&#x15b;" horiz-adv-x="464" d="M107 149l3 -62q20 -11 48 -15.5t51 -4.5q45 0 76.5 14.5t31.5 50.5q0 18 -7.5 30t-20.5 20.5t-30.5 14.5t-36.5 12q-34 10 -67 20t-59 26t-42 39.5t-16 60.5q0 38 14.5 65t40 44.5t61 26t77.5 8.5q43 0 85.5 -8.5t75.5 -28.5q0 -29 0.5 -58.5t1.5 -59.5h-79l-2 65 q-34 14 -75 14q-38 0 -64.5 -14.5t-26.5 -49.5q0 -15 9.5 -25.5t24 -18t30.5 -12.5t30 -9q30 -9 63 -18.5t60.5 -26.5t45 -44.5t17.5 -72.5q0 -36 -15 -62.5t-42.5 -43.5t-66.5 -25.5t-86 -8.5q-43 0 -94 7.5t-91 30.5l-2 119h77zM197 534l-40 37l133 165l64 -63z" />
<glyph unicode="&#x15c;" horiz-adv-x="575" d="M117 187l1 -82q37 -17 75 -23.5t71 -6.5q39 0 68 10t48 25.5t28.5 36t9.5 41.5q0 31 -11.5 50t-32 31t-48 20.5t-60.5 17.5q-46 10 -86 25t-70 36.5t-47.5 52.5t-17.5 74q1 49 20 86.5t51.5 62.5t76 38t94.5 13q22 0 48 -2t52.5 -6.5t52.5 -13t48 -20.5l1 -143h-81l-1 83 q-23 10 -57.5 14t-61.5 4q-26 0 -49.5 -6.5t-41 -19.5t-28 -32.5t-10.5 -44.5q0 -24 12.5 -41.5t33.5 -30.5t48.5 -22.5t57.5 -16.5q42 -10 82.5 -23.5t72.5 -36t51.5 -57t19.5 -87.5t-19.5 -91t-54.5 -63t-84 -36.5t-108 -11.5q-58 0 -119 11t-114 39q0 36 -0.5 72.5 t-0.5 73.5h80zM451 733l-159 99l-158 -100l-27 33l151 142h69l154 -140z" />
<glyph unicode="&#x15d;" horiz-adv-x="464" d="M107 149l3 -62q20 -11 48 -15.5t51 -4.5q45 0 76.5 14.5t31.5 50.5q0 18 -7.5 30t-20.5 20.5t-30.5 14.5t-36.5 12q-34 10 -67 20t-59 26t-42 39.5t-16 60.5q0 38 14.5 65t40 44.5t61 26t77.5 8.5q43 0 85.5 -8.5t75.5 -28.5q0 -29 0.5 -58.5t1.5 -59.5h-79l-2 65 q-34 14 -75 14q-38 0 -64.5 -14.5t-26.5 -49.5q0 -15 9.5 -25.5t24 -18t30.5 -12.5t30 -9q30 -9 63 -18.5t60.5 -26.5t45 -44.5t17.5 -72.5q0 -36 -15 -62.5t-42.5 -43.5t-66.5 -25.5t-86 -8.5q-43 0 -94 7.5t-91 30.5l-2 119h77zM382 531l-159 100l-158 -100l-28 33 l152 146h69l153 -145z" />
<glyph unicode="&#x15e;" horiz-adv-x="575" d="M117 187l1 -82q37 -17 75 -23.5t71 -6.5q39 0 68 10t48 25.5t28.5 36t9.5 41.5q0 31 -11.5 50t-32 31t-48 20.5t-60.5 17.5q-46 10 -86 25t-70 36.5t-47.5 52.5t-17.5 74q1 49 20 86.5t51.5 62.5t76 38t94.5 13q22 0 48 -2t52.5 -6.5t52.5 -13t48 -20.5l1 -143h-81l-1 83 q-23 10 -57.5 14t-61.5 4q-26 0 -49.5 -6.5t-41 -19.5t-28 -32.5t-10.5 -44.5q0 -24 12.5 -41.5t33.5 -30.5t48.5 -22.5t57.5 -16.5q42 -10 82.5 -23.5t72.5 -36t51.5 -57t19.5 -87.5q0 -50 -17.5 -86.5t-49 -61t-75.5 -37.5t-97 -16l-20 -26t-19 -27q49 -2 78.5 -22.5 t29.5 -61.5q-1 -21 -12 -39.5t-33.5 -32.5t-57 -22t-81.5 -8v41q54 5 85 19t31 38q0 13 -9 21t-23 12t-31.5 5t-34.5 1l-14 21l30 40t31 40q-54 2 -108 13t-102 37q0 36 -0.5 72.5t-0.5 73.5h80z" />
<glyph unicode="&#x15f;" horiz-adv-x="464" d="M107 149l3 -62q20 -11 48 -15.5t51 -4.5q45 0 76.5 14.5t31.5 50.5q0 18 -7.5 30t-20.5 20.5t-30.5 14.5t-36.5 12q-34 10 -67 20t-59 26t-42 39.5t-16 60.5q0 38 14.5 65t40 44.5t61 26t77.5 8.5q43 0 85.5 -8.5t75.5 -28.5q0 -29 0.5 -58.5t1.5 -59.5h-79l-2 65 q-34 14 -75 14q-38 0 -64.5 -14.5t-26.5 -49.5q0 -15 9.5 -25.5t24 -18t30.5 -12.5t30 -9q30 -9 63 -18.5t60.5 -26.5t45 -44.5t17.5 -72.5q0 -65 -46.5 -98.5t-124.5 -39.5q-11 -14 -21 -27.5t-20 -27.5q49 -2 78.5 -22.5t29.5 -61.5q-1 -21 -12 -39.5t-33.5 -32.5t-57 -22 t-81.5 -8v41q54 5 85 19t31 38q0 13 -9 21t-23 12t-31.5 5t-34.5 1l-14 21q16 20 31 40.5t30 40.5q-42 1 -88.5 9t-83.5 29l-2 119h77z" />
<glyph unicode="&#x160;" horiz-adv-x="575" d="M117 187l1 -82q37 -17 75 -23.5t71 -6.5q39 0 68 10t48 25.5t28.5 36t9.5 41.5q0 31 -11.5 50t-32 31t-48 20.5t-60.5 17.5q-46 10 -86 25t-70 36.5t-47.5 52.5t-17.5 74q1 49 20 86.5t51.5 62.5t76 38t94.5 13q22 0 48 -2t52.5 -6.5t52.5 -13t48 -20.5l1 -143h-81l-1 83 q-23 10 -57.5 14t-61.5 4q-26 0 -49.5 -6.5t-41 -19.5t-28 -32.5t-10.5 -44.5q0 -24 12.5 -41.5t33.5 -30.5t48.5 -22.5t57.5 -16.5q42 -10 82.5 -23.5t72.5 -36t51.5 -57t19.5 -87.5t-19.5 -91t-54.5 -63t-84 -36.5t-108 -11.5q-58 0 -119 11t-114 39q0 36 -0.5 72.5 t-0.5 73.5h80zM486 877l-154 -139h-68l-152 141l27 32l159 -100l159 101z" />
<glyph unicode="&#x161;" horiz-adv-x="464" d="M107 149l3 -62q20 -11 48 -15.5t51 -4.5q45 0 76.5 14.5t31.5 50.5q0 18 -7.5 30t-20.5 20.5t-30.5 14.5t-36.5 12q-34 10 -67 20t-59 26t-42 39.5t-16 60.5q0 38 14.5 65t40 44.5t61 26t77.5 8.5q43 0 85.5 -8.5t75.5 -28.5q0 -29 0.5 -58.5t1.5 -59.5h-79l-2 65 q-34 14 -75 14q-38 0 -64.5 -14.5t-26.5 -49.5q0 -15 9.5 -25.5t24 -18t30.5 -12.5t30 -9q30 -9 63 -18.5t60.5 -26.5t45 -44.5t17.5 -72.5q0 -36 -15 -62.5t-42.5 -43.5t-66.5 -25.5t-86 -8.5q-43 0 -94 7.5t-91 30.5l-2 119h77zM419 689l-153 -144h-69l-152 146l28 33 l158 -100l160 99z" />
<glyph unicode="&#x162;" horiz-adv-x="587" d="M158 0v77h82v531h-145v-109h-80v187h558v-187h-81v109h-143v-531h82v-77h-273zM238 -96q0 23 17.5 39.5t43.5 16.5q30 0 46.5 -20t15.5 -48q-1 -42 -26.5 -78t-67.5 -56l-25 31q35 30 36 64q-20 5 -30 18t-10 33z" />
<glyph unicode="&#x163;" horiz-adv-x="391" d="M194 618v-129h145v-76h-146v-255q0 -19 2.5 -33.5t9.5 -24.5t20 -15.5t35 -5.5q17 0 39.5 3t50.5 11l16 -72q-29 -13 -64.5 -20t-66.5 -7q-42 0 -70.5 9t-45.5 26t-24 41t-7 54v289h-70v60l75 23l30 113zM154 -96q0 23 17.5 39.5t43.5 16.5q30 0 46.5 -20t15.5 -48 q-1 -42 -26.5 -78t-67.5 -56l-25 31q35 30 36 64q-20 5 -30 18t-10 33z" />
<glyph unicode="&#x164;" horiz-adv-x="587" d="M158 0v77h82v531h-145v-109h-80v187h558v-187h-81v109h-143v-531h82v-77h-273zM485 877l-154 -139h-68l-152 141l27 32l159 -100l159 101z" />
<glyph unicode="&#x165;" horiz-adv-x="483" d="M341 651q0 23 17.5 39.5t43.5 16.5q30 0 46.5 -20t15.5 -48q-1 -42 -26.5 -78t-67.5 -56l-25 31q35 30 36 64q-20 5 -30 18t-10 33zM194 618v-129h145v-76h-146v-255q0 -19 2.5 -33.5t9.5 -24.5t20 -15.5t35 -5.5q17 0 39.5 3t50.5 11l16 -72q-29 -13 -64.5 -20t-66.5 -7 q-42 0 -70.5 9t-45.5 26t-24 41t-7 54v289h-70v60l75 23l30 113z" />
<glyph unicode="&#x166;" horiz-adv-x="587" d="M158 0v75h82v255h-152v58h152v223h-143v-106h-80v181h553v-181h-80v106h-141v-223h147v-58h-147v-255h82v-75h-273z" />
<glyph unicode="&#x167;" horiz-adv-x="391" d="M194 618v-129h145v-76h-146v-73h140v-57h-140v-125q0 -19 2.5 -33.5t9.5 -24.5t20 -15.5t35 -5.5q17 0 39.5 3t50.5 11l16 -72q-29 -13 -64.5 -20t-66.5 -7q-42 0 -70.5 9t-45.5 26t-24 41t-7 54v159h-68v57h68v73h-70v60l75 23l30 113z" />
<glyph unicode="&#x168;" horiz-adv-x="728" d="M635 249q0 -118 -66.5 -187.5t-205.5 -69.5q-72 0 -123.5 17.5t-84.5 50.5t-48.5 81t-15.5 108v359h-59v78h235v-78h-68v-358q0 -88 42.5 -131t122.5 -43q78 0 121 42t43 132v358h-67v78h235v-78h-61v-359zM439 757q-24 0 -46 6t-41.5 13.5t-37 13.5t-32.5 6l-57 -39 l-33 26q14 40 38.5 61t55.5 21q19 0 40 -6t41.5 -13t40 -13t34.5 -6l56 40l33 -26q-13 -38 -36.5 -61t-55.5 -23z" />
<glyph unicode="&#x169;" horiz-adv-x="601" d="M238 -11q-47 0 -75.5 13t-44 35t-21 50t-5.5 58v267h-70v77h177v-326q0 -21 2 -37t9.5 -27t21.5 -16.5t38 -5.5t60.5 12t69.5 43v280h-63v77h170v-413h69v-63q-28 -11 -54 -15t-43 -4q-37 0 -54.5 13.5t-21.5 49.5q-45 -41 -89 -54.5t-76 -13.5zM378 568q-24 0 -46 6 t-41.5 13.5t-37 13.5t-32.5 6l-57 -39l-33 26q14 40 38.5 61t55.5 21q19 0 40 -6t41.5 -13t40 -13t34.5 -6l56 40l33 -26q-13 -38 -36.5 -61t-55.5 -23z" />
<glyph unicode="&#x16a;" horiz-adv-x="728" d="M635 249q0 -118 -66.5 -187.5t-205.5 -69.5q-72 0 -123.5 17.5t-84.5 50.5t-48.5 81t-15.5 108v359h-59v78h235v-78h-68v-358q0 -88 42.5 -131t122.5 -43q78 0 121 42t43 132v358h-67v78h235v-78h-61v-359zM200 823h338v-76h-338v76z" />
<glyph unicode="&#x16b;" horiz-adv-x="601" d="M238 -11q-47 0 -75.5 13t-44 35t-21 50t-5.5 58v267h-70v77h177v-326q0 -21 2 -37t9.5 -27t21.5 -16.5t38 -5.5t60.5 12t69.5 43v280h-63v77h170v-413h69v-63q-28 -11 -54 -15t-43 -4q-37 0 -54.5 13.5t-21.5 49.5q-45 -41 -89 -54.5t-76 -13.5zM121 664h344v-76h-344v76 z" />
<glyph unicode="&#x16c;" horiz-adv-x="728" d="M635 249q0 -118 -66.5 -187.5t-205.5 -69.5q-72 0 -123.5 17.5t-84.5 50.5t-48.5 81t-15.5 108v359h-59v78h235v-78h-68v-358q0 -88 42.5 -131t122.5 -43q78 0 121 42t43 132v358h-67v78h235v-78h-61v-359zM358 728q-27 0 -51.5 10t-45.5 26.5t-39.5 38t-34.5 44.5l52 39 q29 -41 61.5 -63t60.5 -22q9 0 22.5 1.5t31.5 9t41 23t52 44.5l32 -31q-45 -68 -92.5 -94t-89.5 -26z" />
<glyph unicode="&#x16d;" horiz-adv-x="601" d="M238 -11q-47 0 -75.5 13t-44 35t-21 50t-5.5 58v267h-70v77h177v-326q0 -21 2 -37t9.5 -27t21.5 -16.5t38 -5.5t60.5 12t69.5 43v280h-63v77h170v-413h69v-63q-28 -11 -54 -15t-43 -4q-37 0 -54.5 13.5t-21.5 49.5q-45 -41 -89 -54.5t-76 -13.5zM283 551q-27 0 -51.5 10 t-45.5 26.5t-39.5 38t-34.5 44.5l52 39q29 -41 61.5 -63t60.5 -22q9 0 22.5 1.5t31.5 9t41 23t52 44.5l32 -31q-45 -68 -92.5 -94t-89.5 -26z" />
<glyph unicode="&#x16e;" horiz-adv-x="728" d="M635 249q0 -118 -66.5 -187.5t-205.5 -69.5q-72 0 -123.5 17.5t-84.5 50.5t-48.5 81t-15.5 108v359h-59v78h235v-78h-68v-358q0 -88 42.5 -131t122.5 -43q78 0 121 42t43 132v358h-67v78h235v-78h-61v-359zM366 712q-24 0 -45.5 9t-37 24t-24.5 35t-9 43q0 22 9 42 t24.5 35.5t37 24.5t45.5 9t44.5 -9t35.5 -24t23.5 -35.5t8.5 -42.5q0 -24 -9 -44t-24 -35t-35.5 -23.5t-43.5 -8.5zM366 879q-25 0 -42 -17.5t-17 -41.5q0 -22 16.5 -39t42.5 -17q23 0 39 17t16 39q0 23 -15.5 41t-39.5 18z" />
<glyph unicode="&#x16f;" horiz-adv-x="601" d="M238 -11q-47 0 -75.5 13t-44 35t-21 50t-5.5 58v267h-70v77h177v-326q0 -21 2 -37t9.5 -27t21.5 -16.5t38 -5.5t60.5 12t69.5 43v280h-63v77h170v-413h69v-63q-28 -11 -54 -15t-43 -4q-37 0 -54.5 13.5t-21.5 49.5q-45 -41 -89 -54.5t-76 -13.5zM286 550q-24 0 -45.5 9 t-37 24t-24.5 35t-9 43q0 22 9 42t24.5 35.5t37 24.5t45.5 9t44.5 -9t35.5 -24t23.5 -35.5t8.5 -42.5q0 -24 -9 -44t-24 -35t-35.5 -23.5t-43.5 -8.5zM286 717q-25 0 -42 -17.5t-17 -41.5q0 -22 16.5 -39t42.5 -17q23 0 39 17t16 39q0 23 -15.5 41t-39.5 18z" />
<glyph unicode="&#x170;" horiz-adv-x="728" d="M635 249q0 -118 -66.5 -187.5t-205.5 -69.5q-72 0 -123.5 17.5t-84.5 50.5t-48.5 81t-15.5 108v359h-59v78h235v-78h-68v-358q0 -88 42.5 -131t122.5 -43q78 0 121 42t43 132v358h-67v78h235v-78h-61v-359zM308 734l-44 34l123 174l69 -56zM445 734l-43 34l122 174 l70 -56z" />
<glyph unicode="&#x171;" horiz-adv-x="601" d="M238 -11q-47 0 -75.5 13t-44 35t-21 50t-5.5 58v267h-70v77h177v-326q0 -21 2 -37t9.5 -27t21.5 -16.5t38 -5.5t60.5 12t69.5 43v280h-63v77h170v-413h69v-63q-28 -11 -54 -15t-43 -4q-37 0 -54.5 13.5t-21.5 49.5q-45 -41 -89 -54.5t-76 -13.5zM202 533l-43 33l123 175 l70 -57zM343 533l-43 33l122 175l70 -57z" />
<glyph unicode="&#x172;" horiz-adv-x="728" d="M635 249q0 -57 -15 -103t-46.5 -79.5t-79 -52.5t-111.5 -22q-18 -26 -29 -54t-11 -49q0 -29 15.5 -39.5t41.5 -10.5q20 0 40 4t34 8l8 -37q-26 -14 -55 -21t-58 -7q-49 0 -74.5 20.5t-25.5 55.5q0 24 12.5 59t50.5 72q-64 3 -109.5 22t-75 52t-43 79t-13.5 103v359h-59 v78h235v-78h-68v-358q0 -88 42.5 -131t122.5 -43q78 0 121 42t43 132v358h-67v78h235v-78h-61v-359z" />
<glyph unicode="&#x173;" horiz-adv-x="601" d="M238 -11q-47 0 -75.5 13t-44 35t-21 50t-5.5 58v267h-70v77h177v-326q0 -21 2 -37t9.5 -27t21.5 -16.5t38 -5.5t60.5 12t69.5 43v280h-63v77h170v-413h69v-63q-21 -8 -41 -12t-37 -6q-16 -25 -25.5 -50.5t-9.5 -45.5q0 -29 15.5 -39.5t41.5 -10.5q20 0 40 4t34 8l8 -37 q-26 -14 -55 -21t-58 -7q-49 0 -74.5 20.5t-25.5 55.5q0 23 11 56.5t46 68.5q-20 5 -30.5 19t-12.5 41q-45 -41 -89 -54.5t-76 -13.5z" />
<glyph unicode="&#x174;" horiz-adv-x="980" d="M491 436l-30 -103l-99 -333h-134l-159 607h-59v79h240v-79h-65l89 -366l31 -133h2l36 133l97 333l-12 33h-66l-1 79h247l1 -79h-69l113 -372l35 -119h2l29 130l83 361h-64v79h236v-79h-62q-9 -36 -21.5 -85.5t-27 -105t-30 -114t-30 -114t-27 -104t-21.5 -84.5h-133 l-100 337l-29 99h-2zM649 733l-159 99l-158 -100l-27 33l151 142h69l154 -140z" />
<glyph unicode="&#x175;" horiz-adv-x="860" d="M610 79l36 137l56 197h-60v76h205v-76l-47 -1l-122 -412h-142l-56 151l-46 129h-5l-43 -129l-53 -151h-146l-120 409h-53v80h134l73 -260l41 -152h5l44 130l64 183l-9 22h-73v77h248v-77h-55l72 -202l48 -131h4zM592 531l-159 100l-158 -100l-28 33l152 146h69l153 -145z " />
<glyph unicode="&#x176;" horiz-adv-x="621" d="M445 607h-59v79h224v-79h-56l-189 -320v-210h80v-77h-273v77h80v207l-185 323h-55v79h227v-79h-58l128 -241h4zM478 733l-159 99l-158 -100l-27 33l151 142h69l154 -140z" />
<glyph unicode="&#x177;" horiz-adv-x="561" d="M277 70q2 7 10.5 32.5t19.5 60t24 74t24.5 75t20.5 63t13 37.5h-59v77h208v-77h-49l-178 -518q-10 -26 -21.5 -46t-27.5 -33.5t-38.5 -21t-55.5 -7.5q-11 0 -42 2.5t-72 15.5l16 84q22 -5 42 -7.5t37 -2.5q24 0 37.5 6t22.5 20.5t18 39t24 62.5h-53q-33 101 -65.5 201.5 t-65.5 202.5h-50v79h129q4 -12 14 -45.5t23.5 -78t28.5 -93.5t27.5 -91.5t21.5 -73t11 -37.5h5zM433 531l-159 100l-158 -100l-28 33l152 146h69l153 -145z" />
<glyph unicode="&#x178;" horiz-adv-x="621" d="M445 607h-59v79h224v-79h-56l-189 -320v-210h80v-77h-273v77h80v207l-185 323h-55v79h227v-79h-58l128 -241h4zM458 781q0 -23 -16 -37t-40 -14q-21 0 -35 14t-14 37q0 22 14.5 37t34.5 15q24 0 40 -14.5t16 -37.5zM267 781q0 -23 -15.5 -37t-37.5 -14q-23 0 -38 14 t-15 37q0 22 15.5 37t35.5 15q23 0 39 -14.5t16 -37.5z" />
<glyph unicode="&#x179;" horiz-adv-x="565" d="M156 78h305v121h83v-199h-521v76l367 532h-261v-107h-82v185h477v-76zM290 732l-40 38l134 164l64 -63z" />
<glyph unicode="&#x17a;" horiz-adv-x="475" d="M157 73h212v75h77v-148h-420v67l280 348h-185v-77h-76v151h392v-66zM200 534l-40 37l133 165l64 -63z" />
<glyph unicode="&#x17b;" horiz-adv-x="565" d="M156 78h305v121h83v-199h-521v76l367 532h-261v-107h-82v185h477v-76zM369 819q0 -29 -20.5 -48.5t-48.5 -19.5q-29 0 -48.5 19.5t-19.5 48.5t19.5 49t48.5 20q28 0 48.5 -20t20.5 -49z" />
<glyph unicode="&#x17c;" horiz-adv-x="475" d="M157 73h212v75h77v-148h-420v67l280 348h-185v-77h-76v151h392v-66zM320 627q0 -29 -20.5 -48.5t-48.5 -19.5q-29 0 -48.5 19.5t-19.5 48.5t19.5 49t48.5 20q28 0 48.5 -20t20.5 -49z" />
<glyph unicode="&#x17d;" horiz-adv-x="565" d="M156 78h305v121h83v-199h-521v76l367 532h-261v-107h-82v185h477v-76zM486 877l-154 -139h-68l-152 141l27 32l159 -100l159 101z" />
<glyph unicode="&#x17e;" horiz-adv-x="475" d="M157 73h212v75h77v-148h-420v67l280 348h-185v-77h-76v151h392v-66zM426 689l-153 -144h-69l-152 146l28 33l158 -100l160 99z" />
<glyph unicode="&#x192;" horiz-adv-x="575" d="M158 397h96q4 45 11 94.5t26 90.5t54.5 68t95.5 27q24 0 51 -3.5t53 -12.5l-19 -70q-23 5 -36 6.5t-30 1.5q-32 0 -50 -12.5t-28.5 -38t-16.5 -63.5t-12 -88h102v-69h-108q-9 -55 -14.5 -109.5t-12 -104t-17.5 -92t-31.5 -74t-53 -49.5t-82.5 -18q-23 0 -50 3.5t-53 14.5 l21 70q21 -6 33.5 -7.5t26.5 -1.5q47 0 68 29t33 94q4 24 8.5 57t8.5 67.5t7.5 66.5t6.5 54h-88v69z" />
<glyph unicode="&#x1a0;" horiz-adv-x="731" d="M655 342q0 -75 -19 -139t-56.5 -111.5t-93.5 -74t-130 -26.5q-81 0 -139 25t-95 70.5t-54.5 109.5t-17.5 143q0 72 16.5 137t53.5 114t95 78t141 29q81 0 135.5 -26.5t89.5 -71.5h13q72 0 72 82v73h65v-82q0 -24 -5 -47t-17 -41.5t-33.5 -31t-54.5 -15.5q18 -43 26 -92.5 t8 -102.5zM539 339q0 49 -7 99t-27 89.5t-56 64.5t-93 25t-94 -23.5t-58.5 -62.5t-30 -89.5t-8.5 -103.5q0 -129 44.5 -197.5t146.5 -68.5q48 0 82.5 20.5t57 56.5t33 85t10.5 105z" />
<glyph unicode="&#x1a1;" horiz-adv-x="578" d="M498 244q0 -49 -12 -94.5t-39.5 -80.5t-72 -56t-110.5 -21q-62 0 -104.5 20t-69 54.5t-38.5 79.5t-12 96q0 50 13 96.5t41 82t72 57t106 21.5q64 0 107.5 -21.5t70.5 -58.5q32 2 47 23.5t15 58.5v73h66v-82q0 -23 -4.5 -45t-15 -40t-29.5 -30.5t-47 -17.5q8 -26 12 -56 t4 -59zM389 242q0 31 -4.5 63t-17.5 57.5t-35.5 42t-59.5 16.5t-60.5 -16t-37 -41.5t-19 -57.5t-5.5 -64q0 -34 4.5 -65.5t18 -55.5t37 -38t62.5 -14q36 0 59 15t35.5 40t17.5 55.5t5 62.5z" />
<glyph unicode="&#x1af;" horiz-adv-x="808" d="M635 573h34q37 0 54.5 16.5t17.5 55.5v107h65v-112q0 -24 -5.5 -47.5t-20.5 -41.5t-40 -29.5t-64 -11.5h-41v-261q0 -118 -66.5 -187.5t-205.5 -69.5q-72 0 -123.5 17.5t-84.5 50.5t-48.5 81t-15.5 108v365h-59v72h235v-72h-68v-368q0 -88 42.5 -131t122.5 -43 q78 0 121 42t43 132v368h-67v72h221v-72h-47v-41z" />
<glyph unicode="&#x1b0;" horiz-adv-x="650" d="M238 -11q-47 0 -75.5 13t-44 35t-21 50t-5.5 58v271h-70v73h177v-316q0 -47 12.5 -72.5t54.5 -25.5q24 0 61.5 11t72.5 43v287h-63v73q43 0 85 0.5t84 0.5l1 -1q0 -18 -0.5 -35t-0.5 -34h4q37 0 53.5 18.5t16.5 57.5v80h66v-83q0 -26 -5.5 -50.5t-20 -43.5t-40 -30.5 t-64.5 -11.5h-10v-281h67q0 -17 1 -32.5t2 -30.5q-28 -11 -54 -15t-43 -4q-37 0 -54.5 13.5t-21.5 49.5q-45 -41 -89 -54.5t-76 -13.5z" />
<glyph unicode="&#x1fc;" horiz-adv-x="985" d="M509 205h-250l-80 -130h68v-75h-241v75h59l334 534h-55v76h587v-173h-81v99h-231v-218l217 5v-79l-217 4v-248h244v102h82v-177h-505v75h69v130zM302 280h207v325h-5zM590 732l-40 38l134 164l64 -63z" />
<glyph unicode="&#x1fd;" horiz-adv-x="809" d="M575 500q71 0 111 -26.5t60 -64t25 -77.5t5 -67v-39h-318q0 -33 6 -61t21 -48.5t40.5 -32.5t63.5 -12q41 0 76.5 8t75.5 24l22 -65q-45 -24 -92 -35t-95 -11q-71 0 -112.5 19.5t-66.5 55.5q-36 -28 -68 -43.5t-59.5 -23t-49.5 -9t-37 -1.5q-46 0 -75 14.5t-46 35.5 t-23.5 45.5t-6.5 45.5q0 29 10.5 56t32 47.5t55 32.5t79.5 12h144v36q0 57 -26 79t-83 22q-40 0 -79.5 -7t-74.5 -19l-20 68q42 19 95 29.5t101 10.5q49 0 90.5 -17t59.5 -57q24 33 62.5 54t96.5 21zM227 63q12 0 30 3.5t37.5 11t39.5 17.5t35 24q-8 24 -12 50.5t-5 55.5 h-112q-48 0 -72.5 -21.5t-24.5 -58.5q0 -82 84 -82zM575 423q-31 0 -52 -12t-34.5 -31.5t-20 -45.5t-8.5 -54h219q0 32 -5 58.5t-17 45t-32 29t-50 10.5zM411 534l-40 37l133 165l64 -63z" />
<glyph unicode="&#x1fe;" horiz-adv-x="705" d="M655 342q0 -75 -19 -139t-56.5 -111.5t-93.5 -74t-130 -26.5q-68 0 -118.5 17t-86.5 49l-50 -64h-54l74 94q-37 46 -54 109.5t-17 142.5q0 72 16.5 137t53.5 114t95 78t141 29q64 0 111.5 -16.5t82.5 -47.5l50 66h58l-77 -96q40 -51 57 -118.5t17 -142.5zM539 339 q0 45 -7 91t-25 84l-293 -381q24 -31 58.5 -46t83.5 -15q48 0 82.5 20.5t57 56.5t33 85t10.5 105zM165 338q0 -104 29 -162l292 380q-21 28 -52.5 44.5t-77.5 16.5q-57 0 -94 -23.5t-58.5 -62.5t-30 -89.5t-8.5 -103.5zM363 732l-40 38l134 164l64 -63z" />
<glyph unicode="&#x1ff;" horiz-adv-x="538" d="M271 499q48 0 83.5 -12.5t61.5 -34.5q9 12 18.5 23t18.5 23q11 0 23 0.5t24 0.5l-58 -71q30 -36 43 -84t13 -101q0 -49 -12 -94t-39.5 -79.5t-72.5 -55.5t-111 -21q-93 0 -144 42l-34 -41q-13 0 -25 -0.5t-24 -0.5l56 67q-29 35 -40.5 82t-11.5 100q0 50 13 96.5t40.5 82 t71.5 57t106 21.5zM387 242q0 26 -3.5 54t-14.5 51q-48 -61 -93.5 -121.5t-93.5 -121.5q14 -16 35.5 -25.5t53.5 -9.5q36 0 59 15t35.5 39.5t17 55.5t4.5 63zM271 420q-35 0 -58.5 -15t-37.5 -39.5t-20 -55.5t-6 -62q0 -27 3 -55t14 -51q47 60 93 120t94 120 q-14 17 -33.5 27.5t-48.5 10.5zM260 534l-40 37l133 165l64 -63z" />
<glyph unicode="&#x218;" horiz-adv-x="575" d="M117 187l1 -82q37 -17 75 -23.5t71 -6.5q39 0 68 10t48 25.5t28.5 36t9.5 41.5q0 31 -11.5 50t-32 31t-48 20.5t-60.5 17.5q-46 10 -86 25t-70 36.5t-47.5 52.5t-17.5 74q1 49 20 86.5t51.5 62.5t76 38t94.5 13q22 0 48 -2t52.5 -6.5t52.5 -13t48 -20.5l1 -143h-81l-1 83 q-23 10 -57.5 14t-61.5 4q-26 0 -49.5 -6.5t-41 -19.5t-28 -32.5t-10.5 -44.5q0 -24 12.5 -41.5t33.5 -30.5t48.5 -22.5t57.5 -16.5q42 -10 82.5 -23.5t72.5 -36t51.5 -57t19.5 -87.5t-19.5 -91t-54.5 -63t-84 -36.5t-108 -11.5q-58 0 -119 11t-114 39q0 36 -0.5 72.5 t-0.5 73.5h80zM221 -96q0 23 17.5 39.5t43.5 16.5q30 0 46.5 -20t15.5 -48q-1 -42 -26.5 -78t-67.5 -56l-25 31q35 30 36 64q-20 5 -30 18t-10 33z" />
<glyph unicode="&#x219;" horiz-adv-x="464" d="M107 149l3 -62q20 -11 48 -15.5t51 -4.5q45 0 76.5 14.5t31.5 50.5q0 18 -7.5 30t-20.5 20.5t-30.5 14.5t-36.5 12q-34 10 -67 20t-59 26t-42 39.5t-16 60.5q0 38 14.5 65t40 44.5t61 26t77.5 8.5q43 0 85.5 -8.5t75.5 -28.5q0 -29 0.5 -58.5t1.5 -59.5h-79l-2 65 q-34 14 -75 14q-38 0 -64.5 -14.5t-26.5 -49.5q0 -15 9.5 -25.5t24 -18t30.5 -12.5t30 -9q30 -9 63 -18.5t60.5 -26.5t45 -44.5t17.5 -72.5q0 -36 -15 -62.5t-42.5 -43.5t-66.5 -25.5t-86 -8.5q-43 0 -94 7.5t-91 30.5l-2 119h77zM164 -96q0 23 17.5 39.5t43.5 16.5 q30 0 46.5 -20t15.5 -48q-1 -42 -26.5 -78t-67.5 -56l-25 31q35 30 36 64q-20 5 -30 18t-10 33z" />
<glyph unicode="&#x259;" horiz-adv-x="505" d="M247 70q31 0 52.5 12t35 31.5t20 45.5t8.5 54h-220q0 -32 5 -58.5t17 -45t32 -29t50 -10.5zM247 -7q-47 0 -80.5 12.5t-56 32.5t-36 46t-20 52t-8.5 50.5t-2 42.5v36h321q0 33 -6.5 61.5t-21.5 49.5t-40.5 33.5t-63.5 12.5q-41 0 -76.5 -8.5t-75.5 -24.5l-24 64 q45 26 92.5 36.5t96.5 10.5q69 0 112.5 -20t69 -54.5t35 -79.5t9.5 -96q0 -36 -8.5 -80.5t-33.5 -84t-69 -66t-114 -26.5z" />
<glyph unicode="&#x2b9;" horiz-adv-x="234" d="M84 384l-44 26l146 285l74 -42z" />
<glyph unicode="&#x2c6;" horiz-adv-x="526" d="M421 531l-159 100l-158 -100l-28 33l152 146h69l153 -145z" />
<glyph unicode="&#x2c7;" horiz-adv-x="526" d="M450 689l-153 -144h-69l-152 146l28 33l158 -100l160 99z" />
<glyph unicode="&#x2d8;" horiz-adv-x="544" d="M266 551q-27 0 -51.5 10t-45.5 26.5t-39.5 38t-34.5 44.5l52 39q29 -41 61.5 -63t60.5 -22q9 0 22.5 1.5t31.5 9t41 23t52 44.5l32 -31q-45 -68 -92.5 -94t-89.5 -26z" />
<glyph unicode="&#x2d9;" horiz-adv-x="527" d="M337 627q0 -29 -20.5 -48.5t-48.5 -19.5q-29 0 -48.5 19.5t-19.5 48.5t19.5 49t48.5 20q28 0 48.5 -20t20.5 -49z" />
<glyph unicode="&#x2da;" horiz-adv-x="527" d="M267 550q-24 0 -45.5 9t-37 24t-24.5 35t-9 43q0 22 9 42t24.5 35.5t37 24.5t45.5 9t44.5 -9t35.5 -24t23.5 -35.5t8.5 -42.5q0 -24 -9 -44t-24 -35t-35.5 -23.5t-43.5 -8.5zM267 717q-25 0 -42 -17.5t-17 -41.5q0 -22 16.5 -39t42.5 -17q23 0 39 17t16 39q0 23 -15.5 41 t-39.5 18z" />
<glyph unicode="&#x2db;" horiz-adv-x="546" d="M431 14q-13 -14 -24 -31t-19 -34t-12.5 -33.5t-4.5 -29.5q0 -29 15.5 -39.5t41.5 -10.5q20 0 40 4t34 8l8 -37q-26 -14 -55 -21t-58 -7q-49 0 -74.5 20.5t-25.5 55.5q0 15 4.5 35t17 42.5t35 46.5t57.5 47z" />
<glyph unicode="&#x2dc;" horiz-adv-x="526" d="M343 568q-24 0 -46 6t-41.5 13.5t-37 13.5t-32.5 6l-57 -39l-33 26q14 40 38.5 61t55.5 21q19 0 40 -6t41.5 -13t40 -13t34.5 -6l56 40l33 -26q-13 -38 -36.5 -61t-55.5 -23z" />
<glyph unicode="&#x2dd;" horiz-adv-x="527" d="M171 533l-43 33l123 175l70 -57zM312 533l-43 33l122 175l70 -57z" />
<glyph unicode="&#x384;" horiz-adv-x="505" d="M242 533l-45 30l113 177l77 -52z" />
<glyph unicode="&#x385;" horiz-adv-x="497" d="M420 607q0 -21 -16 -35t-37 -14q-22 0 -35.5 14t-13.5 35q0 22 15 36.5t35 14.5q22 0 37 -14t15 -37zM173 607q0 -21 -15 -35t-37 -14t-36.5 14t-14.5 35q0 22 14.5 36.5t34.5 14.5q23 0 38.5 -14t15.5 -37zM229 533l-48 21l79 196l82 -39z" />
<glyph unicode="&#x386;" horiz-adv-x="697" d="M510 76q-8 26 -18 57.5t-18 55.5h-257q-7 -21 -17 -53t-18 -60h68v-76h-230v76h56l207 610h137q49 -149 101 -305t101 -305h56v-76h-234v76h66zM451 265q-20 68 -41 134.5t-43 134.5q-4 15 -8.5 30t-9.5 30h-2l-19 -61q-9 -27 -20 -61.5t-23 -71t-23 -72t-19 -63.5h208z M27 520l-45 30l113 177l77 -52z" />
<glyph unicode="&#x387;" horiz-adv-x="228" d="M179 360q0 -28 -19 -47t-45 -19q-27 0 -46.5 19t-19.5 47q0 26 19.5 45t45.5 19q27 0 46 -19t19 -45z" />
<glyph unicode="&#x388;" horiz-adv-x="607" d="M42 0v78h68v530h-66v77h519v-179h-81v102h-262v-215l243 5v-79l-243 4v-245h275v105h82v-183h-535zM-158 521l-45 30l113 177l77 -52z" />
<glyph unicode="&#x389;" horiz-adv-x="739" d="M457 0v77h62v244h-301v-244h63v-77h-240v77h67v531h-67v77h240v-77h-63v-213h301v213h-62v77h240v-77h-67v-531h67v-77h-240zM-160 519l-45 30l113 177l77 -52z" />
<glyph unicode="&#x38a;" horiz-adv-x="381" d="M70 0v77h65v531h-65v78h241v-78h-66v-531h66v-77h-241zM-130 519l-45 30l113 177l77 -52z" />
<glyph unicode="&#x38c;" horiz-adv-x="705" d="M655 342q0 -75 -19 -139t-56.5 -111.5t-93.5 -74t-130 -26.5q-81 0 -139 25t-95 70.5t-54.5 109.5t-17.5 143q0 72 16.5 137t53.5 114t95 78t141 29q84 0 141.5 -29t92.5 -77.5t50 -113t15 -135.5zM539 339q0 49 -7 98.5t-27 88.5t-56 63.5t-93 24.5t-94 -23t-58.5 -61.5 t-30 -88.5t-8.5 -103q0 -129 44.5 -196.5t146.5 -67.5q48 0 82.5 20.5t57 56t33 84t10.5 104.5zM-93 522l-45 30l113 177l77 -52z" />
<glyph unicode="&#x38e;" horiz-adv-x="621" d="M445 607h-59v79h224v-79h-56l-189 -320v-210h80v-77h-273v77h80v207l-185 323h-55v79h227v-79h-58l128 -241h4zM-180 522l-45 30l113 177l77 -52z" />
<glyph unicode="&#x38f;" horiz-adv-x="721" d="M570 76h113v-76h-264v80q38 10 63 34t40 59.5t21 80.5t6 98q0 52 -8 100t-29 84.5t-56.5 58t-90.5 21.5q-53 0 -89 -20t-59 -55t-33 -83t-10 -104t6 -102t20 -81.5t38 -58t60 -31.5v-81h-262v76h108l2 2q-28 20 -45 49.5t-26 66t-12 78t-3 84.5q0 70 17 132t54 108.5 t94.5 74t137.5 27.5q82 0 139.5 -27.5t93.5 -74t52.5 -108.5t16.5 -130q0 -42 -5 -83t-16.5 -77.5t-29.5 -67t-45 -51.5zM-77 522l-45 30l113 177l77 -52z" />
<glyph unicode="&#x390;" horiz-adv-x="303" d="M32 412v77h161v-412h72v-64q-21 -10 -49 -15t-48 -5q-42 0 -60.5 17.5t-19.5 61.5v340h-56zM313 607q0 -21 -16 -35t-37 -14q-22 0 -35.5 14t-13.5 35q0 22 15 36.5t35 14.5q22 0 37 -14t15 -37zM66 607q0 -21 -15 -35t-37 -14t-36.5 14t-14.5 35q0 22 14.5 36.5 t34.5 14.5q23 0 38.5 -14t15.5 -37zM122 533l-48 21l79 196l82 -39z" />
<glyph unicode="&#x391;" horiz-adv-x="697" d="M510 76q-8 26 -18 57.5t-18 55.5h-257q-7 -21 -17 -53t-18 -60h68v-76h-230v76h56l207 610h137q49 -149 101 -305t101 -305h56v-76h-234v76h66zM451 265q-20 68 -41 134.5t-43 134.5q-4 15 -8.5 30t-9.5 30h-2l-19 -61q-9 -27 -20 -61.5t-23 -71t-23 -72t-19 -63.5h208z " />
<glyph unicode="&#x392;" horiz-adv-x="648" d="M44 608v77h314q115 0 171 -46.5t56 -131.5q0 -15 -3 -34.5t-13 -40t-28 -40t-48 -33.5v-1q33 -10 54.5 -28.5t34.5 -41.5t18.5 -48.5t5.5 -49.5q0 -44 -16 -79t-44 -59.5t-65 -38t-80 -13.5h-361v76h70v532h-66zM493 196q0 24 -8 45.5t-23.5 38t-39.5 26.5t-56 10h-145 v-240h145q34 0 58 9.5t39.5 26t22.5 38.5t7 46zM474 499q0 48 -29 78.5t-94 30.5h-130v-216h130q60 0 91.5 29.5t31.5 77.5z" />
<glyph unicode="&#x393;" horiz-adv-x="578" d="M42 0v75h68v536h-66v74h517v-173h-81v99h-260v-536h95v-75h-273z" />
<glyph unicode="&#x394;" horiz-adv-x="687" d="M644 0h-604v49l237 637h133l234 -619v-67zM389 470l-46 133h-2l-51 -141l-142 -387h383z" />
<glyph unicode="&#x395;" horiz-adv-x="607" d="M42 0v78h68v530h-66v77h519v-179h-81v102h-262v-215l243 5v-79l-243 4v-245h275v105h82v-183h-535z" />
<glyph unicode="&#x396;" horiz-adv-x="565" d="M156 78h305v121h83v-199h-521v76l367 532h-261v-107h-82v185h477v-76z" />
<glyph unicode="&#x397;" horiz-adv-x="739" d="M457 0v77h62v244h-301v-244h63v-77h-240v77h67v531h-67v77h240v-77h-63v-213h301v213h-62v77h240v-77h-67v-531h67v-77h-240z" />
<glyph unicode="&#x398;" horiz-adv-x="705" d="M220 392l262 4v-80l-262 3v73zM655 342q0 -75 -19 -139t-56.5 -111.5t-93.5 -74t-130 -26.5q-81 0 -139 25t-95 70.5t-54.5 109.5t-17.5 143q0 72 16.5 137t53.5 114t95 78t141 29q84 0 141.5 -29t92.5 -77.5t50 -113t15 -135.5zM539 339q0 49 -7 99t-27 89.5t-56 64.5 t-93 25t-94 -23.5t-58.5 -62.5t-30 -89.5t-8.5 -103.5q0 -129 44.5 -197.5t146.5 -68.5q48 0 82.5 20.5t57 56.5t33 85t10.5 105z" />
<glyph unicode="&#x399;" horiz-adv-x="381" d="M70 0v77h65v531h-65v78h241v-78h-66v-531h66v-77h-241z" />
<glyph unicode="&#x39a;" horiz-adv-x="681" d="M375 416l228 -339h58v-77h-245l-1 77h63l-182 272l-80 -76v-197h63v-76h-237v76h66v535h-66v74h238v-74h-64v-239l250 238h-63v75h237v-75h-58z" />
<glyph unicode="&#x39b;" horiz-adv-x="693" d="M316 503q-35 -108 -68.5 -214.5t-67.5 -213.5h68v-75h-232v75h56q50 149 103.5 305.5t104.5 305.5h138q51 -154 101.5 -306t101.5 -305h55v-75h-234v75h66q-37 115 -70.5 225t-69.5 225l-21 69h-2l-29 -91v0z" />
<glyph unicode="&#x39c;" horiz-adv-x="910" d="M458 200q12 26 23.5 54t22.5 54l107 246l57 131h206v-77h-62v-532h62v-76h-234v76h61v453h-2l-40 -94q-16 -37 -31.5 -74t-32.5 -74q-23 -50 -44.5 -99.5t-43.5 -100.5h-104q-23 51 -46.5 101.5t-46.5 101.5l-67 151l-38 88h-3q0 -114 -0.5 -226.5t-0.5 -226.5h65v-76 h-235v76h66v532h-66v77h209q14 -29 30.5 -65.5t34.5 -78.5q23 -51 47 -106.5t47 -108.5q16 -35 29.5 -67.5t24.5 -58.5h5z" />
<glyph unicode="&#x39d;" horiz-adv-x="770" d="M558 169v439h-69v77h238v-77h-66v-608h-106l-160 246q-30 46 -60.5 92.5t-60.5 94.5q-15 24 -30 48.5t-31 48.5q-1 0 -1 -0.5t-1 -0.5v-453h68q0 -19 0.5 -38t0.5 -38h-240q0 19 -0.5 38t-0.5 38h69q0 134 0.5 266t0.5 266h-69v77h186q48 -75 83.5 -131.5t64.5 -100.5 l111 -175l34 -54t34 -55h5z" />
<glyph unicode="&#x39e;" horiz-adv-x="587" d="M121 595v-93h-80v183h502v-183h-80v93h-342zM477 91v98h82v-189h-532v189h82v-98h368zM146 317v74l294 4v-81z" />
<glyph unicode="&#x39f;" horiz-adv-x="705" d="M655 342q0 -75 -19 -139t-56.5 -111.5t-93.5 -74t-130 -26.5q-81 0 -139 25t-95 70.5t-54.5 109.5t-17.5 143q0 72 16.5 137t53.5 114t95 78t141 29q84 0 141.5 -29t92.5 -77.5t50 -113t15 -135.5zM539 339q0 49 -7 98.5t-27 88.5t-56 63.5t-93 24.5t-94 -23t-58.5 -61.5 t-30 -88.5t-8.5 -103q0 -129 44.5 -196.5t146.5 -67.5q48 0 82.5 20.5t57 56t33 84t10.5 104.5z" />
<glyph unicode="&#x3a0;" horiz-adv-x="739" d="M457 0v76h62v533h-300v-533h63v-76h-240v76h66v533h-66v77h656v-77h-67v-533h67v-76h-241z" />
<glyph unicode="&#x3a1;" horiz-adv-x="598" d="M569 483q0 -34 -11 -70.5t-35.5 -67t-65 -50.5t-99.5 -20h-141v-198h87v-77h-262v77h65v531h-65v78h305q104 0 163 -52.5t59 -150.5zM217 608v-257h116q24 0 46 6.5t39 21.5t27 39.5t10 60.5q0 67 -33 98t-92 31h-113z" />
<glyph unicode="&#x3a3;" horiz-adv-x="579" d="M335 348q-45 -69 -87 -136.5t-87 -136.5h306v111h82v-186h-521v67l186 292q-46 65 -91.5 129.5t-92.5 129.5v67h508v-181h-80v106h-293l170 -239v-23z" />
<glyph unicode="&#x3a4;" horiz-adv-x="587" d="M158 0v77h82v531h-145v-109h-80v187h558v-187h-81v109h-143v-531h82v-77h-273z" />
<glyph unicode="&#x3a5;" horiz-adv-x="621" d="M445 607h-59v79h224v-79h-56l-189 -320v-210h80v-77h-273v77h80v207l-185 323h-55v79h227v-79h-58l128 -241h4z" />
<glyph unicode="&#x3a6;" horiz-adv-x="831" d="M791 348q0 -58 -24 -101.5t-67 -73t-101 -46t-126 -20.5v-34h61v-73h-230v73h61v34q-74 3 -134 18.5t-102.5 44t-65.5 72t-23 103.5q0 53 24 96t67 74.5t103 49.5t131 22v25h-61v73h230v-73h-61v-26q69 -3 127.5 -21t101 -48.5t66 -73t23.5 -95.5zM143 343 q0 -43 18.5 -72t49.5 -47t71 -27t83 -13v322q-46 -3 -86.5 -14t-70.5 -31.5t-47.5 -49.5t-17.5 -68zM686 345q0 72 -53.5 113.5t-159.5 47.5v-322q41 3 79.5 13.5t68 30t47.5 48t18 69.5z" />
<glyph unicode="&#x3a7;" horiz-adv-x="667" d="M408 686h228v-79h-63l-172 -255l177 -274h66l1 -78h-259v78h63l-131 210l-134 -210h66v-78h-232v78h61l183 278l-157 251h-72l1 79h254v-79h-58l117 -190l121 190h-60v79z" />
<glyph unicode="&#x3a8;" horiz-adv-x="850" d="M480 263q86 5 129.5 46t44.5 127v250h171v-75h-63v-178q-1 -112 -71.5 -178t-210.5 -70v-110h73v-75h-251v75h71v109q-143 7 -212.5 71.5t-69.5 187.5v168h-65v75h174v-253q0 -84 44.5 -124.5t128.5 -45.5v348h-56v75h220v-75h-57v-348z" />
<glyph unicode="&#x3a9;" horiz-adv-x="721" d="M570 76h113v-76h-264v80q38 10 63 34t40 59.5t21 80.5t6 98q0 52 -8 100t-29 84.5t-56.5 58t-90.5 21.5q-53 0 -89 -20t-59 -55t-33 -83t-10 -104t6 -102t20 -81.5t38 -58t60 -31.5v-81h-262v76h108l2 2q-28 20 -45 49.5t-26 66t-12 78t-3 84.5q0 70 17 132t54 108.5 t94.5 74t137.5 27.5q82 0 139.5 -27.5t93.5 -74t52.5 -108.5t16.5 -130q0 -42 -5 -83t-16.5 -77.5t-29.5 -67t-45 -51.5z" />
<glyph unicode="&#x3aa;" horiz-adv-x="381" d="M70 0v77h65v531h-65v78h241v-78h-66v-531h66v-77h-241zM338 781q0 -23 -16 -37t-40 -14q-21 0 -35 14t-14 37q0 22 14.5 37t34.5 15q24 0 40 -14.5t16 -37.5zM147 781q0 -23 -15.5 -37t-37.5 -14q-23 0 -38 14t-15 37q0 22 15.5 37t35.5 15q23 0 39 -14.5t16 -37.5z" />
<glyph unicode="&#x3ab;" horiz-adv-x="621" d="M445 607h-59v79h224v-79h-56l-189 -320v-210h80v-77h-273v77h80v207l-185 323h-55v79h227v-79h-58l128 -241h4zM464 781q0 -23 -16 -37t-40 -14q-21 0 -35 14t-14 37q0 22 14.5 37t34.5 15q24 0 40 -14.5t16 -37.5zM273 781q0 -23 -15.5 -37t-37.5 -14q-23 0 -38 14 t-15 37q0 22 15.5 37t35.5 15q23 0 39 -14.5t16 -37.5z" />
<glyph unicode="&#x3ac;" horiz-adv-x="571" d="M480 75h71l2 -63q-19 -8 -47 -13t-48 -5q-35 0 -53 10t-24 49q-27 -23 -52 -35.5t-47 -18.5t-39 -7t-28 -1q-51 0 -85 19.5t-54.5 53.5t-29.5 80t-9 98q0 46 11 91.5t35.5 82t64 59t95.5 22.5q42 0 77.5 -15.5t61.5 -38.5q4 11 9.5 23.5t9.5 22.5h79v-414zM251 75 q26 0 58 12.5t65 40.5v240q-9 8 -21.5 16.5t-27.5 16t-30.5 12.5t-28.5 5q-33 0 -56 -14t-37.5 -38t-21 -55t-6.5 -65q0 -53 8.5 -86t23 -52t34 -26t40.5 -7zM246 533l-45 30l113 177l77 -52z" />
<glyph unicode="&#x3ad;" horiz-adv-x="442" d="M232 502q25 0 49.5 -2.5t46.5 -6t41 -9t32 -11.5v-124h-73v72q-20 6 -41.5 8t-41.5 2q-53 0 -75.5 -21.5t-22.5 -50.5q0 -21 7 -33.5t19 -19.5t27 -9t32 -2h70v-66h-70q-16 0 -32.5 -3.5t-30 -12.5t-22 -24t-8.5 -39q0 -45 34 -64.5t86 -19.5q37 0 72 8.5t74 24.5l22 -63 q-31 -17 -81 -30.5t-107 -13.5q-44 0 -82.5 8.5t-66.5 26t-44 45t-16 65.5q0 44 25.5 76.5t63.5 44.5l1 3q-33 10 -57 34.5t-24 62.5q0 33 14 59.5t39 45t60.5 29t79.5 10.5zM204 533l-45 30l113 177l77 -52z" />
<glyph unicode="&#x3ae;" horiz-adv-x="611" d="M365 500q53 0 83 -17.5t44.5 -42.5t18 -53.5t3.5 -49.5v-261h74v-63q-21 -10 -50 -14.5t-49 -4.5q-30 0 -46 9.5t-24 22.5t-9.5 26t-1.5 21v244q0 25 -3 43t-11 30t-24 18t-41 6q-31 0 -67.5 -14t-64.5 -31v-369h-106v413h-70v76h176v-43l5 -1q42 27 84 41t79 14z M249 533l-45 30l113 177l77 -52z" />
<glyph unicode="&#x3af;" horiz-adv-x="303" d="M32 412v77h161v-412h72v-64q-21 -10 -49 -15t-48 -5q-42 0 -60.5 17.5t-19.5 61.5v340h-56zM102 533l-45 30l113 177l77 -52z" />
<glyph unicode="&#x3b0;" horiz-adv-x="571" d="M503 489v-291q0 -47 -15 -85t-43 -64.5t-67.5 -41t-88.5 -14.5q-105 0 -157 52t-52 137v230h-61v77h168v-308q0 -48 22.5 -78t79.5 -30q51 0 78.5 32t27.5 84v300h108zM465 607q0 -21 -16 -35t-37 -14q-22 0 -35.5 14t-13.5 35q0 22 15 36.5t35 14.5q22 0 37 -14t15 -37z M218 607q0 -21 -15 -35t-37 -14t-36.5 14t-14.5 35q0 22 14.5 36.5t34.5 14.5q23 0 38.5 -14t15.5 -37zM274 533l-48 21l79 196l82 -39z" />
<glyph unicode="&#x3b1;" horiz-adv-x="571" d="M480 75h71l2 -63q-19 -8 -47 -13t-48 -5q-35 0 -53 10t-24 49q-27 -23 -52 -35.5t-47 -18.5t-39 -7t-28 -1q-51 0 -85 19.5t-54.5 53.5t-29.5 80t-9 98q0 46 11 91.5t35.5 82t64 59t95.5 22.5q42 0 77.5 -15.5t61.5 -38.5q4 11 9.5 23.5t9.5 22.5h79v-414zM251 75 q26 0 58 12.5t65 40.5v240q-9 8 -21.5 16.5t-27.5 16t-30.5 12.5t-28.5 5q-33 0 -56 -14t-37.5 -38t-21 -55t-6.5 -65q0 -53 8.5 -86t23 -52t34 -26t40.5 -7z" />
<glyph unicode="&#x3b2;" horiz-adv-x="527" d="M46 -196v31v65v82v82v64.5v31.5v337q0 49 12.5 89.5t38 69.5t63.5 45t88 16q52 0 90.5 -13t64 -35.5t38 -54t12.5 -68.5q0 -48 -24 -87t-58 -56q35 -11 57.5 -30t36 -43.5t18.5 -53.5t5 -61q0 -56 -15 -98t-41.5 -70.5t-63.5 -42.5t-82 -14q-38 0 -75 10.5t-59 25.5v-222 h-106zM253 640q-48 0 -73.5 -28.5t-25.5 -83.5v-426q14 -9 30 -15.5t31 -10t28 -5t22 -1.5q58 0 87.5 41t29.5 113q0 65 -30 101.5t-99 36.5h-45v68h44q42 0 70 29t28 83q0 44 -26.5 71t-70.5 27z" />
<glyph unicode="&#x3b3;" horiz-adv-x="540" d="M216 14q-16 42 -36.5 93t-41.5 104.5t-41 104.5t-36 93h-54v80h135l70 -194q3 -7 11.5 -31.5t18 -52t18 -52t11.5 -31.5h4q9 29 21.5 65.5t22.5 65.5q12 37 26.5 77.5t26.5 75.5h-46v77h205v-77h-54q-15 -42 -35 -93t-40 -103.5t-39 -103.5t-34 -93l1 -228h-115z" />
<glyph unicode="&#x3b4;" horiz-adv-x="534" d="M276 710q38 0 82.5 -8t78.5 -26v-120h-77v67q-17 7 -37.5 11t-40.5 4q-38 0 -66.5 -16t-28.5 -50q0 -19 10 -32t24.5 -22t30.5 -15t29 -10q52 -17 91.5 -38t66.5 -51t41 -72t14 -100q0 -44 -12 -86.5t-39.5 -77t-72 -55.5t-109.5 -21q-62 0 -104.5 20t-68.5 53t-38 76 t-12 89q0 35 7 69t22 63t39 52t58 37q-35 19 -58.5 46t-23.5 71q0 37 14.5 64t40.5 44t61.5 25.5t77.5 8.5zM260 405q-33 -6 -55 -22.5t-35 -40.5t-18 -53.5t-5 -59.5t4.5 -58.5t18 -51t37.5 -36t63 -13.5q36 0 58.5 15t35 38.5t17 52t4.5 54.5q0 27 -3 54.5t-15 51.5 t-37 42t-70 27z" />
<glyph unicode="&#x3b5;" horiz-adv-x="442" d="M232 502q25 0 49.5 -2.5t46.5 -6t41 -9t32 -11.5v-124h-73v72q-20 6 -41.5 8t-41.5 2q-53 0 -75.5 -21.5t-22.5 -50.5q0 -21 7 -33.5t19 -19.5t27 -9t32 -2h70v-66h-70q-16 0 -32.5 -3.5t-30 -12.5t-22 -24t-8.5 -39q0 -45 34 -64.5t86 -19.5q37 0 72 8.5t74 24.5l22 -63 q-31 -17 -81 -30.5t-107 -13.5q-44 0 -82.5 8.5t-66.5 26t-44 45t-16 65.5q0 44 25.5 76.5t63.5 44.5l1 3q-33 10 -57 34.5t-24 62.5q0 33 14 59.5t39 45t60.5 29t79.5 10.5z" />
<glyph unicode="&#x3b6;" horiz-adv-x="409" d="M328 639h-197v-62h-72v133h386v-68q-69 -56 -124 -114t-94 -113.5t-59.5 -105.5t-20.5 -90q0 -28 9 -47.5t31 -35t59.5 -31t94.5 -34.5q48 -16 67.5 -38t19.5 -48q0 -18 -8.5 -38t-23 -41t-34 -43t-41.5 -43l-54 47q9 11 20.5 25.5t16.5 21.5q16 23 19.5 34.5t2.5 16.5 q-1 12 -14.5 21.5t-34.5 16.5q-57 19 -101 35t-73.5 37.5t-45 52t-15.5 78.5q0 37 19 88t56 108.5t90 117.5t122 115z" />
<glyph unicode="&#x3b7;" horiz-adv-x="611" d="M365 500q53 0 83 -17.5t44.5 -42.5t18 -53.5t3.5 -49.5v-261h74v-63q-21 -10 -50 -14.5t-49 -4.5q-30 0 -46 9.5t-24 22.5t-9.5 26t-1.5 21v244q0 25 -3 43t-11 30t-24 18t-41 6q-31 0 -67.5 -14t-64.5 -31v-369h-106v413h-70v76h176v-43l5 -1q42 27 84 41t79 14z" />
<glyph unicode="&#x3b8;" horiz-adv-x="535" d="M263 -7q-71 0 -115.5 28t-69.5 76.5t-34 113.5t-9 138q0 70 10 136.5t36 118t71.5 82.5t116.5 31t115.5 -31.5t69.5 -82.5t34 -116.5t9 -132.5q0 -71 -10.5 -136t-37 -115t-72 -80t-114.5 -30zM269 638q-39 0 -63.5 -19.5t-38 -51.5t-18.5 -74.5t-6 -88.5h245 q-1 44 -5.5 86t-17.5 75t-36 53t-60 20zM143 331q0 -62 3 -110.5t16 -82t38 -51.5t67 -18q39 0 63 22t37.5 59t17.5 84t4 97h-246z" />
<glyph unicode="&#x3b9;" horiz-adv-x="303" d="M32 412v77h161v-412h72v-64q-21 -10 -49 -15t-48 -5q-42 0 -60.5 17.5t-19.5 61.5v340h-56z" />
<glyph unicode="&#x3ba;" horiz-adv-x="558" d="M303 488h212v-72h-45l-131 -112l142 -232l64 -9v-57q-19 -7 -41.5 -10t-38.5 -3q-20 0 -38.5 6t-33.5 31l-129 217q-17 -14 -32.5 -28t-32.5 -28v-120h62v-71h-236v71h68v345h-75v71h181v-198l148 127h-44v72z" />
<glyph unicode="&#x3bb;" horiz-adv-x="533" d="M264 396l-143 -396h-103l171 464h58l-53 171l-104 14l-1 54q26 12 58 19t55 7q40 0 56 -15.5t27 -45.5l189 -598h44l4 -61q-17 -8 -40.5 -11.5t-38.5 -3.5q-29 0 -43.5 11.5t-22.5 38.5l-109 352h-4z" />
<glyph unicode="&#x3bc;" horiz-adv-x="578" d="M256 -7q-25 0 -42 1t-30 6v-134h72v-74h-248v74h68v546h-68v76h175v-320q0 -42 18.5 -68t70.5 -26q25 0 56 13t62 42v283h-62v77h169q0 -104 -0.5 -206.5t-0.5 -206.5h67q0 -17 1 -32.5t2 -30.5q-28 -11 -54 -15t-43 -4q-37 0 -54.5 13.5t-21.5 49.5q-21 -19 -40 -30.5 t-36.5 -18.5t-33 -10.5t-27.5 -4.5z" />
<glyph unicode="&#x3bd;" horiz-adv-x="553" d="M282 86q11 38 26.5 83t26.5 82q13 38 27 80.5t26 80.5h-43v77h192v-77h-47q-15 -45 -34.5 -98t-39.5 -108t-39.5 -108t-35.5 -98h-129q-15 44 -34 97t-38.5 107.5t-38 107t-33.5 97.5h-53v80h132l70 -216q6 -21 14 -44.5t16.5 -48.5t16.5 -49t14 -45h4z" />
<glyph unicode="&#x3be;" horiz-adv-x="447" d="M273 719q14 0 34.5 -1.5t43 -5t44.5 -9t40 -13.5l-19 -73q-43 14 -77 18t-60 4q-66 0 -93 -30t-27 -77q0 -49 37.5 -76t98.5 -27h90v-75h-95q-39 0 -67 -11.5t-46 -30.5t-26.5 -44.5t-8.5 -53.5q0 -26 7.5 -45t25.5 -35.5t48.5 -32t77.5 -32.5q34 -13 61.5 -24t46.5 -23 t29 -26.5t10 -33.5t-8.5 -39t-23 -40.5t-32.5 -40.5t-36 -38l-56 43q7 8 12.5 15.5t10.5 14.5q29 39 29 57q0 13 -12.5 23.5t-42.5 21.5l-39 15q-42 15 -80.5 31t-68 39t-47 56t-18.5 81q0 25 5.5 53t19.5 54.5t38 49t60 36.5q-30 11 -50.5 29t-32.5 38t-17.5 40.5 t-5.5 37.5q0 86 58 133t162 47z" />
<glyph unicode="&#x3bf;" horiz-adv-x="538" d="M498 244q0 -49 -12 -94.5t-39.5 -80.5t-72 -56t-110.5 -21q-62 0 -104.5 20t-69 54.5t-38.5 79.5t-12 96q0 50 13 96.5t41 82t72 57t106 21.5q63 0 106.5 -21.5t70 -56.5t38 -81.5t11.5 -95.5zM389 242q0 31 -4.5 62.5t-17 57t-35 41.5t-58.5 16q-37 0 -61 -15.5 t-38 -40.5t-19.5 -56.5t-5.5 -64.5q0 -34 4.5 -65t17.5 -54.5t36.5 -37.5t62.5 -14q36 0 59 15t36 39t18 54.5t5 62.5z" />
<glyph unicode="&#x3c0;" horiz-adv-x="612" d="M197 412v-412h-105v412h-71v75h566v-75h-73v-336h72v-63q-21 -10 -49 -15t-48 -5q-27 0 -43 7t-24.5 18.5t-11 26.5t-2.5 32v335h-211z" />
<glyph unicode="&#x3c1;" horiz-adv-x="540" d="M45 238q1 124 60 192.5t174 68.5q57 0 98.5 -18.5t68.5 -52t40 -79.5t13 -100q0 -58 -13 -105.5t-39.5 -81.5t-67 -53t-95.5 -19q-27 0 -63.5 6.5t-67.5 26.5v-230h-108v445zM263 70q26 0 49.5 7.5t41 27.5t28 55.5t10.5 91.5q0 50 -10 82.5t-26.5 51t-39 26t-46.5 7.5 q-29 0 -51 -12t-36.5 -32.5t-22 -47.5t-7.5 -57v-168q17 -11 48.5 -21.5t61.5 -10.5z" />
<glyph unicode="&#x3c2;" horiz-adv-x="456" d="M273 500q48 0 85.5 -8t68.5 -19q0 -34 -0.5 -67.5t-0.5 -67.5h-74v74q-13 5 -30 7.5t-41 2.5q-35 0 -61 -13t-42.5 -36t-24.5 -54t-8 -67q0 -32 6 -56t22.5 -44.5t45.5 -40t76 -40.5q65 -30 90 -53t25 -50q0 -20 -26 -60.5t-72 -85.5l-55 45l24 35q8 13 14 24.5t6 22.5 q0 14 -15.5 24.5t-52.5 26.5q-59 26 -97 51t-60 54t-30.5 64t-8.5 80q0 54 14 100t43.5 79.5t74 52.5t104.5 19z" />
<glyph unicode="&#x3c3;" horiz-adv-x="542" d="M436 408q31 -29 43.5 -76t12.5 -95q0 -52 -14.5 -96.5t-43 -76.5t-71 -50.5t-98.5 -18.5q-61 0 -104.5 17.5t-71 49t-40.5 76.5t-13 100q0 50 13 95.5t41.5 80t72.5 55t106 20.5h254v-77h-84zM267 412q-36 0 -60 -14.5t-38 -39t-19.5 -56.5t-5.5 -66q0 -81 28.5 -124 t94.5 -43q30 0 52 13t37 35.5t22 53.5t7 67q0 31 -4.5 62t-17 56t-36 40.5t-60.5 15.5z" />
<glyph unicode="&#x3c4;" horiz-adv-x="419" d="M369 489v-76h-145v-259q0 -38 15.5 -58.5t57.5 -20.5q35 0 89 15l15 -69q-29 -13 -65 -20t-66 -7q-82 0 -116 35t-34 95v289h-113v76h362z" />
<glyph unicode="&#x3c5;" horiz-adv-x="571" d="M503 489v-291q0 -47 -15 -85t-43 -64.5t-67.5 -41t-88.5 -14.5q-105 0 -157 52t-52 137v230h-61v77h168v-308q0 -48 22.5 -78t79.5 -30q51 0 78.5 32t27.5 84v300h108z" />
<glyph unicode="&#x3c6;" horiz-adv-x="699" d="M38 243q0 42 10 82t31 74t54 59.5t80 39.5l30 -66q-51 -27 -75.5 -75t-24.5 -114q0 -38 6.5 -69.5t24 -54.5t47.5 -36.5t77 -15.5v431h123q59 0 104 -18.5t75 -52t45.5 -79t15.5 -99.5t-14.5 -100t-46.5 -80t-82 -54t-120 -22v-200h-101v200q-80 3 -130 24.5t-79 56 t-39.5 78.5t-10.5 91zM555 249q0 36 -7 67t-25 54.5t-48.5 37t-76.5 13.5l1 -354q43 1 73 14.5t48.5 37.5t26.5 57t8 73z" />
<glyph unicode="&#x3c7;" horiz-adv-x="548" d="M254 190l-87 -115h56v-75h-211l1 75h45l145 192l-96 146h-82v75h147l107 -162l64 87h-49v75h217v-75h-58l-125 -161l118 -177h71v-75h-226v75h39z" />
<glyph unicode="&#x3c8;" horiz-adv-x="750" d="M427 -134h77v-76h-253v76h72v129q-59 1 -105.5 16.5t-78.5 42t-49 62.5t-17 78v218h-58v76h163v-294q0 -20 8.5 -40t26.5 -37.5t45.5 -29t64.5 -12.5v426h-55v79h159v-505q40 1 68 12.5t45 29.5t24.5 42t7.5 51v278h163v-76h-58v-218q0 -42 -17.5 -78t-49.5 -62.5 t-78.5 -42t-104.5 -16.5v-129z" />
<glyph unicode="&#x3c9;" horiz-adv-x="755" d="M427 335l1 -171q1 -36 20 -64t59 -28q56 0 80.5 43.5t24.5 123.5q0 30 -4.5 59t-15 54t-28.5 45t-45 32l20 69q49 -10 83 -34.5t55 -59t30.5 -77t9.5 -87.5q0 -49 -11 -94t-35 -79t-62.5 -54t-93.5 -20q-47 0 -82.5 19.5t-52.5 55.5h-4q-20 -37 -57 -56t-82 -19 q-60 0 -98.5 20t-61 54t-31 79t-8.5 94q0 44 9 86.5t30 77t55 59.5t84 35l20 -69q-27 -12 -45 -32t-28.5 -45t-14.5 -54t-4 -59q0 -32 4 -62.5t15 -53.5t31 -37t53 -14q45 0 66 28t21 64v171h93z" />
<glyph unicode="&#x3ca;" horiz-adv-x="303" d="M32 412v77h161v-412h72v-64q-21 -10 -49 -15t-48 -5q-42 0 -60.5 17.5t-19.5 61.5v340h-56zM271 605q0 -21 -15.5 -35.5t-38.5 -14.5q-21 0 -35 14.5t-14 35.5t14.5 35.5t34.5 14.5q23 0 38.5 -14t15.5 -36zM78 605q0 -21 -14.5 -35.5t-37.5 -14.5q-22 0 -36.5 14.5 t-14.5 35.5t15 35.5t35 14.5q23 0 38 -14t15 -36z" />
<glyph unicode="&#x3cb;" horiz-adv-x="571" d="M503 489v-291q0 -47 -15 -85t-43 -64.5t-67.5 -41t-88.5 -14.5q-105 0 -157 52t-52 137v230h-61v77h168v-308q0 -48 22.5 -78t79.5 -30q51 0 78.5 32t27.5 84v300h108zM434 605q0 -21 -15.5 -35.5t-38.5 -14.5q-21 0 -35 14.5t-14 35.5t14.5 35.5t34.5 14.5 q23 0 38.5 -14t15.5 -36zM241 605q0 -21 -14.5 -35.5t-37.5 -14.5q-22 0 -36.5 14.5t-14.5 35.5t15 35.5t35 14.5q23 0 38 -14t15 -36z" />
<glyph unicode="&#x3cc;" horiz-adv-x="538" d="M498 244q0 -49 -12 -94.5t-39.5 -80.5t-72 -56t-110.5 -21q-62 0 -104.5 20t-69 54.5t-38.5 79.5t-12 96q0 50 13 96.5t41 82t72 57t106 21.5q63 0 106.5 -21.5t70 -56.5t38 -81.5t11.5 -95.5zM389 242q0 31 -4.5 62.5t-17 57t-35 41.5t-58.5 16q-37 0 -61 -15.5 t-38 -40.5t-19.5 -56.5t-5.5 -64.5q0 -34 4.5 -65t17.5 -54.5t36.5 -37.5t62.5 -14q36 0 59 15t36 39t18 54.5t5 62.5zM273 533l-45 30l113 177l77 -52z" />
<glyph unicode="&#x3cd;" horiz-adv-x="571" d="M503 489v-291q0 -47 -15 -85t-43 -64.5t-67.5 -41t-88.5 -14.5q-105 0 -157 52t-52 137v230h-61v77h168v-308q0 -48 22.5 -78t79.5 -30q51 0 78.5 32t27.5 84v300h108zM280 533l-45 30l113 177l77 -52z" />
<glyph unicode="&#x3ce;" horiz-adv-x="755" d="M427 335l1 -171q1 -36 20 -64t59 -28q56 0 80.5 43.5t24.5 123.5q0 30 -4.5 59t-15 54t-28.5 45t-45 32l20 69q49 -10 83 -34.5t55 -59t30.5 -77t9.5 -87.5q0 -49 -11 -94t-35 -79t-62.5 -54t-93.5 -20q-47 0 -82.5 19.5t-52.5 55.5h-4q-20 -37 -57 -56t-82 -19 q-60 0 -98.5 20t-61 54t-31 79t-8.5 94q0 44 9 86.5t30 77t55 59.5t84 35l20 -69q-27 -12 -45 -32t-28.5 -45t-14.5 -54t-4 -59q0 -32 4 -62.5t15 -53.5t31 -37t53 -14q45 0 66 28t21 64v171h93zM370 533l-45 30l113 177l77 -52z" />
<glyph unicode="&#x3da;" horiz-adv-x="688" d="M47 398q0 58 22 108t67.5 87t116 58.5t166.5 23.5q36 1 64 2t53 4t48 8.5t49 13.5l23 -82q-42 -17 -98 -26t-122 -11q-148 -2 -218 -51.5t-70 -134.5q0 -39 13 -71t44 -59.5t82 -50t127 -41.5q105 -27 159.5 -63.5t54.5 -95.5q0 -22 -11.5 -43t-29.5 -39.5t-40 -34.5 t-42 -28q-3 3 -10 10.5t-14.5 16.5t-14 17t-9.5 10q26 22 45.5 39t19.5 38q0 13 -5.5 23t-19 18.5t-36.5 16t-57 16.5q-100 24 -168 56t-110 72t-60.5 88.5t-18.5 104.5z" />
<glyph unicode="&#x3db;" horiz-adv-x="585" d="M43 280q0 46 17 85t52.5 68t89.5 46t128 19q26 0 46.5 1t39 3t37 6t39.5 11l21 -74q-32 -14 -76 -19.5t-95 -7.5q-107 -2 -160 -38.5t-53 -99.5q0 -27 10 -51t33.5 -44.5t61 -37.5t93.5 -32q80 -21 123 -49.5t43 -74.5q0 -18 -9.5 -35t-24.5 -32t-33 -28t-34 -23l-42 50 q19 13 34.5 29t15.5 29q0 17 -17.5 27t-66.5 22q-76 18 -128 43t-84.5 56.5t-46.5 69t-14 81.5z" />
<glyph unicode="&#x3dc;" horiz-adv-x="571" d="M176 0h-108q0 174 0.5 347t0.5 347h452v-177h-83v101h-262v-219q61 1 122 1.5t122 2.5v-80l-244 3v-326z" />
<glyph unicode="&#x3dd;" horiz-adv-x="603" d="M176 -202h-108q0 173 0.5 345.5t0.5 346.5h452v-176h-83v100h-262v-218q61 1 122 1.5t122 2.5v-80q-61 0 -122 1l-122 2v-325z" />
<glyph unicode="&#x3de;" horiz-adv-x="629" d="M245 606l-127 -44l-31 46q15 15 35.5 31t44.5 29.5t49 22.5t49 9q31 0 49 -13.5t18 -42.5q0 -8 -1 -16t-5 -17l-124 -314l246 72q9 4 17 5t15 1q18 0 27.5 -9.5t9.5 -24.5q0 -5 -2 -15l-99 -328l130 39l25 -43q-17 -17 -39.5 -32t-46.5 -26.5t-47 -18t-42 -6.5 q-32 0 -48 14t-16 40q0 15 3 29l91 296l-254 -76q-6 -2 -12 -3t-11 -1q-20 0 -32 11.5t-12 28.5q0 10 3 18z" />
<glyph unicode="&#x3df;" horiz-adv-x="471" d="M179 517q25 0 42.5 -12t19.5 -50q-3 -38 -10 -80.5t-18 -88.5h114q50 0 68.5 -6t18.5 -32q0 -9 -6 -21q-31 -91 -61.5 -179t-62.5 -178l-101 11q36 84 70.5 165t70.5 165h-155q-22 0 -34.5 9.5t-12.5 26.5v6.5t2 7.5q10 45 20 89.5t19 89.5l-114 -39q-6 11 -12 23t-13 23 q13 13 33 26t42 22.5t43 15.5t37 6z" />
<glyph unicode="&#x3e0;" horiz-adv-x="669" d="M56 717q138 -8 241.5 -54.5t172 -123.5t102.5 -180t34 -223q0 -53 -7.5 -111.5t-23.5 -121.5l-55 11q8 50 11 94.5t3 82.5q0 51 -6 95.5t-19 90.5l-280 -175l-36 62l298 168q-12 32 -27 59.5t-35 54.5q-6 -4 -27.5 -17.5t-51 -31.5t-63 -39t-63 -39t-51 -31.5 t-27.5 -17.5l-39 63l286 159q-60 70 -141.5 115.5t-201.5 57.5z" />
<glyph unicode="&#x3e1;" horiz-adv-x="600" d="M61 510q117 -6 203.5 -45t142.5 -103t83.5 -148.5t27.5 -181.5q0 -42 -6 -92t-19 -104l-56 11q5 44 8.5 82.5t3.5 67.5q0 74 -21 143l-223 -145l-35 60l243 136q-11 24 -21 44t-26 44l-232 -146l-38 60l234 128q-48 53 -115 89.5t-163 45.5z" />
<glyph unicode="&#x401;" horiz-adv-x="607" d="M471 781q0 -23 -16 -37t-40 -14q-21 0 -35 14t-14 37q0 22 14.5 37t34.5 15q24 0 40 -14.5t16 -37.5zM280 781q0 -23 -15.5 -37t-37.5 -14q-23 0 -38 14t-15 37q0 22 15.5 37t35.5 15q23 0 39 -14.5t16 -37.5zM42 0v78h68v530h-66v77h519v-179h-81v102h-262v-215l243 5 v-79l-243 4v-245h275v105h82v-183h-535z" />
<glyph unicode="&#x402;" horiz-adv-x="795" d="M754 213q0 -58 -17.5 -107.5t-46 -90.5t-64 -73t-72.5 -54l-44 57q57 45 93.5 106.5t36.5 142.5q0 78 -36.5 112t-99.5 34q-32 0 -71 -7.5t-77 -22.5v-235h76v-75h-257v75h72v536h-142v-89h-81v163h622v-163h-81v89h-209v-225q48 19 95 27.5t86 8.5q103 0 160 -56 t57 -153z" />
<glyph unicode="&#x403;" horiz-adv-x="578" d="M303 733l-40 38l134 164l64 -63zM42 0v75h68v536h-66v74h517v-173h-81v99h-260v-536h95v-75h-273z" />
<glyph unicode="&#x404;" horiz-adv-x="596" d="M561 24q-19 -8 -44 -13.5t-52.5 -9.5t-55.5 -6t-53 -2q-87 0 -145.5 26t-94.5 72t-51 109.5t-15 138.5q0 38 5.5 79.5t19 81.5t36.5 75.5t58 62.5t83 43t112 16q55 0 100 -8t80 -19v-167h-82v97q-19 5 -44.5 8.5t-51.5 3.5q-48 0 -84.5 -16t-62 -45.5t-39 -69.5 t-14.5 -88q63 1 125 1.5t125 2.5v-78q-63 1 -125.5 1.5t-125.5 0.5q-1 -53 9 -97t34.5 -76t66 -50t103.5 -18q13 0 33 1.5t42.5 4.5t46 7t43.5 9z" />
<glyph unicode="&#x405;" horiz-adv-x="575" d="M117 187l1 -82q37 -17 75 -23.5t71 -6.5q39 0 68 10t48 25.5t28.5 36t9.5 41.5q0 31 -11.5 50t-32 31t-48 20.5t-60.5 17.5q-46 10 -86 25t-70 36.5t-47.5 52.5t-17.5 74q1 49 20 86.5t51.5 62.5t76 38t94.5 13q22 0 48 -2t52.5 -6.5t52.5 -13t48 -20.5l1 -143h-81l-1 83 q-23 10 -57.5 14t-61.5 4q-26 0 -49.5 -6.5t-41 -19.5t-28 -32.5t-10.5 -44.5q0 -24 12.5 -41.5t33.5 -30.5t48.5 -22.5t57.5 -16.5q42 -10 82.5 -23.5t72.5 -36t51.5 -57t19.5 -87.5t-19.5 -91t-54.5 -63t-84 -36.5t-108 -11.5q-58 0 -119 11t-114 39q0 36 -0.5 72.5 t-0.5 73.5h80z" />
<glyph unicode="&#x406;" horiz-adv-x="381" d="M70 0v77h65v531h-65v78h241v-78h-66v-531h66v-77h-241z" />
<glyph unicode="&#x407;" horiz-adv-x="381" d="M340 781q0 -23 -16 -37t-40 -14q-21 0 -35 14t-14 37q0 22 14.5 37t34.5 15q24 0 40 -14.5t16 -37.5zM149 781q0 -23 -15.5 -37t-37.5 -14q-23 0 -38 14t-15 37q0 22 15.5 37t35.5 15q23 0 39 -14.5t16 -37.5zM70 0v77h65v531h-65v78h241v-78h-66v-531h66v-77h-241z" />
<glyph unicode="&#x408;" horiz-adv-x="393" d="M65 686h275v-78h-77l-1 -463q0 -67 -16.5 -119t-49 -91t-80.5 -67t-111 -46l-29 71q54 29 88.5 55.5t54 56t26.5 64t7 79.5v460h-87v78z" />
<glyph unicode="&#x409;" horiz-adv-x="995" d="M641 611h-72v-202h152q54 0 97.5 -15t74 -42t46.5 -65t16 -84q0 -52 -16.5 -90t-45 -63t-68.5 -37.5t-86 -12.5h-346v75h66v536l-174 -1v-66q0 -110 -7 -206.5t-32.5 -171t-74.5 -123.5t-133 -65l-25 78q56 20 89.5 56.5t51.5 93.5t23.5 135.5t5.5 181.5v87h-88v76h546 v-75zM569 334v-259h148q52 0 88 32.5t36 96.5q0 34 -11 58.5t-30 40.5t-43 23.5t-49 7.5h-139z" />
<glyph unicode="&#x40a;" horiz-adv-x="1020" d="M666 611h-72v-205h152q55 0 98.5 -14.5t73.5 -41.5t46 -64.5t16 -83.5q0 -51 -16 -88.5t-45 -63t-68.5 -38t-86.5 -12.5h-345v75h65v257h-264v-257h62v-75h-239v75h67v536h-67v74h239v-74h-62v-207h264v207h-66v75h248v-75zM594 332v-257h148q53 0 88.5 31.5t35.5 96.5 q0 34 -11 58t-30 40t-43 23.5t-49 7.5h-139z" />
<glyph unicode="&#x40b;" horiz-adv-x="852" d="M812 75v-75h-238v75h63v164q0 29 -9 49t-25.5 32t-39.5 17t-51 5q-40 0 -81 -9.5t-71 -23.5v-234h70v-75h-252v75h73v536h-144v-89h-80v163h620v-163h-81v89h-206v-223q46 17 93 25.5t89 8.5q43 0 80.5 -9.5t65 -29t43.5 -50.5t16 -74v-184h65z" />
<glyph unicode="&#x40c;" horiz-adv-x="669" d="M217 75h65v-75h-240v75h65v536h-65v74h240v-74h-65v-536zM559 81l92 -9v-63q-22 -8 -49 -12.5t-44 -4.5q-31 -2 -52 7.5t-38 33.5l-218 306v33l199 273q19 28 38 38.5t44 9.5q48 0 94 -22l-7 -63l-87 -8l-180 -237zM342 735l-40 38l134 164l64 -63z" />
<glyph unicode="&#x40e;" horiz-adv-x="622" d="M232 686v-76h-62l84 -209l61 -161h5l58 162l78 208h-64v76h219v-76h-51l-202 -514q-23 -57 -54 -81t-81 -24q-18 0 -47.5 2.5t-77.5 16.5l17 72q26 -5 46 -8t36 -3q23 0 39 12.5t29 44.5l17 44h-34l-187 438h-52v76h223zM310 733q-28 0 -52 10t-45 26.5t-39.5 38 t-34.5 44.5l52 38q29 -39 61.5 -62t61.5 -23q9 0 22 2t31 9.5t41 23.5t52 44l32 -31q-45 -67 -92.5 -93.5t-89.5 -26.5z" />
<glyph unicode="&#x40f;" horiz-adv-x="739" d="M697 685v-75h-67v-535h67v-75h-284v-180h-86v180h-286v75h67v535h-67v75h240v-75h-63v-535h301v535h-62v75h240z" />
<glyph unicode="&#x410;" horiz-adv-x="697" d="M510 76q-8 26 -18 57.5t-18 55.5h-257q-7 -21 -17 -53t-18 -60h68v-76h-230v76h56l207 610h137q49 -149 101 -305t101 -305h56v-76h-234v76h66zM451 265q-20 68 -41 134.5t-43 134.5q-4 15 -8.5 30t-9.5 30h-2l-19 -61q-9 -27 -20 -61.5t-23 -71t-23 -72t-19 -63.5h208z " />
<glyph unicode="&#x411;" horiz-adv-x="643" d="M536 529h-80v82h-238v-202h153q113 0 172.5 -53.5t59.5 -144.5q0 -52 -16 -91.5t-44.5 -66t-68 -40t-86.5 -13.5h-346v75h66v536h-66v74h494v-156zM218 334v-259h150q52 0 87.5 35t35.5 98q0 34 -10.5 58t-28.5 39t-42.5 22t-51.5 7h-140z" />
<glyph unicode="&#x412;" horiz-adv-x="648" d="M44 608v77h314q115 0 171 -46.5t56 -131.5q0 -15 -3 -34.5t-13 -40t-28 -40t-48 -33.5v-1q33 -10 54.5 -28.5t34.5 -41.5t18.5 -48.5t5.5 -49.5q0 -44 -16 -79t-44 -59.5t-65 -38t-80 -13.5h-361v76h70v532h-66zM493 196q0 24 -8 45.5t-23.5 38t-39.5 26.5t-56 10h-145 v-240h145q34 0 58 9.5t39.5 26t22.5 38.5t7 46zM474 499q0 48 -29 78.5t-94 30.5h-130v-216h130q60 0 91.5 29.5t31.5 77.5z" />
<glyph unicode="&#x413;" horiz-adv-x="578" d="M42 0v75h68v536h-66v74h517v-173h-81v99h-260v-536h95v-75h-273z" />
<glyph unicode="&#x414;" horiz-adv-x="739" d="M109 0v-171h-84v243l55 3q38 40 62 92.5t38 114.5t19.5 133t5.5 149v47h-72v74h551v-74h-66v-536l69 -3v-243h-84v171h-494zM301 558q0 -86 -4.5 -154.5t-16.5 -126t-33 -107t-53 -95.5h314v536h-207v-53z" />
<glyph unicode="&#x415;" horiz-adv-x="607" d="M42 0v78h68v530h-66v77h519v-179h-81v102h-262v-215l243 5v-79l-243 4v-245h275v105h82v-183h-535z" />
<glyph unicode="&#x416;" horiz-adv-x="973" d="M541 75h65v-75h-237v75h64v535h-64v75h237v-75h-65v-535zM861 81l95 -9v-63q-23 -8 -49.5 -12.5t-44.5 -4.5q-26 0 -47 6t-36 28l-209 312v32l207 283q17 24 35.5 32t40.5 8q50 0 94 -23l-6 -63l-89 -8l-181 -238zM112 81l190 280l-180 238l-89 8l-7 63q44 23 94 23 q21 0 36.5 -7.5t32.5 -29.5l214 -286v-32l-211 -308q-17 -26 -37.5 -32t-43.5 -6t-48 4.5t-45 12.5v63z" />
<glyph unicode="&#x417;" horiz-adv-x="588" d="M142 491h-83v162q23 11 50.5 19t56 13.5t57 8.5t54.5 3q48 0 92 -8.5t77.5 -28.5t53.5 -52.5t20 -81.5q0 -20 -7 -42t-21.5 -42t-35 -37t-47.5 -27v-1q60 -19 94.5 -61.5t34.5 -103.5q0 -55 -22 -95.5t-60 -67.5t-88.5 -40.5t-106.5 -13.5q-26 0 -55.5 2t-60 6.5 t-59.5 12.5t-54 19l24 74q52 -14 95.5 -22t72.5 -8q200 0 200 133q0 29 -11.5 51.5t-32.5 38t-50 23.5t-63 8h-85v72h80q35 0 62 9.5t45 25.5t27.5 36t9.5 41q0 28 -10.5 47t-29 31t-44.5 17t-57 5q-32 0 -64.5 -6t-58.5 -17v-103z" />
<glyph unicode="&#x418;" horiz-adv-x="756" d="M463 684h255v-74h-70v-535h70v-75h-246v75h69v402h-2q-81 -94 -160.5 -186.5t-160.5 -185.5v-30h67v-75h-246v75h71v535h-69v74h246v-74h-69v-398h2q81 93 161 185t161 185v28h-79v74z" />
<glyph unicode="&#x419;" horiz-adv-x="756" d="M463 684h255v-74h-70v-535h70v-75h-246v75h69v402h-2q-81 -94 -160.5 -186.5t-160.5 -185.5v-30h67v-75h-246v75h71v535h-69v74h246v-74h-69v-398h2q81 93 161 185t161 185v28h-79v74zM375 747q-27 0 -51.5 10t-45.5 26.5t-39.5 38t-34.5 44.5l52 39q29 -41 61.5 -63 t60.5 -22q9 0 22.5 1.5t31.5 9t41 23t52 44.5l32 -31q-45 -68 -92.5 -94t-89.5 -26z" />
<glyph unicode="&#x41a;" horiz-adv-x="669" d="M217 75h65v-75h-240v75h65v536h-65v74h240v-74h-65v-536zM559 81l92 -9v-63q-22 -8 -49 -12.5t-44 -4.5q-31 -2 -52 7.5t-38 33.5l-218 306v33l199 273q19 28 38 38.5t44 9.5q48 0 94 -22l-7 -63l-87 -8l-180 -237z" />
<glyph unicode="&#x41b;" horiz-adv-x="714" d="M424 0v76h62v534h-201v-66q0 -110 -7 -206.5t-32.5 -171t-74.5 -123.5t-133 -65l-25 78q56 20 89.5 56.5t51.5 93.5t23.5 135.5t5.5 181.5v87h-88v76h569v-75h-67v-535h67v-76h-240z" />
<glyph unicode="&#x41c;" horiz-adv-x="910" d="M458 200q12 26 23.5 54t22.5 54l107 246l57 131h206v-77h-62v-532h62v-76h-234v76h61v453h-2l-40 -94q-16 -37 -31.5 -74t-32.5 -74q-23 -50 -44.5 -99.5t-43.5 -100.5h-104q-23 51 -46.5 101.5t-46.5 101.5l-67 151l-38 88h-3q0 -114 -0.5 -226.5t-0.5 -226.5h65v-76 h-235v76h66v532h-66v77h209q14 -29 30.5 -65.5t34.5 -78.5q23 -51 47 -106.5t47 -108.5q16 -35 29.5 -67.5t24.5 -58.5h5z" />
<glyph unicode="&#x41d;" horiz-adv-x="739" d="M457 0v77h62v244h-301v-244h63v-77h-240v77h67v531h-67v77h240v-77h-63v-213h301v213h-62v77h240v-77h-67v-531h67v-77h-240z" />
<glyph unicode="&#x41e;" horiz-adv-x="705" d="M655 342q0 -75 -19 -139t-56.5 -111.5t-93.5 -74t-130 -26.5q-81 0 -139 25t-95 70.5t-54.5 109.5t-17.5 143q0 72 16.5 137t53.5 114t95 78t141 29q84 0 141.5 -29t92.5 -77.5t50 -113t15 -135.5zM539 339q0 49 -7 98.5t-27 88.5t-56 63.5t-93 24.5t-94 -23t-58.5 -61.5 t-30 -88.5t-8.5 -103q0 -129 44.5 -196.5t146.5 -67.5q48 0 82.5 20.5t57 56t33 84t10.5 104.5z" />
<glyph unicode="&#x41f;" horiz-adv-x="739" d="M457 0v76h62v533h-300v-533h63v-76h-240v76h66v533h-66v77h656v-77h-67v-533h67v-76h-241z" />
<glyph unicode="&#x420;" horiz-adv-x="598" d="M569 483q0 -34 -11 -70.5t-35.5 -67t-65 -50.5t-99.5 -20h-141v-198h87v-77h-262v77h65v531h-65v78h305q104 0 163 -52.5t59 -150.5zM217 608v-257h116q24 0 46 6.5t39 21.5t27 39.5t10 60.5q0 67 -33 98t-92 31h-113z" />
<glyph unicode="&#x421;" horiz-adv-x="593" d="M165 341q0 -60 10 -108t34.5 -82t66 -52t104.5 -18q13 0 32.5 1t41.5 4t45 7t43 10l18 -78q-20 -8 -44.5 -14t-51.5 -10.5t-54.5 -7t-52.5 -2.5q-87 0 -146 26.5t-94.5 73t-51 110.5t-15.5 139q0 57 13.5 120.5t48.5 116t96 87t156 34.5q56 0 100 -8t78 -20v-174h-80v105 q-23 6 -48 8.5t-47 2.5q-54 0 -92 -19.5t-62.5 -55t-36 -85.5t-11.5 -111z" />
<glyph unicode="&#x422;" horiz-adv-x="587" d="M158 0v77h82v531h-145v-109h-80v187h558v-187h-81v109h-143v-531h82v-77h-273z" />
<glyph unicode="&#x423;" horiz-adv-x="622" d="M232 686v-76h-62l84 -209l61 -161h5l58 162l78 208h-64v76h219v-76h-51l-202 -514q-23 -57 -54 -81t-81 -24q-18 0 -47.5 2.5t-77.5 16.5l17 72q26 -5 46 -8t36 -3q23 0 39 12.5t29 44.5l17 44h-34l-187 438h-52v76h223z" />
<glyph unicode="&#x424;" horiz-adv-x="831" d="M791 348q0 -58 -24 -101.5t-67 -73t-101 -46t-126 -20.5v-34h61v-73h-230v73h61v34q-74 3 -134 18.5t-102.5 44t-65.5 72t-23 103.5q0 53 24 96t67 74.5t103 49.5t131 22v25h-61v73h230v-73h-61v-26q69 -3 127.5 -21t101 -48.5t66 -73t23.5 -95.5zM143 343 q0 -43 18.5 -72t49.5 -47t71 -27t83 -13v322q-46 -3 -86.5 -14t-70.5 -31.5t-47.5 -49.5t-17.5 -68zM686 345q0 72 -53.5 113.5t-159.5 47.5v-322q41 3 79.5 13.5t68 30t47.5 48t18 69.5z" />
<glyph unicode="&#x425;" horiz-adv-x="667" d="M408 686h228v-79h-63l-172 -255l177 -274h66l1 -78h-259v78h63l-131 210l-134 -210h66v-78h-232v78h61l183 278l-157 251h-72l1 79h254v-79h-58l117 -190l121 190h-60v79z" />
<glyph unicode="&#x426;" horiz-adv-x="739" d="M624 0h-584v75h67v535h-67v75h240v-75h-63v-535h301v535h-62v75h240v-75h-67v-535h79v-245h-84v170z" />
<glyph unicode="&#x427;" horiz-adv-x="697" d="M653 0h-241v75h66v221q-45 -14 -88.5 -21.5t-85.5 -7.5q-44 0 -83 9.5t-68 29t-45.5 51t-16.5 76.5v176h-65v75h238v-75h-63v-153q0 -60 34 -83.5t91 -24.5q39 0 78.5 8.5t73.5 21.5v231h-62v75h237v-75h-67v-534h67v-75z" />
<glyph unicode="&#x428;" horiz-adv-x="1008" d="M450 610h-59v75h228v-75h-60v-535h232v535h-60v75h235v-75h-66v-535h66v-75h-924v75h66v535h-66v75h236v-75h-62v-535h234v535z" />
<glyph unicode="&#x429;" horiz-adv-x="1008" d="M450 610h-59v75h228v-75h-60v-535h232v535h-60v75h235v-75h-66v-535h77v-246h-84v171h-851v75h66v535h-66v75h236v-75h-62v-535h234v535z" />
<glyph unicode="&#x42a;" horiz-adv-x="798" d="M372 409h152q55 0 98.5 -15t73.5 -42t46 -65t16 -84q0 -52 -16.5 -90t-45 -63t-68.5 -37.5t-86 -12.5h-350v75h70v536h-165v-97h-80v171h421v-74h-65zM372 334v-259h148q52 0 88 32.5t36 96.5q0 34 -11 58.5t-30 40.5t-43 23.5t-49 7.5h-139z" />
<glyph unicode="&#x42b;" horiz-adv-x="940" d="M222 334v-259h148q52 0 88 32.5t36 96.5q0 34 -11.5 58.5t-30 40.5t-43 23.5t-49.5 7.5h-138zM293 611h-71v-202h152q55 0 98.5 -15t73.5 -42t46 -65t16 -84q0 -52 -16.5 -90t-45 -63t-68.5 -37.5t-86 -12.5h-350v75h70v536h-70v75h251v-75zM653 0v75h65v536h-65v74h242 v-74h-67v-536h67v-75h-242z" />
<glyph unicode="&#x42c;" horiz-adv-x="653" d="M227 334v-259h148q52 0 88 32.5t36 96.5q0 34 -11.5 58.5t-30 40.5t-43 23.5t-49.5 7.5h-138zM298 611h-71v-202h152q55 0 98.5 -15t73.5 -42t46 -65t16 -84q0 -52 -16.5 -90t-45 -63t-68.5 -37.5t-86 -12.5h-350v75h70v536h-70v75h251v-75z" />
<glyph unicode="&#x42d;" horiz-adv-x="593" d="M184 318v79l249 -5q-1 50 -12.5 90.5t-34 69.5t-58 44.5t-84.5 15.5q-26 0 -57.5 -4.5t-50.5 -9.5v-97h-81v167q35 12 84 20.5t105 8.5q94 0 153.5 -29.5t93 -77.5t45.5 -109.5t12 -125.5q0 -72 -17.5 -138t-56 -115.5t-99.5 -79t-149 -29.5q-50 0 -104.5 7.5t-92.5 23.5 l19 78q20 -5 42.5 -9.5t44 -7.5t40.5 -4.5t33 -1.5q59 0 102 18.5t70.5 51t40.5 77t12 96.5z" />
<glyph unicode="&#x42e;" horiz-adv-x="986" d="M936 341q0 -75 -17 -139t-52.5 -110.5t-90 -73t-128.5 -26.5q-77 0 -132 23t-90.5 65.5t-53.5 103.5t-19 137h-135v-245h63v-76h-240v76h67v535h-67v74h240v-74h-63v-216h136q6 63 24.5 118t53.5 96t88 64.5t128 23.5q84 0 139.5 -29t88.5 -78t46.5 -113.5t13.5 -135.5z M824 339q0 49 -6 98.5t-24.5 89t-53.5 64.5t-92 25t-93 -23.5t-56 -62.5t-27.5 -89t-7.5 -104q0 -65 9.5 -114.5t31 -83t57 -51t86.5 -17.5q48 0 81.5 20.5t54.5 56.5t30.5 85t9.5 106z" />
<glyph unicode="&#x42f;" horiz-adv-x="666" d="M189 483q0 -37 12.5 -60t32 -36t42.5 -17.5t44 -4.5h114v246h-121q-52 0 -88 -32t-36 -96zM306 292l-118 -240q-14 -30 -30 -45.5t-53 -15.5q-16 0 -43.5 3.5t-48.5 10.5v61l76 10l118 233q-39 9 -64.5 28t-40.5 43t-20.5 50.5t-5.5 50.5q0 46 15 84t43 65t68.5 41.5 t91.5 14.5h314v-75h-65v-536h68v-75h-247v75h70v217h-128z" />
<glyph unicode="&#x430;" horiz-adv-x="537" d="M230 220q-42 -3 -64 -24.5t-22 -52.5q0 -39 19 -57.5t62 -18.5q27 0 58.5 14t55.5 37v110zM442 75h76l6 -60q-10 -6 -25 -10t-31 -6.5t-31 -3.5t-25 -1q-29 0 -47.5 11t-19.5 50q-1 0 -1 0.5t-1 0.5q-27 -24 -52 -37t-46.5 -19.5t-38.5 -7.5t-28 -1q-44 0 -72 14 t-44.5 35t-22.5 46t-6 46q0 30 10.5 55t33.5 44t59 31.5t87 15.5l118 8v29q0 55 -21 78t-77 23q-36 0 -75.5 -7t-74.5 -19l-10 34l-10 34q42 19 94.5 29t100.5 10q82 0 128 -36.5t46 -128.5v-257z" />
<glyph unicode="&#x431;" horiz-adv-x="537" d="M263 678q16 7 38.5 16t46.5 18.5t46 18.5t37 16l31 -64q-35 -20 -66 -32.5t-49 -20.5q-49 -19 -86.5 -38t-64.5 -45t-43.5 -61.5t-22.5 -87.5q2 0 3 -1q25 39 67.5 62t95.5 23q55 0 93 -18.5t62 -51t34.5 -77t10.5 -96.5q0 -45 -11.5 -89.5t-39 -79.5t-72.5 -56.5 t-111 -21.5q-63 0 -105 20.5t-67.5 54t-37 75t-12.5 83.5v95q2 58 5 88t8 48q18 78 71 133t139 89zM275 407q-35 0 -59 -17t-39 -43t-22 -57t-7 -60t4.5 -57.5t17 -51.5t36.5 -37.5t63 -14.5q36 0 58.5 14.5t35.5 38t18 53.5t5 61q0 32 -4.5 63t-16.5 55t-33.5 38.5 t-56.5 14.5z" />
<glyph unicode="&#x432;" horiz-adv-x="521" d="M312 489q83 0 123.5 -35t40.5 -93q0 -25 -12 -53.5t-46 -48.5q22 -9 36 -23.5t22.5 -30.5t11.5 -33.5t3 -32.5q0 -32 -12.5 -57.5t-34.5 -43.5t-51.5 -28t-62.5 -10h-298v73h52v345h-51v71h279zM188 217v-146h108q25 0 42 6.5t28 17.5t16 25t5 29q0 29 -22 48.5t-69 19.5 h-108zM188 420v-133h102q39 0 60.5 18t21.5 47t-20 48.5t-68 19.5h-96z" />
<glyph unicode="&#x433;" horiz-adv-x="464" d="M34 0v72h53v346h-50v71h409v-154h-74v83h-180v-346h74v-72h-232z" />
<glyph unicode="&#x434;" horiz-adv-x="597" d="M505 73l49 -2v-212h-81v141h-370v-141h-83v212l50 2q28 25 44.5 62t24.5 79.5t10 87t2 86.5v30h-61v71h415v-416zM249 418v-35q0 -36 -1.5 -78t-7.5 -84t-18.5 -80.5t-35.5 -67.5h213v345h-150z" />
<glyph unicode="&#x435;" horiz-adv-x="505" d="M264 422q-29 0 -50 -11.5t-34.5 -30t-21 -42t-8.5 -47.5h218q-1 27 -6 50.5t-17 41.5t-31.5 28.5t-49.5 10.5zM265 500q71 0 111.5 -26.5t61 -64t25.5 -77.5t5 -67v-48h-320q0 -33 6 -60t21 -46t40.5 -29.5t63.5 -10.5q42 0 77 8t75 25l27 -67q-46 -24 -94.5 -35 t-97.5 -11q-69 0 -112.5 21t-69 56t-35 80.5t-9.5 94.5q0 36 9 80.5t34 84t69 66t113 26.5z" />
<glyph unicode="&#x436;" horiz-adv-x="809" d="M517 71v-71h-223v71h56v345h-57v72h223v-72h-60v-345h61zM717 71l68 -9v-54q-16 -8 -40 -12t-41 -5q-25 0 -41.5 6.5t-30.5 26.5l-158 219v22l150 196q15 22 31 29.5t39 7.5q20 0 41 -5.5t35 -13.5l-5 -56l-60 -4l-129 -159zM229 260l-123 159l-60 4l-5 56q14 8 35 13.5 t41 5.5q23 0 39 -7.5t31 -29.5l144 -196v-22l-152 -219q-14 -20 -30.5 -26.5t-41.5 -6.5q-17 1 -41 5t-40 12v54l68 9z" />
<glyph unicode="&#x437;" horiz-adv-x="466" d="M204 -8q-54 0 -103.5 10.5t-78.5 23.5l21 66q39 -13 72.5 -19.5t67.5 -6.5q63 0 98 20.5t35 68.5q0 22 -9.5 36.5t-24 23t-32 11.5t-33.5 3h-71v64h59q16 0 33.5 3t32 10.5t23.5 21t9 34.5q0 29 -21.5 47t-68.5 18q-23 0 -47.5 -3t-49.5 -11v-73h-74v125q37 17 87 26.5 t97 9.5q89 0 137 -34t48 -92q0 -40 -23 -67.5t-56 -39.5v-3q41 -11 66 -42.5t25 -73.5q0 -39 -16.5 -68t-45.5 -49t-69 -30t-88 -10z" />
<glyph unicode="&#x438;" horiz-adv-x="619" d="M416 332q-3 -5 -20 -31.5t-41 -61.5q-21 -32 -46 -68t-47.5 -69.5t-41.5 -61t-28 -40.5h-101v417h-69v71h174v-332h4q-3 -5 1 1t12.5 19t21 32t27.5 41q22 31 46.5 67t47 69.5t41 61t27.5 41.5h102q0 -103 0.5 -205.5t0.5 -206.5h69v-63q-23 -10 -48.5 -14.5t-45.5 -4.5 q-24 0 -39.5 8t-25 20.5t-13.5 27t-4 27.5v255h-4z" />
<glyph unicode="&#x439;" horiz-adv-x="619" d="M416 332q-3 -5 -20 -31.5t-41 -61.5q-21 -32 -46 -68t-47.5 -69.5t-41.5 -61t-28 -40.5h-101v417h-69v71h174v-332h4q-3 -5 1 1t12.5 19t21 32t27.5 41q22 31 46.5 67t47 69.5t41 61t27.5 41.5h102q0 -103 0.5 -205.5t0.5 -206.5h69v-63q-23 -10 -48.5 -14.5t-45.5 -4.5 q-24 0 -39.5 8t-25 20.5t-13.5 27t-4 27.5v255h-4zM300 547q-27 0 -51.5 10t-45.5 26.5t-39.5 38t-34.5 44.5l52 39q29 -41 61.5 -63t60.5 -22q9 0 22.5 1.5t31.5 9t41 23t52 44.5l32 -31q-45 -68 -92.5 -94t-89.5 -26z" />
<glyph unicode="&#x43a;" horiz-adv-x="553" d="M30 72h64v346h-73v71h180v-417h61v-72h-232v72zM464 71l68 -9v-54q-16 -8 -40 -12t-41 -5q-25 0 -41.5 6.5t-30.5 26.5l-161 219v22l153 196q15 22 31 29.5t39 7.5q20 0 41 -5.5t35 -13.5l-5 -56l-60 -4l-132 -159z" />
<glyph unicode="&#x43b;" horiz-adv-x="577" d="M321 0v72h59v346h-149v-35q0 -76 -6 -143.5t-25 -120.5t-55.5 -89t-97.5 -49l-30 77q40 20 63 45t34.5 61t14.5 85.5t3 117.5v51h-75v71h429v-417h61v-72h-226z" />
<glyph unicode="&#x43c;" horiz-adv-x="759" d="M548 312q-12 -23 -23.5 -46.5t-23.5 -44.5q-22 -40 -44 -79.5t-44 -87.5h-67q-3 6 -12 22.5t-21.5 39t-27.5 48.5t-29 51q-20 35 -35.5 63.5t-20.5 39.5h-4v-318h-102v417h-70v71h187q5 -9 16 -29t26 -46.5t31.5 -56.5t32.5 -59l61 -115h3q5 9 21 41.5t37 72.5l101 192 h178v-71h-65v-341h71v-63q-22 -10 -47.5 -14.5t-45.5 -4.5q-29 0 -44.5 9t-23 23.5t-9 33t-2.5 38.5v214h-4z" />
<glyph unicode="&#x43d;" horiz-adv-x="593" d="M510 489v-412h69v-64q-22 -10 -48 -15t-46 -5q-43 0 -62 17.5t-19 61.5v151h-217v-223h-106v418h-64v71h171v-199h216v199h106z" />
<glyph unicode="&#x43e;" horiz-adv-x="538" d="M498 244q0 -49 -12 -94.5t-39.5 -80.5t-72 -56t-110.5 -21q-62 0 -104.5 20t-69 54.5t-38.5 79.5t-12 96q0 50 13 96.5t41 82t72 57t106 21.5q63 0 106.5 -21.5t70 -56.5t38 -81.5t11.5 -95.5zM389 242q0 31 -4.5 62.5t-17 57t-35 41.5t-58.5 16q-37 0 -61 -15.5 t-38 -40.5t-19.5 -56.5t-5.5 -64.5q0 -34 4.5 -65t17.5 -54.5t36.5 -37.5t62.5 -14q36 0 59 15t36 39t18 54.5t5 62.5z" />
<glyph unicode="&#x43f;" horiz-adv-x="612" d="M197 412v-412h-105v412h-71v75h566v-75h-73v-336h72v-63q-21 -10 -49 -15t-48 -5q-27 0 -43 7t-24.5 18.5t-11 26.5t-2.5 32v335h-211z" />
<glyph unicode="&#x440;" horiz-adv-x="568" d="M16 -134h73v546h-73v76h173v-45l2 -1q30 25 72 39.5t78 14.5q55 0 91.5 -19.5t59 -52.5t32 -77.5t9.5 -93.5q0 -57 -11 -105t-35 -83t-63 -55t-95 -20q-26 0 -62.5 7t-71.5 25v-156h78v-76h-257v76zM309 74q22 0 43 7.5t37 27t25.5 54.5t9.5 89q0 48 -8.5 78.5t-23 48.5 t-35 24.5t-44.5 6.5q-16 0 -33 -4t-33 -10.5t-29.5 -14.5t-22.5 -16v-258q9 -6 22 -12t28.5 -10.5t32 -7.5t31.5 -3z" />
<glyph unicode="&#x441;" horiz-adv-x="471" d="M272 500q41 0 79 -6.5t70 -19.5v-137h-76v71q-9 2 -21.5 3.5t-21.5 1.5q-82 0 -118.5 -40.5t-36.5 -131.5q0 -86 33.5 -127t98.5 -41q37 0 71 7t69 21l23 -70q-34 -19 -80.5 -29t-95.5 -10q-66 0 -109.5 19t-69.5 52.5t-36.5 78.5t-10.5 97q0 40 9 86t34.5 85t71 64.5 t117.5 25.5z" />
<glyph unicode="&#x442;" horiz-adv-x="498" d="M132 72h64v346h-102v-70h-74v141h458v-141h-75v70h-101v-346h67v-72h-237v72z" />
<glyph unicode="&#x443;" horiz-adv-x="561" d="M328 220l65 195h-61v74h209v-74h-49l-175 -499q-9 -26 -20.5 -49.5t-28.5 -41.5t-42.5 -28.5t-62.5 -10.5q-14 0 -40 2.5t-69 15.5l14 71q23 -5 42.5 -7.5t36.5 -2.5q35 0 54.5 24t32.5 64l17 53h-51l-133 405h-52v78h131l81 -265l47 -156h5z" />
<glyph unicode="&#x444;" horiz-adv-x="707" d="M229 -138h73v131q-72 3 -122 24t-81 55t-45 78t-14 93q0 54 17.5 100t50.5 79.5t82 53.5t112 22v144h-74v71h176v-215q64 -1 113.5 -19t82.5 -50.5t50 -77.5t17 -100q0 -53 -16.5 -99.5t-49 -81.5t-82 -55.5t-115.5 -21.5v-131h81v-72h-256v72zM404 66q78 3 119 52.5 t41 127.5q0 36 -8 68t-27 55.5t-49.5 37.5t-75.5 15v-356zM302 422q-42 -2 -72.5 -16.5t-49.5 -38t-28 -55.5t-9 -68q0 -79 37 -127.5t122 -50.5v356z" />
<glyph unicode="&#x445;" horiz-adv-x="548" d="M254 190l-87 -115h56v-75h-211l1 75h45l145 192l-96 146h-82v75h147l107 -162l64 87h-49v75h217v-75h-58l-125 -161l118 -177h71v-75h-226v75h39z" />
<glyph unicode="&#x446;" horiz-adv-x="612" d="M496 0h-462v73h59v343h-60v73h165v-416h214v343h-48v73h207v-73h-52v-343h60v-213h-83v140z" />
<glyph unicode="&#x447;" horiz-adv-x="592" d="M191 489v-134q0 -50 15.5 -74.5t63.5 -24.5q31 0 62.5 7t59.5 21v206h107v-417h67v-31t1 -32q-26 -11 -52.5 -15t-43.5 -4q-42 0 -60.5 24t-18.5 59v135q-35 -19 -77 -27t-78 -8q-47 0 -76.5 13t-46.5 34.5t-23 50t-6 60.5v85h-71v72h177z" />
<glyph unicode="&#x448;" horiz-adv-x="829" d="M585 488h204v-72h-53v-343h59v-73h-763v73h59v343h-60v72h166v-415h161v343h-45v72h197v-72h-46v-343h165v343h-44v72z" />
<glyph unicode="&#x449;" horiz-adv-x="831" d="M713 0h-681v73h59v343h-60v72h166v-415h161v343h-45v72h197v-72h-46v-343h165v343h-44v72h204v-72h-53v-343h60v-213h-83v140z" />
<glyph unicode="&#x44a;" horiz-adv-x="650" d="M319 299h129q84 0 129 -41.5t45 -107.5q0 -36 -12.5 -64t-34.5 -47t-52 -29t-66 -10h-244v418h-124v-83h-75v154h305v-190zM319 232v-162h113q39 0 62.5 20.5t23.5 59.5q0 43 -26 62.5t-68 19.5h-105z" />
<glyph unicode="&#x44b;" horiz-adv-x="769" d="M510 417v72h161v-412h72v-64q-22 -10 -49.5 -14.5t-47.5 -4.5q-46 0 -64 24t-18 72v327h-54zM198 298h129q85 0 129.5 -41.5t44.5 -106.5q0 -36 -12.5 -64t-34.5 -47t-52 -29t-65 -10h-243v418h-72v71h176v-191zM198 232v-163h113q40 0 63 21t23 60q0 43 -26.5 62.5 t-67.5 19.5h-105z" />
<glyph unicode="&#x44c;" horiz-adv-x="530" d="M198 298h129q85 0 129.5 -41.5t44.5 -106.5q0 -36 -12.5 -64t-34.5 -47t-52 -29t-65 -10h-243v418h-72v71h176v-191zM198 232v-163h113q40 0 63 21t23 60q0 43 -26.5 62.5t-67.5 19.5h-105z" />
<glyph unicode="&#x44d;" horiz-adv-x="486" d="M211 500q70 0 114 -22t69 -56.5t34.5 -78t9.5 -86.5q0 -52 -12 -99.5t-40.5 -84t-74 -58.5t-111.5 -22q-48 0 -93 11t-79 29l23 65q35 -13 67.5 -20.5t69.5 -7.5q35 0 61 12t43.5 33t26.5 49.5t9 61.5l-185 -5v66l186 -4q-5 65 -34 103.5t-89 38.5q-39 0 -78 -10v-71h-73 l-1 128q32 14 74 21t83 7z" />
<glyph unicode="&#x44e;" horiz-adv-x="769" d="M93 0v417h-70v72h175v-200h90q5 43 20 81t42 67t66.5 46t93.5 17q60 0 102 -21.5t68 -57t37.5 -82t11.5 -95.5t-12 -94.5t-38.5 -80.5t-70 -56t-106.5 -21q-57 0 -97.5 18.5t-66 50t-38 73.5t-14.5 90h-88v-224h-105zM621 243q0 31 -4.5 62.5t-16.5 57t-33.5 42 t-56.5 16.5t-57.5 -15.5t-35.5 -41t-18.5 -57.5t-5.5 -65q0 -34 4 -65.5t16.5 -55.5t35.5 -38t61 -14q34 0 55.5 15t34 40t17 56t4.5 63z" />
<glyph unicode="&#x44f;" horiz-adv-x="549" d="M499 489v-72h-50v-340h68v-64q-21 -10 -47.5 -15t-46.5 -5q-43 0 -61.5 17.5t-19.5 61.5v128h-90l-86 -161q-12 -22 -29 -35.5t-47 -13.5q-15 0 -35.5 3t-40.5 10v60l65 8q18 32 41 70.5t40 70.5q-28 6 -47 19t-31 30.5t-17 38t-5 40.5q0 38 13.5 66t36 46.5t52.5 27.5 t64 9h273zM342 266v153h-93q-38 0 -61.5 -20.5t-23.5 -60.5q0 -22 8.5 -36t22 -22t30 -11t31.5 -3h86z" />
<glyph unicode="&#x451;" horiz-adv-x="505" d="M264 422q-29 0 -50 -11.5t-34.5 -30t-21 -42t-8.5 -47.5h218q-1 27 -6 50.5t-17 41.5t-31.5 28.5t-49.5 10.5zM265 500q71 0 111.5 -26.5t61 -64t25.5 -77.5t5 -67v-48h-320q0 -33 6 -60t21 -46t40.5 -29.5t63.5 -10.5q42 0 77 8t75 25l27 -67q-46 -24 -94.5 -35 t-97.5 -11q-69 0 -112.5 21t-69 56t-35 80.5t-9.5 94.5q0 36 9 80.5t34 84t69 66t113 26.5zM395 612q0 -21 -15.5 -35.5t-38.5 -14.5q-21 0 -35 14.5t-14 35.5t14.5 35.5t34.5 14.5q23 0 38.5 -14t15.5 -36zM202 612q0 -21 -14.5 -35.5t-37.5 -14.5q-22 0 -36.5 14.5 t-14.5 35.5t15 35.5t35 14.5q23 0 38 -14t15 -36z" />
<glyph unicode="&#x452;" horiz-adv-x="568" d="M34 573h52v69h-79v71h187v-140h202v-48h-202v-107q81 39 149 39q94 0 139 -59.5t45 -189.5q0 -50 -10 -94t-35 -76.5t-66.5 -51.5t-105.5 -19h-11.5t-10.5 1l1 73q34 1 59 9t41.5 26.5t24.5 51t8 82.5q0 51 -8 83t-22.5 51t-34 26t-42.5 7q-27 0 -60 -9.5t-61 -23.5v-344 h-108v525h-52v48z" />
<glyph unicode="&#x453;" horiz-adv-x="464" d="M34 0v72h53v346h-50v71h409v-154h-74v83h-180v-346h74v-72h-232zM190 564l-40 37l133 165l64 -63z" />
<glyph unicode="&#x454;" horiz-adv-x="471" d="M149 220q2 -33 9.5 -60.5t23 -47.5t39 -31.5t58.5 -11.5q37 0 71.5 8t69.5 21l22 -65q-34 -18 -80.5 -29t-95.5 -11q-66 0 -109.5 19t-69.5 52t-36.5 78t-10.5 97q0 40 9 86t34.5 85t71 64.5t117.5 25.5q41 0 80.5 -7.5t71.5 -20.5q0 -32 -0.5 -64t-0.5 -64h-74v68 q-17 5 -32.5 7t-31.5 2q-60 0 -95.5 -35t-40.5 -109l185 6v-66z" />
<glyph unicode="&#x455;" horiz-adv-x="464" d="M107 149l3 -62q20 -11 48 -15.5t51 -4.5q45 0 76.5 14.5t31.5 50.5q0 18 -7.5 30t-20.5 20.5t-30.5 14.5t-36.5 12q-34 10 -67 20t-59 26t-42 39.5t-16 60.5q0 38 14.5 65t40 44.5t61 26t77.5 8.5q43 0 85.5 -8.5t75.5 -28.5q0 -29 0.5 -58.5t1.5 -59.5h-79l-2 65 q-34 14 -75 14q-38 0 -64.5 -14.5t-26.5 -49.5q0 -15 9.5 -25.5t24 -18t30.5 -12.5t30 -9q30 -9 63 -18.5t60.5 -26.5t45 -44.5t17.5 -72.5q0 -36 -15 -62.5t-42.5 -43.5t-66.5 -25.5t-86 -8.5q-43 0 -94 7.5t-91 30.5l-2 119h77z" />
<glyph unicode="&#x456;" horiz-adv-x="315" d="M53 412v76h157v-411h72v-64q-21 -10 -48.5 -15t-47.5 -5q-43 0 -62 17.5t-20 61.5v340h-51zM220 625q0 -27 -19.5 -46.5t-47.5 -19.5q-27 0 -46 19.5t-19 46.5q0 28 19 47t46 19q28 0 47.5 -19t19.5 -47z" />
<glyph unicode="&#x457;" horiz-adv-x="315" d="M49 417v72h161v-412h72v-64q-21 -10 -48.5 -15t-47.5 -5q-43 0 -61.5 17.5t-19.5 61.5v345h-56zM272 605q0 -21 -15.5 -35.5t-38.5 -14.5q-21 0 -35 14.5t-14 35.5t14.5 35.5t34.5 14.5q23 0 38.5 -14t15.5 -36zM79 605q0 -21 -14.5 -35.5t-37.5 -14.5q-22 0 -36.5 14.5 t-14.5 35.5t15 35.5t35 14.5q23 0 38 -14t15 -36z" />
<glyph unicode="&#x458;" horiz-adv-x="300" d="M37 488h172v-447q0 -55 -10 -97t-33 -74t-61 -56.5t-94 -43.5l-32 68q40 24 64.5 45t37.5 43.5t17.5 48.5t4.5 59v378h-66v76zM219 625q0 -27 -20 -46.5t-46 -19.5q-28 0 -47 19.5t-19 46.5q0 28 19 47t47 19q26 0 46 -19t20 -47z" />
<glyph unicode="&#x459;" horiz-adv-x="796" d="M465 299h130q83 0 128 -41.5t45 -107.5q0 -36 -12.5 -64t-34.5 -47t-52 -29t-66 -10h-243v418h-128v-44q0 -76 -6 -143t-25.5 -119.5t-56 -88.5t-96.5 -51l-30 77q37 18 60 43t35 61.5t16 86.5t4 118v60h-75v71h407v-190zM465 232v-162h113q39 0 62.5 20.5t23.5 59.5 q0 43 -26 62.5t-67 19.5h-106z" />
<glyph unicode="&#x45a;" horiz-adv-x="816" d="M485 296h129q84 0 129 -40t45 -106q0 -36 -12.5 -64t-34.5 -47t-52 -29t-66 -10h-243v227h-187v-227h-105v418h-65v71h170v-198h187v127h-68v71h173v-193zM485 229v-159h115q38 0 61 20t23 59q0 43 -26 61.5t-66 18.5h-107z" />
<glyph unicode="&#x45b;" horiz-adv-x="608" d="M38 529v48h52v69h-70v67h177v-136h205v-48h-205v-122q41 26 86 40.5t82 14.5q49 0 78.5 -14t45.5 -36.5t21 -51.5t5 -59v-224h69v-64q-23 -10 -49 -15t-46 -5q-42 0 -61 17.5t-19 61.5v204q0 24 -2.5 42.5t-11 32t-24.5 20.5t-42 7q-30 0 -67 -13.5t-65 -30.5v-334h-107 v529h-52z" />
<glyph unicode="&#x45c;" horiz-adv-x="553" d="M256 534l-40 37l133 165l64 -63zM30 72h64v346h-73v71h180v-417h61v-72h-232v72zM464 71l68 -9v-54q-16 -8 -40 -12t-41 -5q-25 0 -41.5 6.5t-30.5 26.5l-161 219v22l153 196q15 22 31 29.5t39 7.5q20 0 41 -5.5t35 -13.5l-5 -56l-60 -4l-132 -159z" />
<glyph unicode="&#x45e;" horiz-adv-x="561" d="M277 70q2 7 10.5 32.5t19.5 60t24 74t24.5 75t20.5 63t13 37.5h-59v77h208v-77h-49l-178 -518q-10 -26 -21.5 -46t-27.5 -33.5t-38.5 -21t-55.5 -7.5q-11 0 -42 2.5t-72 15.5l16 84q22 -5 42 -7.5t37 -2.5q24 0 37.5 6t22.5 20.5t18 39t24 62.5h-53q-33 101 -65.5 201.5 t-65.5 202.5h-50v79h129q4 -12 14 -45.5t23.5 -78t28.5 -93.5t27.5 -91.5t21.5 -73t11 -37.5h5zM269 551q-27 0 -51.5 10t-45.5 26.5t-39.5 38t-34.5 44.5l52 39q29 -41 61.5 -63t60.5 -22q9 0 22.5 1.5t31.5 9t41 23t52 44.5l32 -31q-45 -68 -92.5 -94t-89.5 -26z" />
<glyph unicode="&#x45f;" horiz-adv-x="612" d="M348 0v-150h-85v150h-229v72h59v345h-60v72h165v-417h214v345h-48v72h206v-72h-51v-344q12 0 29.5 -0.5t30.5 -0.5v-72h-231z" />
<glyph unicode="&#x490;" horiz-adv-x="578" d="M42 0v75h68v536h-66v74h436v130h81v-204h-341v-536h95v-75h-273z" />
<glyph unicode="&#x491;" horiz-adv-x="462" d="M34 0v72h53v345h-51v72h332v109h75v-181h-251v-345h73v-72h-231z" />
<glyph unicode="&#x4d9;" horiz-adv-x="505" d="M247 70q31 0 52.5 12t35 31.5t20 45.5t8.5 54h-220q0 -32 5 -58.5t17 -45t32 -29t50 -10.5zM247 -7q-47 0 -80.5 12.5t-56 32.5t-36 46t-20 52t-8.5 50.5t-2 42.5v36h321q0 33 -6.5 61.5t-21.5 49.5t-40.5 33.5t-63.5 12.5q-41 0 -76.5 -8.5t-75.5 -24.5l-24 64 q45 26 92.5 36.5t96.5 10.5q69 0 112.5 -20t69 -54.5t35 -79.5t9.5 -96q0 -36 -8.5 -80.5t-33.5 -84t-69 -66t-114 -26.5z" />
<glyph unicode="&#x1e80;" horiz-adv-x="980" d="M491 436l-30 -103l-99 -333h-134l-159 607h-59v79h240v-79h-65l89 -366l31 -133h2l36 133l97 333l-12 33h-66l-1 79h247l1 -79h-69l113 -372l35 -119h2l29 130l83 361h-64v79h236v-79h-62q-9 -36 -21.5 -85.5t-27 -105t-30 -114t-30 -114t-27 -104t-21.5 -84.5h-133 l-100 337l-29 99h-2zM325 871l62 63l134 -165l-40 -37z" />
<glyph unicode="&#x1e81;" horiz-adv-x="860" d="M610 79l36 137l56 197h-60v76h205v-76l-47 -1l-122 -412h-142l-56 151l-46 129h-5l-43 -129l-53 -151h-146l-120 409h-53v80h134l73 -260l41 -152h5l44 130l64 183l-9 22h-73v77h248v-77h-55l72 -202l48 -131h4zM272 673l63 63l134 -165l-39 -37z" />
<glyph unicode="&#x1e82;" horiz-adv-x="980" d="M491 436l-30 -103l-99 -333h-134l-159 607h-59v79h240v-79h-65l89 -366l31 -133h2l36 133l97 333l-12 33h-66l-1 79h247l1 -79h-69l113 -372l35 -119h2l29 130l83 361h-64v79h236v-79h-62q-9 -36 -21.5 -85.5t-27 -105t-30 -114t-30 -114t-27 -104t-21.5 -84.5h-133 l-100 337l-29 99h-2zM501 733l-40 38l134 164l64 -63z" />
<glyph unicode="&#x1e83;" horiz-adv-x="860" d="M610 79l36 137l56 197h-60v76h205v-76l-47 -1l-122 -412h-142l-56 151l-46 129h-5l-43 -129l-53 -151h-146l-120 409h-53v80h134l73 -260l41 -152h5l44 130l64 183l-9 22h-73v77h248v-77h-55l72 -202l48 -131h4zM413 534l-40 37l133 165l64 -63z" />
<glyph unicode="&#x1e84;" horiz-adv-x="980" d="M491 436l-30 -103l-99 -333h-134l-159 607h-59v79h240v-79h-65l89 -366l31 -133h2l36 133l97 333l-12 33h-66l-1 79h247l1 -79h-69l113 -372l35 -119h2l29 130l83 361h-64v79h236v-79h-62q-9 -36 -21.5 -85.5t-27 -105t-30 -114t-30 -114t-27 -104t-21.5 -84.5h-133 l-100 337l-29 99h-2zM639 781q0 -23 -16 -37t-40 -14q-21 0 -35 14t-14 37q0 22 14.5 37t34.5 15q24 0 40 -14.5t16 -37.5zM448 781q0 -23 -15.5 -37t-37.5 -14q-23 0 -38 14t-15 37q0 22 15.5 37t35.5 15q23 0 39 -14.5t16 -37.5z" />
<glyph unicode="&#x1e85;" horiz-adv-x="860" d="M610 79l36 137l56 197h-60v76h205v-76l-47 -1l-122 -412h-142l-56 151l-46 129h-5l-43 -129l-53 -151h-146l-120 409h-53v80h134l73 -260l41 -152h5l44 130l64 183l-9 22h-73v77h248v-77h-55l72 -202l48 -131h4zM580 588q0 -21 -15.5 -35.5t-38.5 -14.5q-21 0 -35 14.5 t-14 35.5t14.5 35.5t34.5 14.5q23 0 38.5 -14t15.5 -36zM387 588q0 -21 -14.5 -35.5t-37.5 -14.5q-22 0 -36.5 14.5t-14.5 35.5t15 35.5t35 14.5q23 0 38 -14t15 -36z" />
<glyph unicode="&#x1ef2;" horiz-adv-x="621" d="M445 607h-59v79h224v-79h-56l-189 -320v-210h80v-77h-273v77h80v207l-185 323h-55v79h227v-79h-58l128 -241h4zM159 871l62 63l134 -165l-40 -37z" />
<glyph unicode="&#x1ef3;" horiz-adv-x="561" d="M277 70q2 7 10.5 32.5t19.5 60t24 74t24.5 75t20.5 63t13 37.5h-59v77h208v-77h-49l-178 -518q-10 -26 -21.5 -46t-27.5 -33.5t-38.5 -21t-55.5 -7.5q-11 0 -42 2.5t-72 15.5l16 84q22 -5 42 -7.5t37 -2.5q24 0 37.5 6t22.5 20.5t18 39t24 62.5h-53q-33 101 -65.5 201.5 t-65.5 202.5h-50v79h129q4 -12 14 -45.5t23.5 -78t28.5 -93.5t27.5 -91.5t21.5 -73t11 -37.5h5zM120 673l63 63l134 -165l-39 -37z" />
<glyph unicode="&#x1f00;" horiz-adv-x="571" d="M480 75h71l2 -63q-19 -8 -47 -13t-48 -5q-35 0 -53 10t-24 49q-27 -23 -52 -35.5t-47 -18.5t-39 -7t-28 -1q-51 0 -85 19.5t-54.5 53.5t-29.5 80t-9 98q0 46 11 91.5t35.5 82t64 59t95.5 22.5q42 0 77.5 -15.5t61.5 -38.5q4 11 9.5 23.5t9.5 22.5h79v-414zM251 75 q26 0 58 12.5t65 40.5v240q-9 8 -21.5 16.5t-27.5 16t-30.5 12.5t-28.5 5q-33 0 -56 -14t-37.5 -38t-21 -55t-6.5 -65q0 -53 8.5 -86t23 -52t34 -26t40.5 -7zM263 777q88 -24 88 -100q0 -26 -20.5 -60.5t-59.5 -62.5l-25 28q14 14 24.5 34.5t10.5 33.5q0 14 -10.5 29 t-44.5 20l22 69z" />
<glyph unicode="&#x1f01;" horiz-adv-x="571" d="M480 75h71l2 -63q-19 -8 -47 -13t-48 -5q-35 0 -53 10t-24 49q-27 -23 -52 -35.5t-47 -18.5t-39 -7t-28 -1q-51 0 -85 19.5t-54.5 53.5t-29.5 80t-9 98q0 46 11 91.5t35.5 82t64 59t95.5 22.5q42 0 77.5 -15.5t61.5 -38.5q4 11 9.5 23.5t9.5 22.5h79v-414zM251 75 q26 0 58 12.5t65 40.5v240q-9 8 -21.5 16.5t-27.5 16t-30.5 12.5t-28.5 5q-33 0 -56 -14t-37.5 -38t-21 -55t-6.5 -65q0 -53 8.5 -86t23 -52t34 -26t40.5 -7zM329 768l23 -69q-35 -5 -46 -20t-11 -29q0 -13 10.5 -33.5t24.5 -34.5l-24 -28q-40 28 -60.5 62.5t-20.5 60.5 q0 76 89 100z" />
<glyph unicode="&#x1f02;" horiz-adv-x="571" d="M480 75h71l2 -63q-19 -8 -47 -13t-48 -5q-35 0 -53 10t-24 49q-27 -23 -52 -35.5t-47 -18.5t-39 -7t-28 -1q-51 0 -85 19.5t-54.5 53.5t-29.5 80t-9 98q0 46 11 91.5t35.5 82t64 59t95.5 22.5q42 0 77.5 -15.5t61.5 -38.5q4 11 9.5 23.5t9.5 22.5h79v-414zM251 75 q26 0 58 12.5t65 40.5v240q-9 8 -21.5 16.5t-27.5 16t-30.5 12.5t-28.5 5q-33 0 -56 -14t-37.5 -38t-21 -55t-6.5 -65q0 -53 8.5 -86t23 -52t34 -26t40.5 -7zM173 784q45 -11 66.5 -37t21.5 -64q0 -24 -20 -59t-60 -63l-24 28q14 15 23 34.5t9 33.5t-9.5 28.5t-44.5 19.5 l23 71zM263 752l81 37l77 -203l-45 -21z" />
<glyph unicode="&#x1f03;" horiz-adv-x="571" d="M480 75h71l2 -63q-19 -8 -47 -13t-48 -5q-35 0 -53 10t-24 49q-27 -23 -52 -35.5t-47 -18.5t-39 -7t-28 -1q-51 0 -85 19.5t-54.5 53.5t-29.5 80t-9 98q0 46 11 91.5t35.5 82t64 59t95.5 22.5q42 0 77.5 -15.5t61.5 -38.5q4 11 9.5 23.5t9.5 22.5h79v-414zM251 75 q26 0 58 12.5t65 40.5v240q-9 8 -21.5 16.5t-27.5 16t-30.5 12.5t-28.5 5q-33 0 -56 -14t-37.5 -38t-21 -55t-6.5 -65q0 -53 8.5 -86t23 -52t34 -26t40.5 -7zM247 775l23 -70q-35 -5 -44.5 -20t-9.5 -29q0 -18 10 -36t22 -32l-24 -27q-20 13 -35 29.5t-25.5 33t-15.5 32 t-5 27.5q0 75 90 101zM418 585q-12 -5 -24 -9.5t-24 -9.5q-23 49 -47 97.5t-49 98.5q22 8 43 15.5t42 15.5q15 -53 29 -104.5t30 -103.5z" />
<glyph unicode="&#x1f04;" horiz-adv-x="571" d="M480 75h71l2 -63q-19 -8 -47 -13t-48 -5q-35 0 -53 10t-24 49q-27 -23 -52 -35.5t-47 -18.5t-39 -7t-28 -1q-51 0 -85 19.5t-54.5 53.5t-29.5 80t-9 98q0 46 11 91.5t35.5 82t64 59t95.5 22.5q42 0 77.5 -15.5t61.5 -38.5q4 11 9.5 23.5t9.5 22.5h79v-414zM251 75 q26 0 58 12.5t65 40.5v240q-9 8 -21.5 16.5t-27.5 16t-30.5 12.5t-28.5 5q-33 0 -56 -14t-37.5 -38t-21 -55t-6.5 -65q0 -53 8.5 -86t23 -52t34 -26t40.5 -7zM217 784q45 -11 67 -37t22 -64q0 -24 -20 -59t-60 -63l-25 28q14 15 23 34.5t9 33.5q0 7 -2 14t-7.5 14t-16 12 t-27.5 8l22 71zM353 560l-45 21l77 203l82 -37z" />
<glyph unicode="&#x1f05;" horiz-adv-x="571" d="M480 75h71l2 -63q-19 -8 -47 -13t-48 -5q-35 0 -53 10t-24 49q-27 -23 -52 -35.5t-47 -18.5t-39 -7t-28 -1q-51 0 -85 19.5t-54.5 53.5t-29.5 80t-9 98q0 46 11 91.5t35.5 82t64 59t95.5 22.5q42 0 77.5 -15.5t61.5 -38.5q4 11 9.5 23.5t9.5 22.5h79v-414zM251 75 q26 0 58 12.5t65 40.5v240q-9 8 -21.5 16.5t-27.5 16t-30.5 12.5t-28.5 5q-33 0 -56 -14t-37.5 -38t-21 -55t-6.5 -65q0 -53 8.5 -86t23 -52t34 -26t40.5 -7zM277 775l22 -70q-17 -3 -27.5 -8t-16.5 -12t-8 -14.5t-2 -14.5q0 -12 10 -33t23 -35l-24 -27q-20 13 -35 29.5 t-25.5 33t-15.5 32t-5 27.5q0 75 90 101zM304 580q20 51 39 101t39 101q20 -9 40.5 -18t40.5 -19q-29 -48 -57 -93.5t-56 -93.5q-11 5 -22.5 11t-23.5 11z" />
<glyph unicode="&#x1f06;" horiz-adv-x="571" d="M480 75h71l2 -63q-19 -8 -47 -13t-48 -5q-35 0 -53 10t-24 49q-27 -23 -52 -35.5t-47 -18.5t-39 -7t-28 -1q-51 0 -85 19.5t-54.5 53.5t-29.5 80t-9 98q0 46 11 91.5t35.5 82t64 59t95.5 22.5q42 0 77.5 -15.5t61.5 -38.5q4 11 9.5 23.5t9.5 22.5h79v-414zM251 75 q26 0 58 12.5t65 40.5v240q-9 8 -21.5 16.5t-27.5 16t-30.5 12.5t-28.5 5q-33 0 -56 -14t-37.5 -38t-21 -55t-6.5 -65q0 -53 8.5 -86t23 -52t34 -26t40.5 -7zM358 728q-25 0 -49 6t-45.5 13.5t-40.5 13.5t-34 6l-59 -39l-33 28q36 76 98 76q21 0 43 -6t44 -12.5t42 -12.5 t36 -6l59 39l33 -23q-14 -38 -38 -60.5t-56 -22.5zM253 720q47 -10 68 -29.5t21 -48.5q0 -20 -19 -44t-60 -44l-25 24q14 12 22.5 22t8.5 21q0 14 -11 23.5t-40 13.5l21 55z" />
<glyph unicode="&#x1f07;" horiz-adv-x="571" d="M480 75h71l2 -63q-19 -8 -47 -13t-48 -5q-35 0 -53 10t-24 49q-27 -23 -52 -35.5t-47 -18.5t-39 -7t-28 -1q-51 0 -85 19.5t-54.5 53.5t-29.5 80t-9 98q0 46 11 91.5t35.5 82t64 59t95.5 22.5q42 0 77.5 -15.5t61.5 -38.5q4 11 9.5 23.5t9.5 22.5h79v-414zM251 75 q26 0 58 12.5t65 40.5v240q-9 8 -21.5 16.5t-27.5 16t-30.5 12.5t-28.5 5q-33 0 -56 -14t-37.5 -38t-21 -55t-6.5 -65q0 -53 8.5 -86t23 -52t34 -26t40.5 -7zM369 728q-25 0 -49 6t-45.5 13.5t-40.5 13.5t-34 6l-59 -39l-33 28q36 76 98 76q21 0 43 -6t44 -12.5t42 -12.5 t36 -6l59 39l33 -23q-14 -38 -38 -60.5t-56 -22.5zM318 712l21 -55q-29 -3 -40 -12.5t-11 -22.5q0 -11 8.5 -21.5t22.5 -22.5l-25 -24q-40 21 -60.5 44.5t-20.5 43.5q0 29 21.5 48.5t69.5 28.5z" />
<glyph unicode="&#x1f08;" horiz-adv-x="697" d="M510 76q-8 26 -18 57.5t-18 55.5h-257q-7 -21 -17 -53t-18 -60h68v-76h-230v76h56l207 610h137q49 -149 101 -305t101 -305h56v-76h-234v76h66zM451 265q-20 68 -41 134.5t-43 134.5q-4 15 -8.5 30t-9.5 30h-2l-19 -61q-9 -27 -20 -61.5t-23 -71t-23 -72t-19 -63.5h208z M32 708q88 -24 88 -100q0 -26 -20.5 -60.5t-59.5 -62.5l-25 28q14 14 24.5 34.5t10.5 33.5q0 14 -10.5 29t-44.5 20l22 69z" />
<glyph unicode="&#x1f09;" horiz-adv-x="697" d="M510 76q-8 26 -18 57.5t-18 55.5h-257q-7 -21 -17 -53t-18 -60h68v-76h-230v76h56l207 610h137q49 -149 101 -305t101 -305h56v-76h-234v76h66zM451 265q-20 68 -41 134.5t-43 134.5q-4 15 -8.5 30t-9.5 30h-2l-19 -61q-9 -27 -20 -61.5t-23 -71t-23 -72t-19 -63.5h208z M101 692l23 -69q-35 -5 -46 -20t-11 -29q0 -13 10.5 -33.5t24.5 -34.5l-24 -28q-40 28 -60.5 62.5t-20.5 60.5q0 76 89 100z" />
<glyph unicode="&#x1f0a;" horiz-adv-x="697" d="M510 76q-8 26 -18 57.5t-18 55.5h-257q-7 -21 -17 -53t-18 -60h68v-76h-230v76h56l207 610h137q49 -149 101 -305t101 -305h56v-76h-234v76h66zM451 265q-20 68 -41 134.5t-43 134.5q-4 15 -8.5 30t-9.5 30h-2l-19 -61q-9 -27 -20 -61.5t-23 -71t-23 -72t-19 -63.5h208z M-82 700q45 -11 66.5 -37t21.5 -64q0 -24 -20 -59t-60 -63l-24 28q14 15 23 34.5t9 33.5t-9.5 28.5t-44.5 19.5l23 71zM8 668l81 37l77 -203l-45 -21z" />
<glyph unicode="&#x1f0b;" horiz-adv-x="697" d="M510 76q-8 26 -18 57.5t-18 55.5h-257q-7 -21 -17 -53t-18 -60h68v-76h-230v76h56l207 610h137q49 -149 101 -305t101 -305h56v-76h-234v76h66zM451 265q-20 68 -41 134.5t-43 134.5q-4 15 -8.5 30t-9.5 30h-2l-19 -61q-9 -27 -20 -61.5t-23 -71t-23 -72t-19 -63.5h208z M-9 689l23 -70q-35 -5 -44.5 -20t-9.5 -29q0 -18 10 -36t22 -32l-24 -27q-20 13 -35 29.5t-25.5 33t-15.5 32t-5 27.5q0 75 90 101zM162 499q-12 -5 -24 -9.5t-24 -9.5q-23 49 -47 97.5t-49 98.5q22 8 43 15.5t42 15.5q15 -53 29 -104.5t30 -103.5z" />
<glyph unicode="&#x1f0c;" horiz-adv-x="697" d="M510 76q-8 26 -18 57.5t-18 55.5h-257q-7 -21 -17 -53t-18 -60h68v-76h-230v76h56l207 610h137q49 -149 101 -305t101 -305h56v-76h-234v76h66zM451 265q-20 68 -41 134.5t-43 134.5q-4 15 -8.5 30t-9.5 30h-2l-19 -61q-9 -27 -20 -61.5t-23 -71t-23 -72t-19 -63.5h208z M-73 698q45 -11 67 -37t22 -64q0 -24 -20 -59t-60 -63l-25 28q14 15 23 34.5t9 33.5q0 7 -2 14t-7.5 14t-16 12t-27.5 8l22 71zM63 474l-45 21l77 203l82 -37z" />
<glyph unicode="&#x1f0d;" horiz-adv-x="697" d="M510 76q-8 26 -18 57.5t-18 55.5h-257q-7 -21 -17 -53t-18 -60h68v-76h-230v76h56l207 610h137q49 -149 101 -305t101 -305h56v-76h-234v76h66zM451 265q-20 68 -41 134.5t-43 134.5q-4 15 -8.5 30t-9.5 30h-2l-19 -61q-9 -27 -20 -61.5t-23 -71t-23 -72t-19 -63.5h208z M-5 690l22 -70q-17 -3 -27.5 -8t-16.5 -12t-8 -14.5t-2 -14.5q0 -12 10 -33t23 -35l-24 -27q-20 13 -35 29.5t-25.5 33t-15.5 32t-5 27.5q0 75 90 101zM22 495q20 51 39 101t39 101q20 -9 40.5 -18t40.5 -19q-29 -48 -57 -93.5t-56 -93.5q-11 5 -22.5 11t-23.5 11z" />
<glyph unicode="&#x1f0e;" horiz-adv-x="697" d="M510 76q-8 26 -18 57.5t-18 55.5h-257q-7 -21 -17 -53t-18 -60h68v-76h-230v76h56l207 610h137q49 -149 101 -305t101 -305h56v-76h-234v76h66zM451 265q-20 68 -41 134.5t-43 134.5q-4 15 -8.5 30t-9.5 30h-2l-19 -61q-9 -27 -20 -61.5t-23 -71t-23 -72t-19 -63.5h208z M115 590q-25 0 -49 6t-45.5 13.5t-40.5 13.5t-34 6l-59 -39l-33 28q36 76 98 76q21 0 43 -6t44 -12.5t42 -12.5t36 -6l59 39l33 -23q-14 -38 -38 -60.5t-56 -22.5zM10 582q47 -10 68 -29.5t21 -48.5q0 -20 -19 -44t-60 -44l-25 24q14 12 22.5 22t8.5 21q0 14 -11 23.5 t-40 13.5l21 55z" />
<glyph unicode="&#x1f0f;" horiz-adv-x="697" d="M510 76q-8 26 -18 57.5t-18 55.5h-257q-7 -21 -17 -53t-18 -60h68v-76h-230v76h56l207 610h137q49 -149 101 -305t101 -305h56v-76h-234v76h66zM451 265q-20 68 -41 134.5t-43 134.5q-4 15 -8.5 30t-9.5 30h-2l-19 -61q-9 -27 -20 -61.5t-23 -71t-23 -72t-19 -63.5h208z M118 591q-25 0 -49 6t-45.5 13.5t-40.5 13.5t-34 6l-59 -39l-33 28q36 76 98 76q21 0 43 -6t44 -12.5t42 -12.5t36 -6l59 39l33 -23q-14 -38 -38 -60.5t-56 -22.5zM67 575l21 -55q-29 -3 -40 -12.5t-11 -22.5q0 -11 8.5 -21.5t22.5 -22.5l-25 -24q-40 21 -60.5 44.5 t-20.5 43.5q0 29 21.5 48.5t69.5 28.5z" />
<glyph unicode="&#x1f10;" horiz-adv-x="442" d="M232 502q25 0 49.5 -2.5t46.5 -6t41 -9t32 -11.5v-124h-73v72q-20 6 -41.5 8t-41.5 2q-53 0 -75.5 -21.5t-22.5 -50.5q0 -21 7 -33.5t19 -19.5t27 -9t32 -2h70v-66h-70q-16 0 -32.5 -3.5t-30 -12.5t-22 -24t-8.5 -39q0 -45 34 -64.5t86 -19.5q37 0 72 8.5t74 24.5l22 -63 q-31 -17 -81 -30.5t-107 -13.5q-44 0 -82.5 8.5t-66.5 26t-44 45t-16 65.5q0 44 25.5 76.5t63.5 44.5l1 3q-33 10 -57 34.5t-24 62.5q0 33 14 59.5t39 45t60.5 29t79.5 10.5zM226 777q88 -24 88 -100q0 -26 -20.5 -60.5t-59.5 -62.5l-25 28q14 14 24.5 34.5t10.5 33.5 q0 14 -10.5 29t-44.5 20l22 69z" />
<glyph unicode="&#x1f11;" horiz-adv-x="442" d="M232 502q25 0 49.5 -2.5t46.5 -6t41 -9t32 -11.5v-124h-73v72q-20 6 -41.5 8t-41.5 2q-53 0 -75.5 -21.5t-22.5 -50.5q0 -21 7 -33.5t19 -19.5t27 -9t32 -2h70v-66h-70q-16 0 -32.5 -3.5t-30 -12.5t-22 -24t-8.5 -39q0 -45 34 -64.5t86 -19.5q37 0 72 8.5t74 24.5l22 -63 q-31 -17 -81 -30.5t-107 -13.5q-44 0 -82.5 8.5t-66.5 26t-44 45t-16 65.5q0 44 25.5 76.5t63.5 44.5l1 3q-33 10 -57 34.5t-24 62.5q0 33 14 59.5t39 45t60.5 29t79.5 10.5zM280 768l23 -69q-35 -5 -46 -20t-11 -29q0 -13 10.5 -33.5t24.5 -34.5l-24 -28q-40 28 -60.5 62.5 t-20.5 60.5q0 76 89 100z" />
<glyph unicode="&#x1f12;" horiz-adv-x="442" d="M232 502q25 0 49.5 -2.5t46.5 -6t41 -9t32 -11.5v-124h-73v72q-20 6 -41.5 8t-41.5 2q-53 0 -75.5 -21.5t-22.5 -50.5q0 -21 7 -33.5t19 -19.5t27 -9t32 -2h70v-66h-70q-16 0 -32.5 -3.5t-30 -12.5t-22 -24t-8.5 -39q0 -45 34 -64.5t86 -19.5q37 0 72 8.5t74 24.5l22 -63 q-31 -17 -81 -30.5t-107 -13.5q-44 0 -82.5 8.5t-66.5 26t-44 45t-16 65.5q0 44 25.5 76.5t63.5 44.5l1 3q-33 10 -57 34.5t-24 62.5q0 33 14 59.5t39 45t60.5 29t79.5 10.5zM144 784q45 -11 66.5 -37t21.5 -64q0 -24 -20 -59t-60 -63l-24 28q14 15 23 34.5t9 33.5 t-9.5 28.5t-44.5 19.5l23 71zM234 752l81 37l77 -203l-45 -21z" />
<glyph unicode="&#x1f13;" horiz-adv-x="442" d="M232 502q25 0 49.5 -2.5t46.5 -6t41 -9t32 -11.5v-124h-73v72q-20 6 -41.5 8t-41.5 2q-53 0 -75.5 -21.5t-22.5 -50.5q0 -21 7 -33.5t19 -19.5t27 -9t32 -2h70v-66h-70q-16 0 -32.5 -3.5t-30 -12.5t-22 -24t-8.5 -39q0 -45 34 -64.5t86 -19.5q37 0 72 8.5t74 24.5l22 -63 q-31 -17 -81 -30.5t-107 -13.5q-44 0 -82.5 8.5t-66.5 26t-44 45t-16 65.5q0 44 25.5 76.5t63.5 44.5l1 3q-33 10 -57 34.5t-24 62.5q0 33 14 59.5t39 45t60.5 29t79.5 10.5zM214 775l23 -70q-35 -5 -44.5 -20t-9.5 -29q0 -18 10 -36t22 -32l-24 -27q-20 13 -35 29.5 t-25.5 33t-15.5 32t-5 27.5q0 75 90 101zM385 585q-12 -5 -24 -9.5t-24 -9.5q-23 49 -47 97.5t-49 98.5q22 8 43 15.5t42 15.5q15 -53 29 -104.5t30 -103.5z" />
<glyph unicode="&#x1f14;" horiz-adv-x="442" d="M232 502q25 0 49.5 -2.5t46.5 -6t41 -9t32 -11.5v-124h-73v72q-20 6 -41.5 8t-41.5 2q-53 0 -75.5 -21.5t-22.5 -50.5q0 -21 7 -33.5t19 -19.5t27 -9t32 -2h70v-66h-70q-16 0 -32.5 -3.5t-30 -12.5t-22 -24t-8.5 -39q0 -45 34 -64.5t86 -19.5q37 0 72 8.5t74 24.5l22 -63 q-31 -17 -81 -30.5t-107 -13.5q-44 0 -82.5 8.5t-66.5 26t-44 45t-16 65.5q0 44 25.5 76.5t63.5 44.5l1 3q-33 10 -57 34.5t-24 62.5q0 33 14 59.5t39 45t60.5 29t79.5 10.5zM155 784q45 -11 67 -37t22 -64q0 -24 -20 -59t-60 -63l-25 28q14 15 23 34.5t9 33.5q0 7 -2 14 t-7.5 14t-16 12t-27.5 8l22 71zM291 560l-45 21l77 203l82 -37z" />
<glyph unicode="&#x1f15;" horiz-adv-x="442" d="M232 502q25 0 49.5 -2.5t46.5 -6t41 -9t32 -11.5v-124h-73v72q-20 6 -41.5 8t-41.5 2q-53 0 -75.5 -21.5t-22.5 -50.5q0 -21 7 -33.5t19 -19.5t27 -9t32 -2h70v-66h-70q-16 0 -32.5 -3.5t-30 -12.5t-22 -24t-8.5 -39q0 -45 34 -64.5t86 -19.5q37 0 72 8.5t74 24.5l22 -63 q-31 -17 -81 -30.5t-107 -13.5q-44 0 -82.5 8.5t-66.5 26t-44 45t-16 65.5q0 44 25.5 76.5t63.5 44.5l1 3q-33 10 -57 34.5t-24 62.5q0 33 14 59.5t39 45t60.5 29t79.5 10.5zM228 775l22 -70q-17 -3 -27.5 -8t-16.5 -12t-8 -14.5t-2 -14.5q0 -12 10 -33t23 -35l-24 -27 q-20 13 -35 29.5t-25.5 33t-15.5 32t-5 27.5q0 75 90 101zM255 580q20 51 39 101t39 101q20 -9 40.5 -18t40.5 -19q-29 -48 -57 -93.5t-56 -93.5q-11 5 -22.5 11t-23.5 11z" />
<glyph unicode="&#x1f18;" horiz-adv-x="607" d="M42 0v78h68v530h-66v77h519v-179h-81v102h-262v-215l243 5v-79l-243 4v-245h275v105h82v-183h-535zM-102 706q88 -24 88 -100q0 -26 -20.5 -60.5t-59.5 -62.5l-25 28q14 14 24.5 34.5t10.5 33.5q0 14 -10.5 29t-44.5 20l22 69z" />
<glyph unicode="&#x1f19;" horiz-adv-x="607" d="M42 0v78h68v530h-66v77h519v-179h-81v102h-262v-215l243 5v-79l-243 4v-245h275v105h82v-183h-535zM-29 692l23 -69q-35 -5 -46 -20t-11 -29q0 -13 10.5 -33.5t24.5 -34.5l-24 -28q-40 28 -60.5 62.5t-20.5 60.5q0 76 89 100z" />
<glyph unicode="&#x1f1a;" horiz-adv-x="607" d="M42 0v78h68v530h-66v77h519v-179h-81v102h-262v-215l243 5v-79l-243 4v-245h275v105h82v-183h-535zM-227 705q45 -11 66.5 -37t21.5 -64q0 -24 -20 -59t-60 -63l-24 28q14 15 23 34.5t9 33.5t-9.5 28.5t-44.5 19.5l23 71zM-137 673l81 37l77 -203l-45 -21z" />
<glyph unicode="&#x1f1b;" horiz-adv-x="607" d="M42 0v78h68v530h-66v77h519v-179h-81v102h-262v-215l243 5v-79l-243 4v-245h275v105h82v-183h-535zM-153 694l23 -70q-35 -5 -44.5 -20t-9.5 -29q0 -18 10 -36t22 -32l-24 -27q-20 13 -35 29.5t-25.5 33t-15.5 32t-5 27.5q0 75 90 101zM18 504q-12 -5 -24 -9.5t-24 -9.5 q-23 49 -47 97.5t-49 98.5q22 8 43 15.5t42 15.5q15 -53 29 -104.5t30 -103.5z" />
<glyph unicode="&#x1f1c;" horiz-adv-x="607" d="M42 0v78h68v530h-66v77h519v-179h-81v102h-262v-215l243 5v-79l-243 4v-245h275v105h82v-183h-535zM-248 703q45 -11 67 -37t22 -64q0 -24 -20 -59t-60 -63l-25 28q14 15 23 34.5t9 33.5q0 7 -2 14t-7.5 14t-16 12t-27.5 8l22 71zM-112 479l-45 21l77 203l82 -37z" />
<glyph unicode="&#x1f1d;" horiz-adv-x="607" d="M42 0v78h68v530h-66v77h519v-179h-81v102h-262v-215l243 5v-79l-243 4v-245h275v105h82v-183h-535zM-182 693l22 -70q-17 -3 -27.5 -8t-16.5 -12t-8 -14.5t-2 -14.5q0 -12 10 -33t23 -35l-24 -27q-20 13 -35 29.5t-25.5 33t-15.5 32t-5 27.5q0 75 90 101zM-155 498 q20 51 39 101t39 101q20 -9 40.5 -18t40.5 -19q-29 -48 -57 -93.5t-56 -93.5q-11 5 -22.5 11t-23.5 11z" />
<glyph unicode="&#x1f20;" horiz-adv-x="611" d="M365 500q53 0 83 -17.5t44.5 -42.5t18 -53.5t3.5 -49.5v-261h74v-63q-21 -10 -50 -14.5t-49 -4.5q-30 0 -46 9.5t-24 22.5t-9.5 26t-1.5 21v244q0 25 -3 43t-11 30t-24 18t-41 6q-31 0 -67.5 -14t-64.5 -31v-369h-106v413h-70v76h176v-43l5 -1q42 27 84 41t79 14z M260 777q88 -24 88 -100q0 -26 -20.5 -60.5t-59.5 -62.5l-25 28q14 14 24.5 34.5t10.5 33.5q0 14 -10.5 29t-44.5 20l22 69z" />
<glyph unicode="&#x1f21;" horiz-adv-x="611" d="M365 500q53 0 83 -17.5t44.5 -42.5t18 -53.5t3.5 -49.5v-261h74v-63q-21 -10 -50 -14.5t-49 -4.5q-30 0 -46 9.5t-24 22.5t-9.5 26t-1.5 21v244q0 25 -3 43t-11 30t-24 18t-41 6q-31 0 -67.5 -14t-64.5 -31v-369h-106v413h-70v76h176v-43l5 -1q42 27 84 41t79 14z M310 768l23 -69q-35 -5 -46 -20t-11 -29q0 -13 10.5 -33.5t24.5 -34.5l-24 -28q-40 28 -60.5 62.5t-20.5 60.5q0 76 89 100z" />
<glyph unicode="&#x1f22;" horiz-adv-x="611" d="M365 500q53 0 83 -17.5t44.5 -42.5t18 -53.5t3.5 -49.5v-261h74v-63q-21 -10 -50 -14.5t-49 -4.5q-30 0 -46 9.5t-24 22.5t-9.5 26t-1.5 21v244q0 25 -3 43t-11 30t-24 18t-41 6q-31 0 -67.5 -14t-64.5 -31v-369h-106v413h-70v76h176v-43l5 -1q42 27 84 41t79 14z M181 784q45 -11 66.5 -37t21.5 -64q0 -24 -20 -59t-60 -63l-24 28q14 15 23 34.5t9 33.5t-9.5 28.5t-44.5 19.5l23 71zM271 752l81 37l77 -203l-45 -21z" />
<glyph unicode="&#x1f23;" horiz-adv-x="611" d="M365 500q53 0 83 -17.5t44.5 -42.5t18 -53.5t3.5 -49.5v-261h74v-63q-21 -10 -50 -14.5t-49 -4.5q-30 0 -46 9.5t-24 22.5t-9.5 26t-1.5 21v244q0 25 -3 43t-11 30t-24 18t-41 6q-31 0 -67.5 -14t-64.5 -31v-369h-106v413h-70v76h176v-43l5 -1q42 27 84 41t79 14z M263 775l23 -70q-35 -5 -44.5 -20t-9.5 -29q0 -18 10 -36t22 -32l-24 -27q-20 13 -35 29.5t-25.5 33t-15.5 32t-5 27.5q0 75 90 101zM434 585q-12 -5 -24 -9.5t-24 -9.5q-23 49 -47 97.5t-49 98.5q22 8 43 15.5t42 15.5q15 -53 29 -104.5t30 -103.5z" />
<glyph unicode="&#x1f24;" horiz-adv-x="611" d="M365 500q53 0 83 -17.5t44.5 -42.5t18 -53.5t3.5 -49.5v-261h74v-63q-21 -10 -50 -14.5t-49 -4.5q-30 0 -46 9.5t-24 22.5t-9.5 26t-1.5 21v244q0 25 -3 43t-11 30t-24 18t-41 6q-31 0 -67.5 -14t-64.5 -31v-369h-106v413h-70v76h176v-43l5 -1q42 27 84 41t79 14z M207 784q45 -11 67 -37t22 -64q0 -24 -20 -59t-60 -63l-25 28q14 15 23 34.5t9 33.5q0 7 -2 14t-7.5 14t-16 12t-27.5 8l22 71zM343 560l-45 21l77 203l82 -37z" />
<glyph unicode="&#x1f25;" horiz-adv-x="611" d="M365 500q53 0 83 -17.5t44.5 -42.5t18 -53.5t3.5 -49.5v-261h74v-63q-21 -10 -50 -14.5t-49 -4.5q-30 0 -46 9.5t-24 22.5t-9.5 26t-1.5 21v244q0 25 -3 43t-11 30t-24 18t-41 6q-31 0 -67.5 -14t-64.5 -31v-369h-106v413h-70v76h176v-43l5 -1q42 27 84 41t79 14z M272 775l22 -70q-17 -3 -27.5 -8t-16.5 -12t-8 -14.5t-2 -14.5q0 -12 10 -33t23 -35l-24 -27q-20 13 -35 29.5t-25.5 33t-15.5 32t-5 27.5q0 75 90 101zM299 580q20 51 39 101t39 101q20 -9 40.5 -18t40.5 -19q-29 -48 -57 -93.5t-56 -93.5q-11 5 -22.5 11t-23.5 11z" />
<glyph unicode="&#x1f26;" horiz-adv-x="611" d="M365 500q53 0 83 -17.5t44.5 -42.5t18 -53.5t3.5 -49.5v-261h74v-63q-21 -10 -50 -14.5t-49 -4.5q-30 0 -46 9.5t-24 22.5t-9.5 26t-1.5 21v244q0 25 -3 43t-11 30t-24 18t-41 6q-31 0 -67.5 -14t-64.5 -31v-369h-106v413h-70v76h176v-43l5 -1q42 27 84 41t79 14z M375 728q-25 0 -49 6t-45.5 13.5t-40.5 13.5t-34 6l-59 -39l-33 28q36 76 98 76q21 0 43 -6t44 -12.5t42 -12.5t36 -6l59 39l33 -23q-14 -38 -38 -60.5t-56 -22.5zM270 720q47 -10 68 -29.5t21 -48.5q0 -20 -19 -44t-60 -44l-25 24q14 12 22.5 22t8.5 21q0 14 -11 23.5 t-40 13.5l21 55z" />
<glyph unicode="&#x1f27;" horiz-adv-x="611" d="M365 500q53 0 83 -17.5t44.5 -42.5t18 -53.5t3.5 -49.5v-261h74v-63q-21 -10 -50 -14.5t-49 -4.5q-30 0 -46 9.5t-24 22.5t-9.5 26t-1.5 21v244q0 25 -3 43t-11 30t-24 18t-41 6q-31 0 -67.5 -14t-64.5 -31v-369h-106v413h-70v76h176v-43l5 -1q42 27 84 41t79 14z M383 728q-25 0 -49 6t-45.5 13.5t-40.5 13.5t-34 6l-59 -39l-33 28q36 76 98 76q21 0 43 -6t44 -12.5t42 -12.5t36 -6l59 39l33 -23q-14 -38 -38 -60.5t-56 -22.5zM332 712l21 -55q-29 -3 -40 -12.5t-11 -22.5q0 -11 8.5 -21.5t22.5 -22.5l-25 -24q-40 21 -60.5 44.5 t-20.5 43.5q0 29 21.5 48.5t69.5 28.5z" />
<glyph unicode="&#x1f28;" horiz-adv-x="739" d="M457 0v77h62v244h-301v-244h63v-77h-240v77h67v531h-67v77h240v-77h-63v-213h301v213h-62v77h240v-77h-67v-531h67v-77h-240zM-103 707q88 -24 88 -100q0 -26 -20.5 -60.5t-59.5 -62.5l-25 28q14 14 24.5 34.5t10.5 33.5q0 14 -10.5 29t-44.5 20l22 69z" />
<glyph unicode="&#x1f29;" horiz-adv-x="739" d="M457 0v77h62v244h-301v-244h63v-77h-240v77h67v531h-67v77h240v-77h-63v-213h301v213h-62v77h240v-77h-67v-531h67v-77h-240zM-36 692l23 -69q-35 -5 -46 -20t-11 -29q0 -13 10.5 -33.5t24.5 -34.5l-24 -28q-40 28 -60.5 62.5t-20.5 60.5q0 76 89 100z" />
<glyph unicode="&#x1f2a;" horiz-adv-x="739" d="M457 0v77h62v244h-301v-244h63v-77h-240v77h67v531h-67v77h240v-77h-63v-213h301v213h-62v77h240v-77h-67v-531h67v-77h-240zM-223 699q45 -11 66.5 -37t21.5 -64q0 -24 -20 -59t-60 -63l-24 28q14 15 23 34.5t9 33.5t-9.5 28.5t-44.5 19.5l23 71zM-133 667l81 37 l77 -203l-45 -21z" />
<glyph unicode="&#x1f2b;" horiz-adv-x="739" d="M457 0v77h62v244h-301v-244h63v-77h-240v77h67v531h-67v77h240v-77h-63v-213h301v213h-62v77h240v-77h-67v-531h67v-77h-240zM-149 691l23 -70q-35 -5 -44.5 -20t-9.5 -29q0 -18 10 -36t22 -32l-24 -27q-20 13 -35 29.5t-25.5 33t-15.5 32t-5 27.5q0 75 90 101zM22 501 q-12 -5 -24 -9.5t-24 -9.5q-23 49 -47 97.5t-49 98.5q22 8 43 15.5t42 15.5q15 -53 29 -104.5t30 -103.5z" />
<glyph unicode="&#x1f2c;" horiz-adv-x="739" d="M457 0v77h62v244h-301v-244h63v-77h-240v77h67v531h-67v77h240v-77h-63v-213h301v213h-62v77h240v-77h-67v-531h67v-77h-240zM-246 699q45 -11 67 -37t22 -64q0 -24 -20 -59t-60 -63l-25 28q14 15 23 34.5t9 33.5q0 7 -2 14t-7.5 14t-16 12t-27.5 8l22 71zM-110 475 l-45 21l77 203l82 -37z" />
<glyph unicode="&#x1f2d;" horiz-adv-x="739" d="M457 0v77h62v244h-301v-244h63v-77h-240v77h67v531h-67v77h240v-77h-63v-213h301v213h-62v77h240v-77h-67v-531h67v-77h-240zM-183 690l22 -70q-17 -3 -27.5 -8t-16.5 -12t-8 -14.5t-2 -14.5q0 -12 10 -33t23 -35l-24 -27q-20 13 -35 29.5t-25.5 33t-15.5 32t-5 27.5 q0 75 90 101zM-156 495q20 51 39 101t39 101q20 -9 40.5 -18t40.5 -19q-29 -48 -57 -93.5t-56 -93.5q-11 5 -22.5 11t-23.5 11z" />
<glyph unicode="&#x1f2e;" horiz-adv-x="739" d="M457 0v77h62v244h-301v-244h63v-77h-240v77h67v531h-67v77h240v-77h-63v-213h301v213h-62v77h240v-77h-67v-531h67v-77h-240zM-89 590q-25 0 -49 6t-45.5 13.5t-40.5 13.5t-34 6l-59 -39l-33 28q36 76 98 76q21 0 43 -6t44 -12.5t42 -12.5t36 -6l59 39l33 -23 q-14 -38 -38 -60.5t-56 -22.5zM-194 582q47 -10 68 -29.5t21 -48.5q0 -20 -19 -44t-60 -44l-25 24q14 12 22.5 22t8.5 21q0 14 -11 23.5t-40 13.5l21 55z" />
<glyph unicode="&#x1f2f;" horiz-adv-x="739" d="M457 0v77h62v244h-301v-244h63v-77h-240v77h67v531h-67v77h240v-77h-63v-213h301v213h-62v77h240v-77h-67v-531h67v-77h-240zM-87 591q-25 0 -49 6t-45.5 13.5t-40.5 13.5t-34 6l-59 -39l-33 28q36 76 98 76q21 0 43 -6t44 -12.5t42 -12.5t36 -6l59 39l33 -23 q-14 -38 -38 -60.5t-56 -22.5zM-138 575l21 -55q-29 -3 -40 -12.5t-11 -22.5q0 -11 8.5 -21.5t22.5 -22.5l-25 -24q-40 21 -60.5 44.5t-20.5 43.5q0 29 21.5 48.5t69.5 28.5z" />
<glyph unicode="&#x1f30;" horiz-adv-x="303" d="M32 412v77h161v-412h72v-64q-21 -10 -49 -15t-48 -5q-42 0 -60.5 17.5t-19.5 61.5v340h-56zM113 777q88 -24 88 -100q0 -26 -20.5 -60.5t-59.5 -62.5l-25 28q14 14 24.5 34.5t10.5 33.5q0 14 -10.5 29t-44.5 20l22 69z" />
<glyph unicode="&#x1f31;" horiz-adv-x="303" d="M32 412v77h161v-412h72v-64q-21 -10 -49 -15t-48 -5q-42 0 -60.5 17.5t-19.5 61.5v340h-56zM169 768l23 -69q-35 -5 -46 -20t-11 -29q0 -13 10.5 -33.5t24.5 -34.5l-24 -28q-40 28 -60.5 62.5t-20.5 60.5q0 76 89 100z" />
<glyph unicode="&#x1f32;" horiz-adv-x="303" d="M32 412v77h161v-412h72v-64q-21 -10 -49 -15t-48 -5q-42 0 -60.5 17.5t-19.5 61.5v340h-56zM16 784q45 -11 66.5 -37t21.5 -64q0 -24 -20 -59t-60 -63l-24 28q14 15 23 34.5t9 33.5t-9.5 28.5t-44.5 19.5l23 71zM106 752l81 37l77 -203l-45 -21z" />
<glyph unicode="&#x1f33;" horiz-adv-x="303" d="M32 412v77h161v-412h72v-64q-21 -10 -49 -15t-48 -5q-42 0 -60.5 17.5t-19.5 61.5v340h-56zM93 777l23 -70q-35 -5 -44.5 -20t-9.5 -29q0 -18 10 -36t22 -32l-24 -27q-20 13 -35 29.5t-25.5 33t-15.5 32t-5 27.5q0 75 90 101zM264 587q-12 -5 -24 -9.5t-24 -9.5 q-23 49 -47 97.5t-49 98.5q22 8 43 15.5t42 15.5q15 -53 29 -104.5t30 -103.5z" />
<glyph unicode="&#x1f34;" horiz-adv-x="303" d="M32 412v77h161v-412h72v-64q-21 -10 -49 -15t-48 -5q-42 0 -60.5 17.5t-19.5 61.5v340h-56zM56 784q45 -11 67 -37t22 -64q0 -24 -20 -59t-60 -63l-25 28q14 15 23 34.5t9 33.5q0 7 -2 14t-7.5 14t-16 12t-27.5 8l22 71zM192 560l-45 21l77 203l82 -37z" />
<glyph unicode="&#x1f35;" horiz-adv-x="303" d="M32 412v77h161v-412h72v-64q-21 -10 -49 -15t-48 -5q-42 0 -60.5 17.5t-19.5 61.5v340h-56zM111 775l22 -70q-17 -3 -27.5 -8t-16.5 -12t-8 -14.5t-2 -14.5q0 -12 10 -33t23 -35l-24 -27q-20 13 -35 29.5t-25.5 33t-15.5 32t-5 27.5q0 75 90 101zM138 580q20 51 39 101 t39 101q20 -9 40.5 -18t40.5 -19q-29 -48 -57 -93.5t-56 -93.5q-11 5 -22.5 11t-23.5 11z" />
<glyph unicode="&#x1f36;" horiz-adv-x="303" d="M32 412v77h161v-412h72v-64q-21 -10 -49 -15t-48 -5q-42 0 -60.5 17.5t-19.5 61.5v340h-56zM210 728q-25 0 -49 6t-45.5 13.5t-40.5 13.5t-34 6l-59 -39l-33 28q36 76 98 76q21 0 43 -6t44 -12.5t42 -12.5t36 -6l59 39l33 -23q-14 -38 -38 -60.5t-56 -22.5zM105 720 q47 -10 68 -29.5t21 -48.5q0 -20 -19 -44t-60 -44l-25 24q14 12 22.5 22t8.5 21q0 14 -11 23.5t-40 13.5l21 55z" />
<glyph unicode="&#x1f37;" horiz-adv-x="303" d="M32 412v77h161v-412h72v-64q-21 -10 -49 -15t-48 -5q-42 0 -60.5 17.5t-19.5 61.5v340h-56zM227 728q-25 0 -49 6t-45.5 13.5t-40.5 13.5t-34 6l-59 -39l-33 28q36 76 98 76q21 0 43 -6t44 -12.5t42 -12.5t36 -6l59 39l33 -23q-14 -38 -38 -60.5t-56 -22.5zM176 712 l21 -55q-29 -3 -40 -12.5t-11 -22.5q0 -11 8.5 -21.5t22.5 -22.5l-25 -24q-40 21 -60.5 44.5t-20.5 43.5q0 29 21.5 48.5t69.5 28.5z" />
<glyph unicode="&#x1f38;" horiz-adv-x="381" d="M70 0v77h65v531h-65v78h241v-78h-66v-531h66v-77h-241zM-84 706q88 -24 88 -100q0 -26 -20.5 -60.5t-59.5 -62.5l-25 28q14 14 24.5 34.5t10.5 33.5q0 14 -10.5 29t-44.5 20l22 69z" />
</font>
</defs>
</svg>
